SplineFontDB: 3.0
FontName: RoutedGothic
FullName: Routed Gothic
FamilyName: Routed Gothic
Weight: Regular

StartChar: exclam
Encoding: 33 33 0
Width: 288
VWidth: 32
Flags: HW
HStem: 48 48<121.906 166.094>
VStem: 120 48<49.9059 94.0941>
LayerCount: 2
Fore
SplineSet
216 80 m 0
 216 35.7113719983 180.27566836 0 136 0 c 0
 99.711554458 0 72 27.711554458 72 64 c 0
 72 108.288628002 107.72433164 144 152 144 c 0
 188.288445542 144 216 116.288445542 216 80 c 0
144 736 m 0
 170.144471708 736 192 714.146366075 192 688 c 2
 192 288 l 2
 192 261.855528292 170.146366075 240 144 240 c 0
 117.853633925 240 96 261.855528292 96 288 c 2
 96 688 l 2
 96 714.146366075 117.855528292 736 144 736 c 0
EndSplineSet
EndChar

StartChar: quotedbl
Encoding: 34 34 1
Width: 384
VWidth: 32
Flags: HW
LayerCount: 2
Fore
SplineSet
272 736 m 0
 298.144471708 736 320 714.146366075 320 688 c 2
 320 480 l 2
 320 453.855528292 298.146366075 432 272 432 c 0
 245.853633925 432 224 453.855528292 224 480 c 2
 224 688 l 2
 224 714.146366075 245.855528292 736 272 736 c 0
112 736 m 0
 138.144471708 736 160 714.146366075 160 688 c 2
 160 480 l 2
 160 453.855528292 138.146366075 432 112 432 c 0
 85.8536339246 432 64 453.855528292 64 480 c 2
 64 688 l 2
 64 714.146366075 85.8555282921 736 112 736 c 0
EndSplineSet
EndChar

StartChar: numbersign
Encoding: 35 35 2
Width: 672
VWidth: 32
Flags: HW
LayerCount: 2
Fore
SplineSet
323.272488815 1.71814114542 m 0
 302.184237825 7.51741016765 288.045172703 27.2668653655 288.045172703 48.326995716 c 0
 288.045172703 52.4418909055 288.584951897 56.6068230083 289.718141145 60.727511185 c 2
 339.01807557 240 l 1
 262.58192443 240 l 1
 206.281858855 35.272488815 l 2
 200.482210221 14.182857419 180.73199547 0.0452226012619 159.672785969 0.0452226012619 c 0
 155.557894518 0.0452226012619 151.393026027 0.584993412235 147.272488815 1.71814114542 c 0
 126.184237825 7.51741016765 112.045172703 27.2668653655 112.045172703 48.326995716 c 0
 112.045172703 52.4418909055 112.584951897 56.6068230083 113.718141145 60.727511185 c 2
 163.01807557 240 l 1
 112 240 l 2
 85.8536339246 240 64 261.855528292 64 288 c 0
 64 314.144471708 85.8536339246 336 112 336 c 2
 189.41807557 336 l 1
 207.01807557 400 l 1
 112 400 l 2
 85.8536339246 400 64 421.855528292 64 448 c 0
 64 474.144471708 85.8536339246 496 112 496 c 2
 233.41807557 496 l 1
 289.718141145 700.727511185 l 2
 295.517410168 721.815762175 315.266865365 735.954827297 336.326995716 735.954827297 c 0
 340.441890905 735.954827297 344.606823008 735.415048103 348.727511185 734.281858855 c 0
 369.817142581 728.482210221 383.954777399 708.73199547 383.954777399 687.672785969 c 0
 383.954777399 683.557894518 383.415006588 679.393026027 382.281858855 675.272488815 c 2
 332.98192443 496 l 1
 409.41807557 496 l 1
 465.718141145 700.727511185 l 2
 471.517410168 721.815762175 491.266865365 735.954827297 512.326995716 735.954827297 c 0
 516.441890905 735.954827297 520.606823008 735.415048103 524.727511185 734.281858855 c 0
 545.817142581 728.482210221 559.954777399 708.73199547 559.954777399 687.672785969 c 0
 559.954777399 683.557894518 559.415006588 679.393026027 558.281858855 675.272488815 c 2
 508.98192443 496 l 1
 560 496 l 2
 586.144471708 496 608 474.146366075 608 448 c 0
 608 421.853633925 586.144471708 400 560 400 c 2
 482.58192443 400 l 1
 464.98192443 336 l 1
 560 336 l 2
 586.144471708 336 608 314.146366075 608 288 c 0
 608 261.853633925 586.144471708 240 560 240 c 2
 438.58192443 240 l 1
 382.281858855 35.272488815 l 2
 376.482210221 14.182857419 356.73199547 0.0452226012618 335.672785969 0.0452226012618 c 0
 331.557894518 0.0452226012618 327.393026027 0.584993412235 323.272488815 1.71814114542 c 0
306.58192443 400 m 1
 288.98192443 336 l 1
 365.41807557 336 l 1
 383.01807557 400 l 1
 306.58192443 400 l 1
EndSplineSet
EndChar

StartChar: dollar
Encoding: 36 36 3
Width: 504
VWidth: 32
Flags: HW
LayerCount: 2
Fore
SplineSet
413.774829081 498.350835956 m 0
 404.985637285 491.399906496 394.809052737 488.011537557 384.602043301 488.011537557 c 0
 370.425324354 488.011537557 356.189912798 494.548035346 345.531618825 507.154308355 c 0
 345.396797463 507.311414239 330.992580726 523.224253767 304 534.083922853 c 1
 304 420.033713781 l 1
 404.228978127 395.66293928 440 328.705118956 440 264 c 0
 440 187.042102781 388.064428343 121.022266681 304 101.707203232 c 1
 304 48 l 2
 304 21.8555282921 282.146366075 0 256 0 c 0
 229.853633925 0 208 21.8555282921 208 48 c 2
 208 100.700653998 l 1
 123.695477422 118.985785286 75.7046325038 184.490927655 73.6913854883 187.067883835 c 0
 67.1828913454 195.985495834 64.0941960163 206.142674504 64.0941960163 216.110284727 c 0
 64.0941960163 230.515932337 70.5456640751 244.525621571 82.4490859853 253.825169939 c 0
 91.0733320066 260.562862143 101.46489555 263.855394769 111.832933612 263.855394769 c 0
 125.671300793 263.855394769 139.467758227 257.989873405 148.964142587 246.62173825 c 0
 151.839349089 243.057859532 175.173663248 216.950306303 208 202.157141101 c 1
 208 338.580447289 l 1
 108.198649261 362.25958141 72 434.93656293 72 492 c 1
 72 567.253936067 134.247829923 620.223637477 208 635.486778008 c 1
 208 688 l 2
 208 714.146366075 229.855528292 736 256 736 c 0
 282.144471708 736 304 714.146366075 304 688 c 2
 304 634.554018916 l 1
 379.057669662 618.290927882 417.633449673 570.852565891 422.136224267 565.158974876 c 0
 428.400643189 556.68187113 431.617054842 546.299097708 431.617054842 535.891034443 c 0
 431.617054842 521.901191384 425.80596667 507.865657186 413.774829081 498.350835956 c 0
208 535.849050244 m 1
 180.356397241 524.287816639 168 503.281256277 168 492 c 0
 168 476.812486362 169.390503996 452.163783155 208 437.74134949 c 1
 208 535.849050244 l 1
304 201.272612257 m 1
 333.467133337 214.238393394 344 239.013694476 344 264 c 0
 344 286.555159098 345.61589391 308.571330784 304 322.022155103 c 1
 304 201.272612257 l 1
EndSplineSet
EndChar

StartChar: percent
Encoding: 37 37 5
Width: 864
VWidth: 32
Flags: HW
HStem: 48 240<549.902 698.098> 448 240<165.902 314.098>
VStem: 112 256<500.907 635.093> 496 256<100.907 235.093>
LayerCount: 2
Fore
SplineSet
800 168 m 0
 800 72.9772083545 718.969180971 0 624 0 c 0
 529.030758999 0 448 72.9769934828 448 168 c 0
 448 263.022791646 529.030819029 336 624 336 c 0
 718.969241001 336 800 263.023006517 800 168 c 0
704 168 m 0
 704 204.976993483 671.030758999 240 624 240 c 0
 576.969180971 240 544 204.977208354 544 168 c 0
 544 131.023006517 576.969241001 96 624 96 c 0
 671.030819029 96 704 131.022791646 704 168 c 0
416 568 m 0
 416 472.977208354 334.969180971 400 240 400 c 0
 145.030758999 400 64 472.976993483 64 568 c 0
 64 663.022791646 145.030819029 736 240 736 c 0
 334.969241001 736 416 663.023006517 416 568 c 0
320 568 m 0
 320 604.976993483 287.030758999 640 240 640 c 0
 192.969180971 640 160 604.977208354 160 568 c 0
 160 531.023006517 192.969241001 496 240 496 c 0
 287.030819029 496 320 531.022791646 320 568 c 0
232.867900011 5.94163638352 m 0
 217.127700129 14.5987463186 208.133744892 31.3201530381 208.133744892 48.3684176865 c 0
 208.133744892 56.1321054802 209.998949543 63.96357846 213.941636384 71.1320999891 c 2
 565.941636384 711.132099989 l 2
 574.598746319 726.872299871 591.320153038 735.866255108 608.368417687 735.866255108 c 0
 616.13210548 735.866255108 623.96357846 734.001050457 631.132099989 730.058363616 c 0
 646.873132035 721.400795991 655.866185527 704.679325859 655.866185527 687.631664256 c 0
 655.866185527 679.867765087 654.000934372 672.036210476 650.058363616 664.867900011 c 2
 298.058363616 24.8679000109 l 2
 289.400795991 9.1268679654 272.679325859 0.13381447299 255.631664256 0.13381447299 c 0
 247.867765087 0.13381447299 240.036210476 1.99906562792 232.867900011 5.94163638352 c 0
EndSplineSet
EndChar

StartChar: ampersand
Encoding: 38 38 6
Width: 784
VWidth: 32
Flags: HW
LayerCount: 2
Fore
SplineSet
387.957959841 455.164942998 m 1
 471.674415911 462.951321111 504 510.109505224 504 552 c 0
 504 588.412204903 469.514041159 648 340 648 c 0
 205.934894215 648 180 584.179648474 180 552 c 0
 180 495.933550758 211.80867879 462 300 462 c 0
 330.006902055 462 359.56263248 459.712668685 387.957959841 455.164942998 c 1
708.193002754 398.239712835 m 0
 713.331714721 390.368427598 715.616254042 381.557056072 715.616254042 372.877464641 c 0
 715.616254042 356.867339832 707.843239007 341.305589299 695.872255425 332.919298686 c 0
 693.319518076 331.169609962 675.881835358 319.145726183 654.896166597 293.685165981 c 1
 699.103871965 228.17368526 724 145.153634124 724 48 c 0
 724 21.8536339246 702.144471708 0 676 0 c 0
 649.855528292 0 628 21.8536339246 628 48 c 0
 628 105.934427711 618.203617264 155.300384172 600.268291023 196.651509516 c 1
 598.022139625 190.562327137 595.8645509 184.241238582 593.815038946 177.682800329 c 0
 545.399334088 22.7525447842 416.4672362 -8 316 -8 c 0
 156.200304884 -8 60 101.395019066 60 224 c 0
 60 307.744278701 101.718526532 368.719539083 154.943756527 408.017104012 c 1
 111.306944076 439.489394435 84 488.098758321 84 552 c 1
 84 647.820351526 170.065105785 744 340 744 c 0
 498.485958841 744 600 659.587795097 600 552 c 0
 600 496.792114943 573.708160981 444.288160057 528.21284234 408.490323163 c 1
 550.586508785 396.297857223 571.388947187 382.039382819 590.434621681 365.827027361 c 1
 617.033280214 395.659913552 638.783782696 410.249817706 642.417904058 412.622327706 c 0
 650.102025469 417.287593613 658.965647384 419.619387926 667.837623124 419.619387926 c 0
 683.350995202 419.619387926 698.889909408 412.489840449 708.193002754 398.239712835 c 0
535.792665675 286.990751383 m 1
 506.401470077 313.429114195 470.94885307 333.045695279 430.863577942 346.317749353 c 0
 392.41398158 359.048237553 348.928299516 365.84479921 301.629767428 365.997374832 c 0
 240.026045976 361.317254059 156 308.481351845 156 224 c 1
 156 154.604980934 203.799695116 88 316 88 c 0
 401.5327638 88 470.600665912 105.247455216 502.184961054 206.317199671 c 0
 511.762426813 236.965090097 523.381892625 263.761207756 535.792665675 286.990751383 c 1
EndSplineSet
EndChar

StartChar: quotesingle
Encoding: 39 39 7
Width: 224
VWidth: 0
Flags: HW
LayerCount: 2
Fore
SplineSet
112 736 m 0
 138.144471708 736 160 714.146366075 160 688 c 2
 160 480 l 2
 160 453.855528292 138.146366075 432 112 432 c 0
 85.8536339246 432 64 453.855528292 64 480 c 2
 64 688 l 2
 64 714.146366075 85.8555282921 736 112 736 c 0
EndSplineSet
EndChar

StartChar: parenleft
Encoding: 40 40 8
Width: 344
VWidth: 32
Flags: HW
LayerCount: 2
Fore
SplineSet
259.869792084 807.080361938 m 0
 273.119186306 797.631681222 279.604349772 782.715633794 279.604349772 767.898232042 c 0
 279.604349772 758.359750716 276.916931396 748.862147651 271.616538776 740.890215129 c 0
 268.843341449 736.957038967 160 579.96074995 160 368 c 0
 160 155.544443217 269.38119157 -1.71986217305 271.616538776 -4.8902151285 c 0
 277.232156248 -13.3362542747 279.89053242 -22.7665839311 279.89053242 -32.0287981665 c 0
 279.89053242 -47.1755234858 272.781274165 -61.8726600833 259.869792084 -71.0803619381 c 0
 251.540554807 -77.0202790628 241.850425766 -79.948674432 232.172604893 -79.948674432 c 0
 217.67341371 -79.948674432 203.201849021 -73.3756975434 193.375681528 -60.5092796024 c 0
 189.927529306 -55.6741148316 64 119.373993601 64 368 c 0
 64 616.077990252 189.310465342 790.808838084 193.375681528 796.509279602 c 0
 202.638150376 808.637588575 217.516526732 815.74178432 232.671788956 815.74178432 c 0
 242.053909051 815.74178432 251.542143921 813.019145801 259.869792084 807.080361938 c 0
EndSplineSet
EndChar

StartChar: parenright
Encoding: 41 41 9
Width: 344
VWidth: 32
Flags: HW
LayerCount: 2
Fore
SplineSet
52.1302079163 807.080361938 m 0
 60.4578560788 813.019145801 69.9460909487 815.74178432 79.3282110437 815.74178432 c 0
 94.4834732682 815.74178432 109.361849624 808.637588575 118.624318472 796.509279602 c 0
 122.689534658 790.808838084 248 616.077990252 248 368 c 0
 248 119.373993601 122.072470694 -55.6741148316 118.624318472 -60.5092796024 c 0
 108.798150979 -73.3756975434 94.3265862903 -79.948674432 79.8273951069 -79.948674432 c 0
 70.1495742336 -79.948674432 60.459445193 -77.0202790628 52.1302079163 -71.0803619381 c 0
 39.2187258348 -61.8726600833 32.1094675804 -47.1755234858 32.1094675804 -32.0287981665 c 0
 32.1094675804 -22.7665839311 34.7678437524 -13.3362542747 40.3834612245 -4.8902151285 c 0
 42.61880843 -1.71986217305 152 155.544443217 152 368 c 0
 152 579.96074995 43.1566585514 736.957038967 40.3834612245 740.890215129 c 0
 35.0830686044 748.862147651 32.3956502285 758.359750716 32.3956502285 767.898232042 c 0
 32.3956502285 782.715633794 38.8808136941 797.631681222 52.1302079163 807.080361938 c 0
EndSplineSet
EndChar

StartChar: asterisk
Encoding: 42 42 10
Width: 512
VWidth: 32
Flags: HW
LayerCount: 2
Fore
SplineSet
351.957865845 726.593517093 m 0
 367.232373765 717.795400531 375.859108327 701.362164443 375.859108327 684.644829566 c 0
 375.859108327 676.567165578 373.844994931 668.423172068 369.593517093 661.042134155 c 2
 339.04124782 608 l 1
 400 608 l 2
 426.144471708 608 448 586.146366075 448 560 c 0
 448 533.853633925 426.144471708 512 400 512 c 2
 339.04124782 512 l 1
 369.593517093 458.957865845 l 2
 373.84486997 451.577044877 375.859040654 443.432954493 375.859040654 435.355059155 c 0
 375.859040654 418.638313219 367.233162669 402.205053878 351.957865845 393.406482907 c 0
 344.576827932 389.155005069 336.432834422 387.140891673 328.355170434 387.140891673 c 0
 311.637835557 387.140891673 295.204599469 395.767626235 286.406482907 411.042134155 c 2
 256 463.83116698 l 1
 225.593517093 411.042134155 l 2
 216.795400531 395.767626235 200.362164443 387.140891673 183.644829566 387.140891673 c 0
 175.567165578 387.140891673 167.423172068 389.155005069 160.042134155 393.406482907 c 0
 144.766837331 402.205053878 136.140959346 418.638313219 136.140959346 435.355059155 c 0
 136.140959346 443.432954493 138.15513003 451.577044877 142.406482907 458.957865845 c 2
 172.95875218 512 l 1
 112 512 l 2
 85.8536339246 512 64 533.855528292 64 560 c 0
 64 586.144471708 85.8536339246 608 112 608 c 2
 172.95875218 608 l 1
 142.406482907 661.042134155 l 2
 138.155005069 668.423172068 136.140891673 676.567165578 136.140891673 684.644829566 c 0
 136.140891673 701.362164443 144.767626235 717.795400531 160.042134155 726.593517093 c 0
 167.422955123 730.84486997 175.567045507 732.859040654 183.644940845 732.859040654 c 0
 200.361686781 732.859040654 216.794946122 724.233162669 225.593517093 708.957865845 c 2
 256 656.16883302 l 1
 286.406482907 708.957865845 l 2
 295.205053878 724.233162669 311.638313219 732.859040654 328.355059155 732.859040654 c 0
 336.432954493 732.859040654 344.577044877 730.84486997 351.957865845 726.593517093 c 0
EndSplineSet
EndChar

StartChar: plus
Encoding: 43 43 11
Width: 640
VWidth: 192
Flags: HW
LayerCount: 2
Fore
SplineSet
584 368 m 0
 584 341.855528292 562.146366075 320 536 320 c 2
 368 320 l 1
 368 152 l 2
 368 125.855528292 346.146366075 104 320 104 c 0
 293.853633925 104 272 125.855528292 272 152 c 2
 272 320 l 1
 104 320 l 2
 77.8555282921 320 56 341.853633925 56 368 c 0
 56 394.146366075 77.8555282921 416 104 416 c 2
 272 416 l 1
 272 584 l 2
 272 610.146366075 293.855528292 632 320 632 c 0
 346.144471708 632 368 610.146366075 368 584 c 2
 368 416 l 1
 536 416 l 2
 562.146366075 416 584 394.144471708 584 368 c 0
EndSplineSet
EndChar

StartChar: comma
Encoding: 44 44 12
Width: 296
VWidth: 32
Flags: HW
LayerCount: 2
Fore
SplineSet
113.503678937 4.29816994809 m 1
 91.370130124 13.1752617182 72 33.5561498041 72 64 c 0
 72 108.288628002 107.72433164 144 152 144 c 0
 187.097300679 144 224 113.034850231 224 64 c 0
 224 4.19121897543 187.271243754 -72.1923210654 185.882708491 -75.4659971439 c 0
 177.448369978 -93.6700640002 159.955666803 -103.983567453 141.869230209 -103.983567453 c 0
 135.619637798 -103.983567453 129.299154753 -102.752154872 123.257005084 -100.189366838 c 0
 105.138431617 -92.5043431625 94.0943927256 -74.3689197816 94.0943927256 -55.6047963897 c 0
 94.0943927256 -49.4406487511 95.2862312824 -43.2086537497 97.8106331618 -37.2570050836 c 2
 97.8106331618 -37.2570050836 105.39111274 -19.4131908118 113.503678937 4.29816994809 c 1
EndSplineSet
EndChar

StartChar: hyphen
Encoding: 45 45 13
Width: 416
VWidth: 32
Flags: HW
LayerCount: 2
Fore
SplineSet
32 264 m 0
 32 290.144471708 53.8536339246 312 80 312 c 2
 336 312 l 2
 362.144471708 312 384 290.146366075 384 264 c 0
 384 237.853633925 362.144471708 216 336 216 c 2
 80 216 l 2
 53.8536339246 216 32 237.855528292 32 264 c 0
EndSplineSet
EndChar

StartChar: period
Encoding: 46 46 14
Width: 288
VWidth: 32
Flags: HW
HStem: 48 48<121.906 166.094>
VStem: 120 48<49.9059 94.0941>
AnchorPoint: "above" 144 -48 mark 0
LayerCount: 2
Fore
SplineSet
216 80 m 0
 216 35.7113719983 180.27566836 0 136 0 c 0
 99.711554458 0 72 27.711554458 72 64 c 0
 72 108.288628002 107.72433164 144 152 144 c 0
 188.288445542 144 216 116.288445542 216 80 c 0
EndSplineSet
EndChar

StartChar: slash
Encoding: 47 47 15
Width: 576
VWidth: 32
Flags: HW
LayerCount: 2
Fore
SplineSet
88.8679000109 5.94163638352 m 0
 73.1277001289 14.5987463186 64.1337448915 31.3201530381 64.1337448915 48.3684176865 c 0
 64.1337448915 56.1321054802 65.9989495425 63.96357846 69.9416363835 71.1320999891 c 2
 421.941636384 711.132099989 l 2
 430.598746319 726.872299871 447.320153038 735.866255108 464.368417687 735.866255108 c 0
 472.13210548 735.866255108 479.96357846 734.001050457 487.132099989 730.058363616 c 0
 502.873132035 721.400795991 511.866185527 704.679325859 511.866185527 687.631664256 c 0
 511.866185527 679.867765087 510.000934372 672.036210476 506.058363616 664.867900011 c 2
 154.058363616 24.8679000109 l 2
 145.400795991 9.1268679654 128.679325859 0.13381447299 111.631664256 0.13381447299 c 0
 103.867765087 0.13381447299 96.0362104757 1.99906562792 88.8679000109 5.94163638352 c 0
EndSplineSet
EndChar

StartChar: zero
Encoding: 48 48 16
Width: 672
VWidth: 32
Flags: HW
HStem: 40 656<250.729 421.271>
VStem: 88 496<233.016 502.984>
LayerCount: 2
Fore
SplineSet
632 368 m 0
 632 171.980375782 510.800130564 -8 336 -8 c 0
 161.208155261 -8 40 171.99309793 40 368 c 0
 40 564.019624218 161.199869436 744 336 744 c 0
 510.791844739 744 632 564.00690207 632 368 c 0
536 368 m 0
 536 533.99309793 435.208155261 648 336 648 c 0
 236.800130564 648 136 533.980375782 136 368 c 0
 136 202.00690207 236.791844739 88 336 88 c 0
 435.199869436 88 536 202.019624218 536 368 c 0
EndSplineSet
EndChar

StartChar: one
Encoding: 49 49 17
Width: 352
VWidth: 0
Flags: HW
LayerCount: 2
Fore
SplineSet
176 736 m 0
 202.144471708 736 224 714.146366075 224 688 c 2
 224 48 l 2
 224 21.8555282921 202.146366075 0 176 0 c 0
 149.853633925 0 128 21.8555282921 128 48 c 2
 128 688 l 2
 128 714.146366075 149.855528292 736 176 736 c 0
EndSplineSet
EndChar

StartChar: two
Encoding: 50 50 18
Width: 672
VWidth: 32
Flags: HW
LayerCount: 2
Fore
SplineSet
128 488 m 0
 101.855528292 488 80 509.853633925 80 536 c 0
 80 677.75421779 200.155857239 744 322 744 c 0
 454.088556903 744 564 655.366470774 564 528 c 0
 564 443.489726737 515.008519473 394.621767344 424.594658322 340.779805086 c 0
 254.59217458 239.147885458 199.065632217 210.641921284 186.363802535 96 c 1
 544 96 l 2
 570.144471708 96 592 74.1463660754 592 48 c 0
 592 21.8536339246 570.144471708 0 544 0 c 2
 136 0 l 2
 115.398583681 0 88 18.9455273174 88 48 c 0
 88 256.096626378 195.508531756 315.673188982 375.370090722 423.199120973 c 0
 463.022971685 475.396904019 468 488.503292929 468 528 c 0
 468 592.633529226 413.911443097 648 322 648 c 0
 227.844142761 648 176 608.24578221 176 536 c 0
 176 509.853633925 154.144471708 488 128 488 c 0
EndSplineSet
EndChar

StartChar: three
Encoding: 51 51 19
Width: 672
VWidth: 32
Flags: HW
LayerCount: 2
Fore
SplineSet
112.775133358 196.544744714 m 0
 119.70327398 200.16392265 127.196070522 201.874213883 134.620141165 201.874213883 c 0
 152.027970885 201.874213883 169.057945321 192.471025479 177.544744714 176.224866642 c 0
 203.670668697 126.212383587 262.919330865 88 334 88 c 0
 433.721710006 88 508 160.870124513 508 240 c 0
 508 325.153866662 449.871050949 396 344 396 c 0
 322.286342533 396 285.422453073 386.701875856 261.551313876 377.323928315 c 0
 255.950339518 375.123545531 250.137509688 374.08384641 244.390500191 374.08384641 c 0
 237.864200457 374.08384641 231.422781681 375.424627508 225.4728869 377.929013583 c 0
 214.27726642 382.629814973 204.806582214 391.453350833 199.796410072 403.290573566 c 0
 199.715044797 403.482810206 199.635069075 403.67533808 199.556478045 403.868145424 c 0
 199.477772813 404.060891677 199.400252413 404.254406942 199.323928315 404.448686124 c 0
 197.123475333 410.049839168 196.083778672 415.862680389 196.083778672 421.609606922 c 0
 196.083778672 428.136025483 197.424644136 434.577435856 199.929071577 440.527262003 c 0
 204.629685471 451.722548184 213.452871529 461.193214882 225.290573566 466.203589928 c 0
 341.764195278 515.50172749 393.813160944 590.191581192 417.528871359 640 c 1
 116 640 l 2
 89.8555282921 640 68 661.853633925 68 688 c 0
 68 714.146366075 89.8555282921 736 116 736 c 2
 484 736 l 2
 504.609242596 736 531.991527596 716.494658403 531.991527596 687.800867925 c 0
 531.991527596 685.632653474 531.835177443 683.411973884 531.507740399 681.143280506 c 0
 530.745351121 675.860959725 514.882408739 575.549696903 420.871693854 481.971406832 c 1
 534.364318518 450.882611038 604 351.488229721 604 240 c 0
 604 99.1298754869 478.278289994 -8 334 -8 c 0
 229.080669135 -8 136.329331303 47.7876164126 92.4552552862 131.775133358 c 0
 88.8359702303 138.703479037 87.1257151248 146.196210493 87.1257151248 153.62009162 c 0
 87.1257151248 171.028541203 96.5298546762 188.058405104 112.775133358 196.544744714 c 0
EndSplineSet
EndChar

StartChar: four
Encoding: 52 52 20
Width: 672
VWidth: 32
Flags: HW
LayerCount: 2
Fore
SplineSet
432 319 m 1
 432 628.796381082 l 1
 163.345501098 318 l 1
 432 319 l 1
640 270 m 0
 640 243.855528292 618.146366075 222 592 222 c 2
 528 222 l 1
 528 46 l 2
 528 19.8555282921 506.146366075 -2 480 -2 c 0
 453.853633925 -2 432 19.8555282921 432 46 c 2
 432 222 l 1
 112 222 l 2
 82.9455273174 222 64 249.398583681 64 270 c 2
 64 287 l 1
 64 332 l 2
 64 343.515934564 68.5252263382 355.105351348 75.6863384868 363.389775206 c 2
 381.686338487 717.389775206 l 2
 390.851587719 727.992710593 405.048289479 734 418 734 c 2
 459 734 l 1
 480 734 l 2
 509.054472683 734 528 706.601416319 528 686 c 2
 528 318 l 1
 592 318 l 2
 618.146366075 318 640 296.144471708 640 270 c 0
EndSplineSet
EndChar

StartChar: five
Encoding: 53 53 21
Width: 672
VWidth: 0
Flags: HW
LayerCount: 2
Fore
SplineSet
104.844511844 198.045491652 m 0
 112.01892364 201.996616989 119.859273882 203.865980763 127.632003623 203.865980763 c 0
 144.67033481 203.865980763 161.38373932 194.883406863 170.045491652 179.155488156 c 0
 200.202918291 124.395950311 256.490226972 88 322 88 c 0
 418.170187343 88 496 166.070321847 496 264 c 0
 496 361.929731474 418.170075021 440 322 440 c 0
 264.636602024 440 212.102865499 415.030320757 172.444316914 368.762014074 c 0
 163.036202807 357.785880949 149.494379344 352.220649823 135.932032204 352.220649823 c 0
 123.609611737 352.220649823 111.27024877 356.814803731 101.998990531 366.118864318 c 0
 91.2643436269 376.891491141 87.0779899676 394.360396339 88.2935807357 405.300713252 c 2
 120.293580736 693.300713252 l 2
 123.077704106 718.35782358 146.021953669 736 168 736 c 2
 488 736 l 2
 514.144471708 736 536 714.146366075 536 688 c 0
 536 661.853633925 514.144471708 640 488 640 c 2
 210.96205407 640 l 1
 196.160726167 506.788048873 l 1
 233.54402117 525.132876994 277.503424926 536 322 536 c 0
 471.829924979 536 592 414.070268526 592 264 c 0
 592 113.929678153 471.829812657 -8 322 -8 c 0
 219.509773028 -8 131.797081709 49.6040496888 85.9545083481 132.844511844 c 0
 82.003266684 140.019134865 80.1339497016 147.859403046 80.1339497016 155.631920846 c 0
 80.1339497016 172.670854663 89.1174240688 189.384196935 104.844511844 198.045491652 c 0
EndSplineSet
EndChar

StartChar: six
Encoding: 54 54 22
Width: 672
VWidth: 0
Flags: HW
LayerCount: 2
Fore
SplineSet
196.87916992 200.585131917 m 0
 238.640440489 110.331334334 312.564976649 88 358 88 c 0
 463.934668156 88 514 158.639084896 514 222 c 0
 514 286.035924505 448.631578506 356 350 356 c 0
 251.043684969 356 197 314.02940849 197 204 c 0
 197 202.953551477 196.953783918 201.723521546 196.87916992 200.585131917 c 0
166.251205671 384.748833354 m 1
 213.239157897 432.122189323 279.198545471 452 350 452 c 0
 491.368421494 452 610 349.964075495 610 222 c 0
 610 105.360915104 514.065331844 -8 358 -8 c 0
 264.460275096 -8 115.824314187 53.8336707778 78.8016834304 261.616610595 c 0
 73.0718477783 293.774295561 70 329.129462563 70 368 c 0
 70 649.533007069 251.950381255 744 358 744 c 0
 492.371632906 744 552.931918639 658.089878386 558.300377473 650.086334701 c 0
 563.17391312 642.280117832 565.617604535 633.207469308 565.617604535 624.124727097 c 0
 565.617604535 608.820923285 558.679974026 593.488463534 544.738474793 584.137060247 c 0
 536.55031661 578.644769349 527.482038982 576.01981138 518.484053311 576.01981138 c 0
 503.055157752 576.01981138 487.832935655 583.737752087 477.608983788 597.951675227 c 0
 476.682979412 599.215061042 439.987665522 648 358 648 c 0
 305.130298707 648 173.165920108 602.145604846 166.251205671 384.748833354 c 1
EndSplineSet
EndChar

StartChar: seven
Encoding: 55 55 23
Width: 672
VWidth: 0
Flags: HW
LayerCount: 2
Fore
SplineSet
56 688 m 0
 56 714.144471708 77.8536339246 736 104 736 c 2
 552 736 l 2
 581.054472683 736 600 708.601416319 600 688 c 2
 600 630 l 2
 600 612.070933213 587.803976201 595.191090244 576.070927353 588.471072144 c 0
 570.469476563 585.295457212 328 447.438565836 328 80 c 2
 328 48 l 2
 328 21.8555282921 306.146366075 0 280 0 c 0
 253.853633925 0 232 21.8555282921 232 48 c 2
 232 80 l 2
 232 401.183576034 398.772813686 574.258861154 482.301328239 640 c 1
 104 640 l 2
 77.8536339246 640 56 661.855528292 56 688 c 0
EndSplineSet
EndChar

StartChar: eight
Encoding: 56 56 24
Width: 672
VWidth: 0
Flags: HW
LayerCount: 2
Fore
SplineSet
251.306760948 350.661232803 m 1
 221.463415727 335.615212921 164 296.416450677 164 228 c 0
 164 166.377267223 227.042289362 88 336 88 c 0
 458.1335223 88 508 155.987498967 508 216 c 0
 508 255.890201818 484.500101242 301.49574605 426.736595425 324.203970014 c 0
 405.414390614 332.586241752 378.809814859 338 346 338 c 0
 312.497627359 338 280.557113307 342.404427956 251.306760948 350.661232803 c 1
509.122224221 388.891614769 m 1
 572.014650804 346.426981187 604 279.958542196 604 216 c 0
 604 94.012501033 497.8664777 -8 336 -8 c 0
 180.957710638 -8 68 105.622732777 68 228 c 0
 68 310.921303492 113.924700592 368.262128091 153.619339749 401.022803791 c 1
 111.274841827 436.677971218 84 487.388884751 84 544 c 0
 84 665.154002518 203.223489802 744 336 744 c 0
 459.949015305 744 588 667.946100927 588 544 c 0
 588 474.181243257 543.512673887 421.686070866 509.122224221 388.891614769 c 1
406.845630149 428.873055654 m 1
 438.590886658 451.347116082 492 503.422992879 492 544 c 0
 492 590.053899073 432.050984695 648 336 648 c 0
 232.776510198 648 180 590.845997482 180 544 c 0
 180 511.057419074 199.432631284 478.831142269 242.585131511 456.633401565 c 0
 269.257049514 442.913308482 304.463963056 434 346 434 c 0
 367.005501514 434 387.697555043 432.180145042 406.845630149 428.873055654 c 1
EndSplineSet
EndChar

StartChar: nine
Encoding: 57 57 25
Width: 672
VWidth: 0
Flags: HW
LayerCount: 2
Fore
SplineSet
475.12083008 535.414868083 m 0
 433.359559511 625.668665666 359.435023351 648 314 648 c 0
 208.065331844 648 158 577.360915104 158 514 c 0
 158 449.964075495 223.368421494 380 322 380 c 0
 420.956315031 380 475 421.97059151 475 532 c 0
 475 533.046448523 475.046216082 534.276478454 475.12083008 535.414868083 c 0
505.748794329 351.251166646 m 1
 458.760842103 303.877810677 392.801454529 284 322 284 c 0
 180.631578506 284 62 386.035924505 62 514 c 0
 62 630.639084896 157.934668156 744 314 744 c 0
 407.539724904 744 556.175685813 682.166329222 593.19831657 474.383389405 c 0
 598.928152222 442.225704439 602 406.870537437 602 368 c 0
 602 86.4669929307 420.049618745 -8 314 -8 c 0
 179.628367094 -8 119.068081361 77.9101216144 113.699622527 85.9136652994 c 0
 108.82608688 93.7198821682 106.382395465 102.792530692 106.382395465 111.875272903 c 0
 106.382395465 127.179076715 113.320025974 142.511536466 127.261525207 151.862939753 c 0
 135.44968339 157.355230651 144.517961018 159.98018862 153.515946689 159.98018862 c 0
 168.944842248 159.98018862 184.167064345 152.262247913 194.391016212 138.048324773 c 0
 195.317020588 136.784938958 232.012334478 88 314 88 c 0
 366.869701293 88 498.834079892 133.854395154 505.748794329 351.251166646 c 1
EndSplineSet
EndChar

StartChar: colon
Encoding: 58 58 26
Width: 288
VWidth: 0
Flags: HW
HStem: 48 48<121.906 166.094> 432 48<121.906 166.094>
VStem: 120 48<49.9059 94.0941 433.906 478.094>
LayerCount: 2
Fore
SplineSet
216 464 m 0
 216 419.711371998 180.27566836 384 136 384 c 0
 99.711554458 384 72 411.711554458 72 448 c 0
 72 492.288628002 107.72433164 528 152 528 c 0
 188.288445542 528 216 500.288445542 216 464 c 0
216 80 m 0
 216 35.7113719983 180.27566836 0 136 0 c 0
 99.711554458 0 72 27.711554458 72 64 c 0
 72 108.288628002 107.72433164 144 152 144 c 0
 188.288445542 144 216 116.288445542 216 80 c 0
EndSplineSet
EndChar

StartChar: semicolon
Encoding: 59 59 27
Width: 296
VWidth: 0
Flags: HW
HStem: 432 48<121.906 166.094>
VStem: 120 48<433.906 478.094>
LayerCount: 2
Fore
SplineSet
113.503678937 4.29816994809 m 1
 91.370130124 13.1752617182 72 33.5561498041 72 64 c 0
 72 108.288628002 107.72433164 144 152 144 c 0
 187.097300679 144 224 113.034850231 224 64 c 0
 224 4.19121897543 187.271243754 -72.1923210654 185.882708491 -75.4659971439 c 0
 177.448369978 -93.6700640002 159.955666803 -103.983567453 141.869230209 -103.983567453 c 0
 135.619637798 -103.983567453 129.299154753 -102.752154872 123.257005084 -100.189366838 c 0
 105.138431617 -92.5043431625 94.0943927256 -74.3689197816 94.0943927256 -55.6047963897 c 0
 94.0943927256 -49.4406487511 95.2862312824 -43.2086537497 97.8106331618 -37.2570050836 c 2
 97.8106331618 -37.2570050836 105.39111274 -19.4131908118 113.503678937 4.29816994809 c 1
216 464 m 0
 216 419.711371998 180.27566836 384 136 384 c 0
 99.711554458 384 72 411.711554458 72 448 c 0
 72 492.288628002 107.72433164 528 152 528 c 0
 188.288445542 528 216 500.288445542 216 464 c 0
EndSplineSet
EndChar

StartChar: less
Encoding: 60 60 28
Width: 640
VWidth: 0
Flags: HW
LayerCount: 2
Fore
SplineSet
578.932505168 130.533747416 m 0
 570.601382297 113.871501675 553.320105594 104.118905089 535.612920117 104.118905089 c 0
 528.469277496 104.118905089 521.256315131 105.706210975 514.533747416 109.067494832 c 2
 82.533747416 325.067494832 l 2
 77.8165377126 327.426099684 73.6531360946 330.502058984 70.1080539412 334.101950399 c 0
 66.5055977056 337.648293799 63.4274950587 341.813741339 61.067494832 346.533747416 c 0
 57.6454299429 353.377877194 56.0620796505 360.730297276 56.1204580248 368.000377467 c 0
 56.0621922922 375.270211737 57.6455514215 382.622359731 61.067494832 389.466252584 c 0
 63.4274961174 394.186255155 66.5055974675 398.351701461 70.1080502492 401.898045909 c 0
 73.6531350689 405.497937044 77.81653794 408.573897661 82.533747416 410.932505168 c 2
 514.533747416 626.932505168 l 2
 521.256315131 630.293789025 528.469277496 631.881094911 535.612920117 631.881094911 c 0
 553.320105594 631.881094911 570.601382297 622.128498325 578.932505168 605.466252584 c 0
 582.293688853 598.743885213 583.881023279 591.53087132 583.881023279 584.387057305 c 0
 583.881023279 566.680506947 574.12941889 549.399077985 557.466252584 541.067494832 c 2
 211.33126292 368 l 1
 557.466252584 194.932505168 l 2
 574.12941889 186.600922015 583.881023279 169.319493053 583.881023279 151.612942695 c 0
 583.881023279 144.46912868 582.293688853 137.256114787 578.932505168 130.533747416 c 0
EndSplineSet
EndChar

StartChar: equal
Encoding: 61 61 29
Width: 640
VWidth: 0
Flags: HW
AnchorPoint: "middle" 320 368 basechar 0
LayerCount: 2
Fore
SplineSet
56 248 m 0
 56 274.144471708 77.8536339246 296 104 296 c 2
 536 296 l 2
 562.144471708 296 584 274.146366075 584 248 c 0
 584 221.853633925 562.144471708 200 536 200 c 2
 104 200 l 2
 77.8536339246 200 56 221.855528292 56 248 c 0
56 488 m 0
 56 514.144471708 77.8536339246 536 104 536 c 2
 536 536 l 2
 562.144471708 536 584 514.146366075 584 488 c 0
 584 461.853633925 562.144471708 440 536 440 c 2
 104 440 l 2
 77.8536339246 440 56 461.855528292 56 488 c 0
EndSplineSet
EndChar

StartChar: greater
Encoding: 62 62 30
Width: 640
VWidth: 0
Flags: HW
LayerCount: 2
Fore
SplineSet
61.067494832 130.533747416 m 0
 57.7063111467 137.256114787 56.1189767208 144.46912868 56.1189767208 151.612942695 c 0
 56.1189767208 169.319493053 65.87058111 186.600922015 82.533747416 194.932505168 c 2
 428.66873708 368 l 1
 82.533747416 541.067494832 l 2
 65.87058111 549.399077985 56.1189767208 566.680506947 56.1189767208 584.387057305 c 0
 56.1189767208 591.53087132 57.7063111467 598.743885213 61.067494832 605.466252584 c 0
 69.3986177027 622.128498325 86.6798944061 631.881094911 104.387079883 631.881094911 c 0
 111.530722504 631.881094911 118.743684869 630.293789025 125.466252584 626.932505168 c 2
 557.466252584 410.932505168 l 2
 562.183462287 408.573900316 566.346863905 405.497941016 569.891946059 401.898049601 c 0
 573.494402294 398.351706201 576.572504941 394.186258661 578.932505168 389.466252584 c 0
 582.354510828 382.622241264 583.93786554 375.269957235 583.879541977 368 c 0
 583.93786554 360.730042765 582.354510828 353.377758736 578.932505168 346.533747416 c 0
 576.572503883 341.813744845 573.494402532 337.648298539 569.891949751 334.101954091 c 0
 566.346864931 330.502062956 562.18346206 327.426102339 557.466252584 325.067494832 c 2
 125.466252584 109.067494832 l 2
 118.743684869 105.706210975 111.530722504 104.118905089 104.387079883 104.118905089 c 0
 86.6798944061 104.118905089 69.3986177027 113.871501675 61.067494832 130.533747416 c 0
EndSplineSet
EndChar

StartChar: question
Encoding: 63 63 31
Width: 640
VWidth: 0
Flags: HW
HStem: 48 48<281.906 326.094>
VStem: 280 48<49.9059 94.0941>
LayerCount: 2
Fore
SplineSet
376 80 m 0
 376 35.7113719983 340.27566836 0 296 0 c 0
 259.711554458 0 232 27.711554458 232 64 c 0
 232 108.288628002 267.72433164 144 312 144 c 0
 348.288445542 144 376 116.288445542 376 80 c 0
112 488 m 0
 85.8555282921 488 64 509.853633925 64 536 c 0
 64 677.112457276 181.681421072 744 304 744 c 0
 425.272883885 744 544 687.161845257 544 560 c 0
 544 467.612941979 487.8745951 419.07993839 424.088978232 382.48163363 c 0
 360.657981281 345.268782085 352 334.712212876 352 240 c 0
 352 213.855528292 330.146366075 192 304 192 c 0
 277.853633925 192 256 213.855528292 256 240 c 0
 256 353.287787124 289.342018719 414.731217915 375.911021768 465.51836637 c 0
 434.1254049 498.92006161 448 512.387058021 448 560 c 0
 448 608.838154743 406.727116115 648 304 648 c 0
 210.318578928 648 160 608.887542724 160 536 c 0
 160 509.853633925 138.144471708 488 112 488 c 0
EndSplineSet
EndChar

StartChar: at
Encoding: 64 64 32
Width: 880
VWidth: 0
Flags: HW
LayerCount: 2
Fore
SplineSet
621.337304904 90.6368118588 m 0
 624.429040341 84.1441674394 625.888521469 77.2336538932 625.888521469 70.3924275297 c 0
 625.888521469 52.3615298596 615.750218638 34.8119364197 598.636811859 26.6626950965 c 0
 549.667475693 3.34396358909 495.511058233 -8 440 -8 c 0
 232.481716375 -8 64 160.481357428 64 368 c 0
 64 575.518283625 232.481357428 744 440 744 c 0
 647.518283625 744 816 575.518642572 816 368 c 0
 816 324.284835148 815.330424722 271.30396931 786.435492402 221.769799619 c 0
 757.63408292 172.637983444 701.77295978 152 656 152 c 0
 620.716945612 152 577.601860725 164.546311431 547.215875724 190.649412199 c 1
 516.045873092 160.973239853 475.871321111 142 430 142 c 1
 316.416962233 142 243 253.740162844 243 368 c 0
 243 482.259318617 316.417470858 594 430 594 c 0
 462.720654802 594 492.540198038 584.349257494 518.260568477 568.047070639 c 1
 527.056750198 580.06900744 541.249496037 588 557 588 c 0
 583.146366075 588 605 566.144471708 605 540 c 2
 605 272.001314097 l 1
 605 272.001314097 621.730654615 248 656 248 c 0
 674.22704022 248 698.36591708 261.362016556 703.564507598 270.230200381 c 0
 716.669575278 292.69603069 720 325.715164852 720 368 c 0
 720 522.481357428 594.481716375 648 440 648 c 0
 285.518642572 648 160 522.481716375 160 368 c 0
 160 213.518642572 285.518283625 88 440 88 c 0
 482.488941767 88 522.332524307 96.6560364109 557.363188141 113.337304904 c 0
 563.856028016 116.429133415 570.766504464 117.888593255 577.607578989 117.888593255 c 0
 595.639129836 117.888593255 613.188523076 107.749253696 621.337304904 90.6368118588 c 0
509 434.865583554 m 1
 491.144195204 476.525772582 458.769542438 498 430 498 c 0
 389.582529142 498 339 449.740681383 339 368 c 0
 339 286.259837156 389.583037767 238 430 238 c 0
 458.777455833 238 491.142947013 259.467683371 509 301.134095637 c 1
 509 434.865583554 l 1
EndSplineSet
EndChar

StartChar: A
Encoding: 65 65 33
Width: 688
VWidth: 0
Flags: HW
AnchorPoint: "above" 344 784 basechar 0
LayerCount: 2
Fore
SplineSet
80.3961711115 2.60704323337 m 0
 60.6851717725 9.38269925614 48.0672369146 28.407331123 48.0672369146 48.3727489671 c 0
 48.0672369146 53.4509373152 48.8835355732 58.5899884225 50.6070432334 63.6038288885 c 2
 270.607043233 703.603828889 l 2
 277.527961136 723.737408241 298.301323041 736 316 736 c 2
 344 736 l 1
 372 736 l 2
 393.289906579 736 411.639474958 720.341230514 417.392956767 703.603828889 c 2
 637.392956767 63.6038288885 l 2
 639.116406612 58.5901566115 639.932701167 53.4511419391 639.932701167 48.3729094028 c 0
 639.932701167 28.4082922531 627.31606135 9.38312314217 607.603828889 2.60704323337 c 0
 602.589988423 0.883535573184 597.450937315 0.0672369145571 592.372748967 0.0672369145571 c 0
 572.407331123 0.0672369145571 553.382699256 12.6851717725 546.607043233 32.3961711115 c 2
 508.243227053 144 l 1
 179.756772947 144 l 1
 141.392956767 32.3961711115 l 2
 134.616876858 12.6839386495 115.591707747 0.0672988334316 95.6270905972 0.0672988334316 c 0
 90.5488580609 0.0672988334316 85.4098433885 0.883593388139 80.3961711115 2.60704323337 c 0
212.756772947 240 m 1
 475.243227053 240 l 1
 344 621.798478699 l 1
 212.756772947 240 l 1
EndSplineSet
EndChar

StartChar: B
Encoding: 66 66 34
Width: 696
VWidth: 0
Flags: HW
AnchorPoint: "above" 348 784 basechar 0
LayerCount: 2
Fore
SplineSet
192 436 m 1
 400 436 l 2
 418.030696036 436 433.763530207 439.225896727 447.357387582 444.628312598 c 0
 488.133578038 460.833421452 512 497.472028446 512 538 c 0
 512 591.117816161 470.905915177 640 400 640 c 2
 192 640 l 1
 192 436 l 1
192 340 m 1
 192 96 l 1
 416 96 l 2
 486.937322136 96 528 156.94494355 528 218 c 0
 528 279.052101776 486.932749765 340 416 340 c 0
 414.431737457 340 412.728938415 340.089919972 411.093182643 340.251027853 c 0
 407.419921466 340.097972688 403.385341896 340 400 340 c 2
 192 340 l 1
542.826935551 392.377882282 m 1
 597.218704471 348.152933952 624 280.675497361 624 218 c 0
 624 119.05505645 553.062677864 0 416 0 c 2
 144 0 l 2
 123.398583681 0 96 18.9455273174 96 48 c 2
 96 389 l 1
 96 688 l 2
 96 708.601416319 114.945527317 736 144 736 c 2
 400 736 l 2
 521.094084823 736 608 644.882183839 608 538 c 0
 608 482.088632977 583.971961974 429.306291672 542.826935551 392.377882282 c 1
EndSplineSet
EndChar

StartChar: C
Encoding: 67 67 35
Width: 684
VWidth: 0
Flags: HW
AnchorPoint: "bottom" 368 40 basechar 0
AnchorPoint: "above" 368 784 basechar 0
LayerCount: 2
Fore
SplineSet
564 248 m 0
 590.144471708 248 612 226.146366075 612 200 c 0
 612 149.433356983 537.412688071 -8 368 -8 c 0
 194.220913364 -8 72 171.839732993 72 368 c 0
 72 564.019624218 193.199869436 744 368 744 c 0
 537.62996164 744 591.745004232 596.105091036 593.304559008 591.878101042 c 0
 595.062639483 586.585907197 595.893287328 581.258451255 595.893287328 576.058150977 c 0
 595.893287328 556.084291405 583.639112158 537.986302338 564.614892529 530.967285822 c 0
 559.360078523 529.028513719 553.927538837 528.118068825 548.550329545 528.118068825 c 0
 529.404171851 528.118068825 510.959490699 539.660652912 503.736740588 557.424459999 c 0
 500.200506041 566.368831264 466.193327743 648 368 648 c 0
 268.800130564 648 168 533.980375782 168 368 c 0
 168 202.160267007 269.779086636 88 368 88 c 0
 459.128541314 88 509.273363081 176.772034038 516.065250313 203.020586332 c 0
 518.535455134 228.100996771 538.456919117 248 564 248 c 0
EndSplineSet
EndChar

StartChar: D
Encoding: 68 68 36
Width: 696
VWidth: 0
Flags: HW
HStem: 48 21G<144 384> 668 20G<144 384>
VStem: 144 432<226.215 509.777>
AnchorPoint: "above" 348 784 basechar 0
LayerCount: 2
Fore
SplineSet
96 48 m 2
 96 688 l 2
 96 717.054472683 123.398583681 736 144 736 c 2
 352 736 l 2
 442.635296702 736 624 648.472766072 624 368 c 0
 624 87.5271650901 442.635311815 0 352 0 c 2
 144 0 l 2
 114.945527317 0 96 27.3985836813 96 48 c 2
192 96 m 1
 352 96 l 2
 389.364688185 96 528 136.47283491 528 368 c 0
 528 599.527233928 389.364703298 640 352 640 c 2
 192 640 l 1
 192 96 l 1
EndSplineSet
EndChar

StartChar: E
Encoding: 69 69 37
Width: 696
VWidth: 0
Flags: HW
AnchorPoint: "bottom" 348 48 basechar 0
AnchorPoint: "above" 348 784 basechar 0
LayerCount: 2
Fore
SplineSet
608 688 m 0
 608 661.855528292 586.146366075 640 560 640 c 2
 192 640 l 1
 192 436 l 1
 432 436 l 2
 458.144471708 436 480 414.146366075 480 388 c 0
 480 361.853633925 458.144471708 340 432 340 c 2
 192 340 l 1
 192 96 l 1
 576 96 l 2
 602.144471708 96 624 74.1463660754 624 48 c 0
 624 21.8536339246 602.144471708 0 576 0 c 2
 144 0 l 2
 123.398583681 0 96 18.9455273174 96 48 c 2
 96 688 l 2
 96 708.601416319 114.945527317 736 144 736 c 2
 560 736 l 2
 586.146366075 736 608 714.144471708 608 688 c 0
EndSplineSet
EndChar

StartChar: F
Encoding: 70 70 38
Width: 664
VWidth: 0
Flags: HW
AnchorPoint: "above" 332 784 basechar 0
LayerCount: 2
Fore
SplineSet
144 0 m 0
 117.855528292 0 96 21.8536339246 96 48 c 2
 96 688 l 2
 96 717.054472683 123.398583681 736 144 736 c 2
 544 736 l 2
 570.144471708 736 592 714.146366075 592 688 c 0
 592 661.853633925 570.144471708 640 544 640 c 2
 192 640 l 1
 192 436 l 1
 440 436 l 2
 466.144471708 436 488 414.146366075 488 388 c 0
 488 361.853633925 466.144471708 340 440 340 c 2
 192 340 l 1
 192 48 l 2
 192 21.8536339246 170.144471708 0 144 0 c 0
EndSplineSet
EndChar

StartChar: G
Encoding: 71 71 39
Width: 672
VWidth: 0
Flags: HW
AnchorPoint: "above" 368 784 basechar 0
LayerCount: 2
Fore
SplineSet
564.614892529 530.967285822 m 0
 559.426506852 529.053022558 554.139419311 528.178625647 548.942086424 528.178625647 c 0
 529.01079323 528.178625647 510.39947855 541.037960396 503.736740588 557.424459999 c 0
 499.860473915 567.228891178 465.754559108 648 368 648 c 0
 268.791844739 648 168 533.99309793 168 368 c 0
 168 202.173074408 269.786635725 88 368 88 c 0
 444.533202046 88 488.298964475 141.223804745 504 165.113937005 c 1
 504 296 l 1
 384 296 l 2
 357.855528292 296 336 317.853633925 336 344 c 0
 336 370.146366075 357.855528292 392 384 392 c 2
 552 392 l 2
 572.601416319 392 600 373.054472683 600 344 c 2
 600 152 l 2
 600 145.032196913 598.234408128 137.106062079 594.891578312 130.452088038 c 0
 593.593749866 127.868732837 527.087984698 -8 368 -8 c 0
 194.213364275 -8 72 171.826925592 72 368 c 0
 72 564.00690207 193.208155261 744 368 744 c 0
 536.951221376 744 591.297579825 597.317782325 593.304559008 591.878101042 c 0
 594.935623554 586.96825199 595.726104108 581.849934891 595.726104108 576.740713612 c 0
 595.726104108 557.449495843 584.456697389 538.287951728 564.614892529 530.967285822 c 0
EndSplineSet
EndChar

StartChar: H
Encoding: 72 72 40
Width: 712
VWidth: 0
Flags: HW
AnchorPoint: "above" 356 784 basechar 0
LayerCount: 2
Fore
SplineSet
568 736 m 0
 594.144471708 736 616 714.146366075 616 688 c 2
 616 48 l 2
 616 21.8555282921 594.146366075 0 568 0 c 0
 541.853633925 0 520 21.8555282921 520 48 c 2
 520 340 l 1
 192 340 l 1
 192 48 l 2
 192 21.8536339246 170.144471708 0 144 0 c 0
 117.855528292 0 96 21.8536339246 96 48 c 2
 96 688 l 2
 96 714.144471708 117.853633925 736 144 736 c 0
 170.146366075 736 192 714.144471708 192 688 c 2
 192 436 l 1
 520 436 l 1
 520 688 l 2
 520 714.146366075 541.855528292 736 568 736 c 0
EndSplineSet
EndChar

StartChar: I
Encoding: 73 73 41
Width: 336
VWidth: 0
Flags: HW
AnchorPoint: "above" 168 784 basechar 0
LayerCount: 2
Fore
SplineSet
168 736 m 0
 194.144471708 736 216 714.146366075 216 688 c 2
 216 48 l 2
 216 21.8555282921 194.146366075 0 168 0 c 0
 141.853633925 0 120 21.8555282921 120 48 c 2
 120 688 l 2
 120 714.146366075 141.855528292 736 168 736 c 0
EndSplineSet
EndChar

StartChar: J
Encoding: 74 74 42
Width: 544
VWidth: 0
Flags: HW
AnchorPoint: "above" 272 784 basechar 0
LayerCount: 2
Fore
SplineSet
96 328 m 0
 122.144471708 328 144 306.146366075 144 280 c 2
 144 216 l 2
 144 139.448096719 196.527254563 88 248 88 c 0
 294.327730822 88 352 145.168113658 352 240 c 2
 352 688 l 2
 352 714.144471708 373.853633925 736 400 736 c 0
 426.146366075 736 448 714.144471708 448 688 c 2
 448 240 l 2
 448 114.831886342 369.672269178 -8 248 -8 c 0
 131.472745437 -8 48 98.5519032813 48 216 c 2
 48 280 l 2
 48 306.146366075 69.8555282921 328 96 328 c 0
EndSplineSet
EndChar

StartChar: K
Encoding: 75 75 43
Width: 672
VWidth: 0
Flags: HW
AnchorPoint: "above" 336 784 basechar 0
LayerCount: 2
Fore
SplineSet
603.784206935 8.85874497441 m 0
 595.510428927 2.985648668 585.858197594 0.170436193209 576.258944528 0.170436193209 c 0
 561.123479961 0.170436193209 546.119724068 7.1693042686 536.858744974 20.2157930647 c 2
 295.018965547 360.9097889 l 1
 192 259.881528001 l 1
 192 48 l 2
 192 21.8555282921 170.146366075 0 144 0 c 0
 117.853633925 0 96 21.8555282921 96 48 c 2
 96 688 l 2
 96 714.146366075 117.855528292 736 144 736 c 0
 170.144471708 736 192 714.146366075 192 688 c 2
 192 394.340694222 l 1
 526.391606844 722.270627504 l 2
 535.603673171 731.304682887 547.795856198 735.806909442 559.983423347 735.806909442 c 0
 572.493306598 735.806909442 584.998326598 731.063399498 594.270627504 721.608393156 c 0
 603.30435982 712.396656261 607.806906151 700.204248207 607.806906151 688.016239568 c 0
 607.806906151 675.506809402 603.063746558 663.002013755 593.608393156 653.729372496 c 2
 364.428504935 428.97808115 l 1
 615.141255026 75.7842069353 l 2
 621.014529435 67.5101780229 623.829614747 57.8581120704 623.829614747 48.2591811751 c 0
 623.829614747 33.1231825169 616.830099051 18.1193005177 603.784206935 8.85874497441 c 0
EndSplineSet
EndChar

StartChar: L
Encoding: 76 76 44
Width: 656
VWidth: 0
Flags: HW
AnchorPoint: "above" 328 784 basechar 0
LayerCount: 2
Fore
SplineSet
144 736 m 0
 170.144471708 736 192 714.146366075 192 688 c 2
 192 96 l 1
 560 96 l 2
 586.144471708 96 608 74.1463660754 608 48 c 0
 608 21.8536339246 586.144471708 0 560 0 c 2
 144 0 l 2
 123.398583681 0 96 18.9455273174 96 48 c 2
 96 688 l 2
 96 714.146366075 117.855528292 736 144 736 c 0
EndSplineSet
EndChar

StartChar: M
Encoding: 77 77 45
Width: 830
VWidth: 0
Flags: HW
AnchorPoint: "above" 415 784 basechar 0
LayerCount: 2
Fore
SplineSet
144 0 m 0
 117.855528292 0 96 21.8536339246 96 48 c 2
 96 688 l 2
 96 717.054472683 123.398583681 736 144 736 c 2
 163 736 l 1
 184 736 l 2
 205.223039056 736 223.409570141 720.129294394 229.126531128 704.358367534 c 2
 416 188.845349955 l 1
 602.873468872 704.358367534 l 2
 610.106266228 724.310911962 631.22484644 736 648 736 c 2
 668 736 l 1
 688 736 l 2
 717.054472683 736 736 708.601416319 736 688 c 2
 736 48 l 2
 736 21.8555282921 714.146366075 0 688 0 c 0
 661.853633925 0 640 21.8555282921 640 48 c 2
 640 525.085684527 l 1
 461.126531128 31.6416324662 l 2
 456.865475072 19.8869950712 447.577520189 9.62283581776 435.848438843 4.29600160725 c 0
 429.573446496 1.44617535755 422.966007527 0.107759326058 416.437167203 0.107759326058 c 0
 396.827969625 0.107759326058 377.92779877 12.1814120594 370.873468872 31.6416324662 c 2
 192 525.085684527 l 1
 192 48 l 2
 192 21.8536339246 170.144471708 0 144 0 c 0
EndSplineSet
EndChar

StartChar: N
Encoding: 78 78 46
Width: 720
VWidth: 0
Flags: HW
AnchorPoint: "above" 360 784 basechar 0
LayerCount: 2
Fore
SplineSet
144 0 m 0
 117.855528292 0 96 21.8536339246 96 48 c 2
 96 688 l 2
 96 717.054472683 123.398583681 736 144 736 c 2
 160 736 l 1
 184 736 l 2
 201.852242532 736 218.486275306 724.598051461 225.835625782 711.532539502 c 2
 528 174.351429781 l 1
 528 688 l 2
 528 714.144471708 549.853633925 736 576 736 c 0
 602.146366075 736 624 714.144471708 624 688 c 2
 624 48 l 2
 624 27.3985836813 605.054472683 0 576 0 c 2
 562 0 l 1
 544 0 l 2
 529.009317722 0 510.916636772 8.90788262376 502.164374218 24.4674604976 c 2
 192 575.870792441 l 1
 192 48 l 2
 192 21.8536339246 170.144471708 0 144 0 c 0
EndSplineSet
EndChar

StartChar: O
Encoding: 79 79 47
Width: 736
VWidth: 0
Flags: HW
HStem: 40 656<282.729 453.271>
VStem: 120 496<233.016 502.984>
AnchorPoint: "middle" 368 368 basechar 0
AnchorPoint: "above" 368 784 basechar 0
LayerCount: 2
Fore
SplineSet
664 368 m 0
 664 171.980375782 542.800130564 -8 368 -8 c 0
 193.208155261 -8 72 171.99309793 72 368 c 0
 72 564.019624218 193.199869436 744 368 744 c 0
 542.791844739 744 664 564.00690207 664 368 c 0
568 368 m 0
 568 533.99309793 467.208155261 648 368 648 c 0
 268.800130564 648 168 533.980375782 168 368 c 0
 168 202.00690207 268.791844739 88 368 88 c 0
 467.199869436 88 568 202.019624218 568 368 c 0
EndSplineSet
EndChar

StartChar: P
Encoding: 80 80 48
Width: 680
VWidth: 0
Flags: HW
AnchorPoint: "above" 340 784 basechar 0
LayerCount: 2
Fore
SplineSet
192 400 m 1
 384 400 l 2
 460.49523569 400 512 437.618211279 512 520 c 0
 512 602.38193404 460.495216908 640 384 640 c 2
 192 640 l 1
 192 400 l 1
192 304 m 1
 192 48 l 2
 192 21.8536339246 170.144471708 0 144 0 c 0
 117.855528292 0 96 21.8536339246 96 48 c 2
 96 351 l 1
 96 688 l 2
 96 717.054472683 123.398583681 736 144 736 c 2
 384 736 l 2
 499.504783092 736 608 661.61806596 608 520 c 0
 608 378.381788721 499.50476431 304 384 304 c 2
 192 304 l 1
EndSplineSet
EndChar

StartChar: Q
Encoding: 81 81 49
Width: 736
VWidth: 0
Flags: HW
HStem: 40 656<282.729 453.271>
VStem: 120 496<233.016 502.984>
AnchorPoint: "above" 368 784 basechar 0
LayerCount: 2
Fore
SplineSet
378.758935712 192.796764854 m 0
 387.354835238 208.724461035 404.191245859 217.869204807 421.373037169 217.869204807 c 0
 429.010513482 217.869204807 436.716233238 216.062303573 443.796764854 212.241064288 c 0
 472.754945068 196.612840046 491.179323946 179.934524129 503.408863824 163.438860121 c 1
 541.99753044 212.801532259 568 283.698850897 568 368 c 0
 568 533.99309793 467.208155261 648 368 648 c 0
 268.800130564 648 168 533.980375782 168 368 c 0
 168 202.00690207 268.791844739 88 368 88 c 0
 381.755452698 88 395.541674753 90.1923363251 409.085647099 94.4115481281 c 1
 401.909720797 113.786834595 398.974838406 127.342514905 398.203235146 127.758935712 c 0
 382.274689112 136.355293889 373.130865379 153.19178498 373.130865379 170.3729672 c 0
 373.130865379 178.010646791 374.937809109 185.71644203 378.758935712 192.796764854 c 0
544.463647774 64.7916185108 m 1
 550.902972124 57.5056727324 560.45173766 52.5306485958 575.843014242 50.6430392037 c 0
 599.885887893 47.694384888 617.990875468 26.5739529467 617.990875468 2.84520980659 c 0
 617.990875468 0.962957901817 617.876954347 -0.935706151016 617.643039204 -2.84301424197 c 0
 614.694177224 -26.8875811521 593.572393276 -44.9908600531 569.844995036 -44.9908600531 c 0
 567.962797804 -44.9908600531 566.064204488 -44.8769433876 564.156985758 -44.6430392037 c 0
 517.581500703 -38.930951414 483.728724033 -16.9463164657 459.248187343 9.50766852675 c 1
 430.960790216 -1.81607349614 400.401217931 -7.99999999992 368 -8 c 0
 193.208155261 -8 72 171.99309793 72 368 c 0
 72 564.019624218 193.199869436 744 368 744 c 0
 542.791844739 744 664 564.00690207 664 368 c 0
 664 248.649293974 619.068281194 135.24472472 544.463647774 64.7916185108 c 1
EndSplineSet
EndChar

StartChar: R
Encoding: 82 82 50
Width: 704
VWidth: 0
Flags: HW
AnchorPoint: "above" 352 784 basechar 0
LayerCount: 2
Fore
SplineSet
192 432 m 1
 408 432 l 2
 491.550897595 432 536 457.937112068 536 536 c 0
 536 614.024206544 491.549215538 640 408 640 c 2
 192 640 l 1
 192 432 l 1
192 336 m 1
 192 48 l 2
 192 21.8536339246 170.144471708 0 144 0 c 0
 117.855528292 0 96 21.8536339246 96 48 c 2
 96 383 l 1
 96 688 l 2
 96 717.054472683 123.398583681 736 144 736 c 2
 408 736 l 2
 516.450784462 736 632 681.975793456 632 536 c 0
 632 429.492754174 570.453956903 371.920610331 495.039791434 348.585433037 c 1
 616.098509212 66.9557770943 l 2
 618.683488017 60.942111125 619.903771905 54.6346776528 619.903771905 48.3954681343 c 0
 619.903771905 29.7125981817 608.961968214 11.6414654781 590.955777094 3.90149078764 c 0
 584.942297271 1.31659199785 578.634854277 0.0962985322148 572.395531355 0.0962985322148 c 0
 553.713356108 0.0962985322148 535.641919018 11.036976676 527.901490788 29.0442229057 c 2
 395.956320932 336 l 1
 192 336 l 1
EndSplineSet
EndChar

StartChar: S
Encoding: 83 83 51
Width: 672
VWidth: 0
Flags: HW
AnchorPoint: "bottom" 336 40 basechar 0
AnchorPoint: "above" 336 784 basechar 0
LayerCount: 2
Fore
SplineSet
551.280388422 530.497145917 m 0
 546.369139449 528.847891306 541.411884372 528.080225163 536.548846866 528.080225163 c 0
 516.296732112 528.080225163 497.678637578 541.393898835 490.82223528 559.793192318 c 0
 488.562816722 565.813041763 458.636400685 648 336 648 c 0
 236.248016332 648 184 602.481965019 184 544 c 0
 184 513.52979536 194.95000105 455.721501568 359.067569216 431.476860816 c 0
 534.889739681 405.103535247 600 309.633749555 600 216 c 0
 600 88.8078831605 491.311916357 -8 336 -8 c 0
 145.861781431 -8 78.285049503 143.619256953 75.7439099546 149.398505256 c 0
 73.2716073285 155.560940115 72.1086631572 161.853168861 72.1086631572 167.991604131 c 0
 72.1086631572 186.810095426 83.0384856883 204.183173044 100.679565091 211.939968081 c 0
 106.738517518 214.60409373 113.131591836 215.851667301 119.464001927 215.851667301 c 0
 137.570909148 215.851667301 155.181814673 205.651280183 163.067018061 189.20105265 c 0
 166.666726059 181.499022559 211.174094383 88 336 88 c 0
 452.688083643 88 504 151.19211684 504 216 c 0
 504 258.366250445 489.110260319 314.896464753 344.932430784 336.523139184 c 0
 157.04999895 364.278498432 88 454.47020464 88 544 c 0
 88 677.518034981 211.751983668 744 336 744 c 0
 525.47915727 744 578.735001467 599.522677548 581.752867228 590.53589648 c 0
 583.097370656 586.050921357 583.748685347 581.41557139 583.748685347 576.789943051 c 0
 583.748685347 557.005659268 571.833794446 537.399219068 551.280388422 530.497145917 c 0
EndSplineSet
EndChar

StartChar: T
Encoding: 84 84 52
Width: 688
VWidth: 0
Flags: HW
AnchorPoint: "bottom" 344 48 basechar 0
AnchorPoint: "above" 344 784 basechar 0
LayerCount: 2
Fore
SplineSet
48 688 m 0
 48 714.144471708 69.8536339246 736 96 736 c 2
 592 736 l 2
 618.144471708 736 640 714.146366075 640 688 c 0
 640 661.853633925 618.144471708 640 592 640 c 2
 392 640 l 1
 392 48 l 2
 392 21.8555282921 370.146366075 0 344 0 c 0
 317.853633925 0 296 21.8555282921 296 48 c 2
 296 640 l 1
 96 640 l 2
 69.8536339246 640 48 661.855528292 48 688 c 0
EndSplineSet
EndChar

StartChar: U
Encoding: 85 85 53
Width: 712
VWidth: 0
Flags: HW
AnchorPoint: "above" 356 784 basechar 0
LayerCount: 2
Fore
SplineSet
568 736 m 0
 594.144471708 736 616 714.146366075 616 688 c 2
 616 216 l 2
 616 84.9254677047 491.889400494 -8 356 -8 c 0
 220.106614598 -8 96 84.9217983715 96 216 c 2
 96 688 l 2
 96 714.144471708 117.853633925 736 144 736 c 0
 170.146366075 736 192 714.144471708 192 688 c 2
 192 216 l 2
 192 153.078201628 257.893385402 88 356 88 c 0
 454.110599506 88 520 153.074532295 520 216 c 2
 520 688 l 2
 520 714.146366075 541.855528292 736 568 736 c 0
EndSplineSet
EndChar

StartChar: V
Encoding: 86 86 54
Width: 688
VWidth: 0
Flags: HW
AnchorPoint: "above" 344 784 basechar 0
LayerCount: 2
Fore
SplineSet
79.1460748038 732.943800523 m 0
 84.5386261936 734.966007295 90.1086583722 735.922194711 95.6144372672 735.922194711 c 0
 115.102493561 735.922194711 133.785551777 723.942588518 140.943800523 704.853925196 c 2
 344 163.370726592 l 1
 547.056199477 704.853925196 l 2
 554.214010496 723.941421247 572.896621925 735.92226062 592.385435442 735.92226062 c 0
 597.89114575 735.92226062 603.461198838 734.966072908 608.853925196 732.943800523 c 0
 627.942588518 725.785551777 639.922194711 707.102493561 639.922194711 687.614437267 c 0
 639.922194711 682.108658372 638.966007295 676.538626194 636.943800523 671.146074804 c 2
 396.943800523 31.1460748038 l 2
 390.130104057 12.9762175601 371.942325584 0 352 0 c 2
 336 0 l 2
 316.594583957 0 298.058417469 12.4734934906 291.056199477 31.1460748038 c 2
 51.0561994767 671.146074804 l 2
 49.0339270925 676.538801162 48.0777393796 682.10885425 48.0777393796 687.614564558 c 0
 48.0777393796 707.103378075 60.0585787533 725.785989504 79.1460748038 732.943800523 c 0
EndSplineSet
EndChar

StartChar: W
Encoding: 87 87 55
Width: 872
VWidth: 0
Flags: HW
AnchorPoint: "above" 436 784 basechar 0
LayerCount: 2
Fore
SplineSet
83.8128898362 734.427086338 m 0
 87.7628868807 735.463960562 91.7470474624 735.958529504 95.6836230747 735.958529504 c 0
 116.948866533 735.958529504 136.825522281 721.526401812 142.427086338 700.187110164 c 2
 270.071476733 213.922765804 l 1
 385.299045565 699.091476678 l 2
 390.552356946 721.210682489 411.742177377 736 432 736 c 2
 440 736 l 2
 462.734479237 736 482.019930118 718.801052746 486.700954435 699.091476678 c 2
 601.928523267 213.922765804 l 1
 729.572913662 700.187110164 l 2
 735.174108323 721.524994589 755.049960787 735.958576812 776.316151063 735.958576812 c 0
 780.252737936 735.958576812 784.236965782 735.463999239 788.187110164 734.427086338 c 0
 809.526401812 728.825522281 823.958529504 708.948866533 823.958529504 687.683623075 c 0
 823.958529504 683.747047462 823.463960562 679.762886881 822.427086338 675.812889836 c 2
 654.427086338 35.8128898362 l 2
 649.659802373 17.6518080639 630.758782308 0 608 0 c 2
 592 0 l 2
 571.742177377 0 550.552356946 14.7893175107 545.299045565 36.9085233218 c 2
 436 497.115030966 l 1
 326.700954435 36.9085233218 l 2
 322.019930118 17.1989472541 302.734479237 0 280 0 c 2
 264 0 l 2
 245.223634869 0 223.351325895 13.7998908535 217.572913662 35.8128898362 c 2
 49.5729136618 675.812889836 l 2
 48.5360007615 679.763034218 48.0414231877 683.747262064 48.0414231877 687.683848937 c 0
 48.0414231877 708.950039213 62.4750054115 728.825891677 83.8128898362 734.427086338 c 0
EndSplineSet
EndChar

StartChar: X
Encoding: 88 88 56
Width: 632
VWidth: 0
Flags: HW
AnchorPoint: "above" 316 784 basechar 0
LayerCount: 2
Fore
SplineSet
68.8066165014 8.44598763843 m 0
 55.4093020608 17.6566413164 48.1663535518 32.8915423673 48.1663535518 48.277651907 c 0
 48.1663535518 57.6338525778 50.8446387034 67.0459668658 56.4459876384 75.1933834986 c 2
 257.750536483 368 l 1
 56.4459876384 660.806616501 l 2
 50.8446387034 668.954033134 48.1663535518 678.366147422 48.1663535518 687.722348093 c 0
 48.1663535518 703.108457633 55.4093020608 718.343358684 68.8066165014 727.554012362 c 0
 76.9537883033 733.155192975 86.3660580229 735.833592084 95.7225672339 735.833592084 c 0
 111.108134966 735.833592084 126.342928828 728.591323183 135.554012362 715.193383499 c 2
 316 452.726492388 l 1
 496.445987638 715.193383499 l 2
 505.656641316 728.590697939 520.891542367 735.833646448 536.277651907 735.833646448 c 0
 545.633852578 735.833646448 555.045966866 733.155361297 563.193383499 727.554012362 c 0
 576.591323183 718.342928828 583.833592084 703.108134966 583.833592084 687.722567234 c 0
 583.833592084 678.366058023 581.155192975 668.953788303 575.554012362 660.806616501 c 2
 374.249463517 368 l 1
 575.554012362 75.1933834986 l 2
 581.155192975 67.0462116967 583.833592084 57.6339419771 583.833592084 48.2774327661 c 0
 583.833592084 32.8918650341 576.591323183 17.6570711716 563.193383499 8.44598763843 c 0
 555.045966866 2.84463870339 545.633852578 0.166353551776 536.277651907 0.166353551776 c 0
 520.891542367 0.166353551776 505.656641316 7.4093020608 496.445987638 20.8066165014 c 2
 316 283.273507612 l 1
 135.554012362 20.8066165014 l 2
 126.342928828 7.40867681676 111.108134966 0.1664079155 95.7225672339 0.1664079155 c 0
 86.3660580229 0.1664079155 76.9537883033 2.84480702467 68.8066165014 8.44598763843 c 0
EndSplineSet
EndChar

StartChar: Y
Encoding: 89 89 57
Width: 656
VWidth: 0
Flags: HW
AnchorPoint: "middle" 328 368 basechar 0
AnchorPoint: "above" 328 784 basechar 0
LayerCount: 2
Fore
SplineSet
66.8796806712 726.15765981 m 0
 75.4217268638 732.676589799 85.627392102 735.821401175 95.7875157884 735.821401175 c 0
 110.347903131 735.821401175 124.81475945 729.362740491 134.15765981 717.120319329 c 2
 328 463.120011494 l 1
 521.84234019 717.120319329 l 2
 531.184833038 729.362206509 545.651852354 735.821443298 560.21275666 735.821443298 c 0
 570.372528204 735.821443298 580.578007237 732.676792723 589.120319329 726.15765981 c 0
 601.362740491 716.81475945 607.821401175 702.347903131 607.821401175 687.787515788 c 0
 607.821401175 677.627392102 604.676589799 667.421726864 598.15765981 658.879680671 c 2
 376 367.77654023 l 1
 376 48 l 2
 376 21.8555282921 354.146366075 0 328 0 c 0
 301.853633925 0 280 21.8555282921 280 48 c 2
 280 367.77654023 l 1
 57.8423401898 658.879680671 l 2
 51.3232072775 667.421992763 48.1785567021 677.627471796 48.1785567021 687.78724334 c 0
 48.1785567021 702.348147646 54.6377934907 716.815166962 66.8796806712 726.15765981 c 0
EndSplineSet
EndChar

StartChar: Z
Encoding: 90 90 58
Width: 632
VWidth: 0
Flags: HW
AnchorPoint: "above" 316 784 basechar 0
LayerCount: 2
Fore
SplineSet
56 688 m 0
 56 714.144471708 77.8536339246 736 104 736 c 2
 528 736 l 2
 554.354847908 736 575.996663789 713.865582227 575.996663789 687.910164833 c 0
 575.996663789 677.677363685 571.505937433 666.658193445 567.784736356 661.14530296 c 2
 186.311656858 96 l 1
 536 96 l 2
 562.144471708 96 584 74.1463660754 584 48 c 0
 584 21.8536339246 562.144471708 0 536 0 c 2
 96 0 l 2
 89.6668574346 0 79.5508316841 2.15339850785 72.3494772395 6.23095915448 c 0
 56.8247421162 15.0213956584 48.1770665888 31.5740589269 48.1770665888 48.3579786487 c 0
 48.1770665888 57.5309492546 50.760115337 66.772995844 56.2152636444 74.8546970401 c 2
 437.688343142 640 l 1
 104 640 l 2
 77.8536339246 640 56 661.855528292 56 688 c 0
EndSplineSet
EndChar

StartChar: bracketleft
Encoding: 91 91 59
Width: 312
VWidth: 0
Flags: HW
LayerCount: 2
Fore
SplineSet
280 768 m 0
 280 741.855528292 258.146366075 720 232 720 c 2
 160 720 l 1
 160 16 l 1
 232 16 l 2
 258.144471708 16 280 -5.85363392464 280 -32 c 0
 280 -58.1463660754 258.144471708 -80 232 -80 c 2
 112 -80 l 2
 91.3985836813 -80 64 -61.0544726826 64 -32 c 2
 64 768 l 2
 64 788.601416319 82.9455273174 816 112 816 c 2
 232 816 l 2
 258.146366075 816 280 794.144471708 280 768 c 0
EndSplineSet
EndChar

StartChar: backslash
Encoding: 92 92 60
Width: 576
VWidth: 0
Flags: HW
LayerCount: 2
Fore
SplineSet
487.132099989 5.94163638352 m 0
 479.963789524 1.99906562792 472.132234913 0.13381447299 464.368335744 0.13381447299 c 0
 447.320674141 0.13381447299 430.599204009 9.1268679654 421.941636384 24.8679000109 c 2
 69.9416363835 664.867900011 l 2
 65.9990656279 672.036210476 64.133814473 679.867765087 64.133814473 687.631664256 c 0
 64.133814473 704.679325859 73.1268679654 721.400795991 88.8679000109 730.058363616 c 0
 96.03642154 734.001050457 103.86789452 735.866255108 111.631582313 735.866255108 c 0
 128.679846962 735.866255108 145.401253681 726.872299871 154.058363616 711.132099989 c 2
 506.058363616 71.1320999891 l 2
 510.001050457 63.96357846 511.866255108 56.1321054802 511.866255108 48.3684176865 c 0
 511.866255108 31.3201530381 502.872299871 14.5987463186 487.132099989 5.94163638352 c 0
EndSplineSet
EndChar

StartChar: bracketright
Encoding: 93 93 61
Width: 312
VWidth: 0
Flags: HW
LayerCount: 2
Fore
SplineSet
32 768 m 0
 32 794.144471708 53.8536339246 816 80 816 c 2
 200 816 l 2
 229.054472683 816 248 788.601416319 248 768 c 2
 248 -32 l 2
 248 -61.0544726826 220.601416319 -80 200 -80 c 2
 80 -80 l 2
 53.8555282921 -80 32 -58.1463660754 32 -32 c 0
 32 -5.85363392464 53.8555282921 16 80 16 c 2
 152 16 l 1
 152 720 l 1
 80 720 l 2
 53.8536339246 720 32 741.855528292 32 768 c 0
EndSplineSet
EndChar

StartChar: asciicircum
Encoding: 94 94 62
Width: 512
VWidth: 0
Flags: HW
LayerCount: 2
Fore
SplineSet
87.3042037395 406.840339566 m 0
 72.4505690128 415.752520402 64.1471030331 431.922221484 64.1471030331 448.341072936 c 0
 64.1471030331 456.703314072 66.300971792 465.130183304 70.8403395658 472.695796261 c 2
 214.840339566 712.695796261 l 2
 223.794346599 727.619141316 239.967511743 735.814256127 256.329858434 735.814256127 c 0
 265.908120162 735.814256127 275.551209646 733.005996467 283.848938265 727.095225252 c 0
 289.181484774 723.296660144 296.232295122 714.241405114 297.159660434 712.695796261 c 2
 441.159660434 472.695796261 l 2
 445.698894659 465.130405886 447.85283151 456.703426126 447.85283151 448.340935805 c 0
 447.85283151 431.922661538 439.550181658 415.752970804 424.695796261 406.840339566 c 0
 417.130183304 402.300971792 408.703314072 400.147103033 400.341072936 400.147103033 c 0
 383.922221484 400.147103033 367.752520402 408.450569013 358.840339566 423.304203739 c 2
 256 594.704769682 l 1
 153.159660434 423.304203739 l 2
 144.247029196 408.449818342 128.077338462 400.14716849 111.659064195 400.14716849 c 0
 103.296573874 400.14716849 94.8695941141 402.301105341 87.3042037395 406.840339566 c 0
EndSplineSet
EndChar

StartChar: underscore
Encoding: 95 95 63
Width: 576
VWidth: 0
Flags: HW
LayerCount: 2
Fore
SplineSet
0 -96 m 0
 0 -69.8555282921 21.8536339246 -48 48 -48 c 2
 528 -48 l 2
 554.144471708 -48 576 -69.8536339246 576 -96 c 0
 576 -122.146366075 554.144471708 -144 528 -144 c 2
 48 -144 l 2
 21.8536339246 -144 0 -122.144471708 0 -96 c 0
EndSplineSet
EndChar

StartChar: grave
Encoding: 96 96 64
Width: 384
VWidth: 0
Flags: HW
LayerCount: 2
Fore
SplineSet
82.7338834792 726.045951477 m 0
 91.3035773888 732.638023715 101.570582816 735.820598504 111.792962039 735.820598504 c 0
 126.28974579 735.820598504 140.696780608 729.42003865 150.045951477 717.266116521 c 2
 310.045951477 509.266116521 l 2
 316.638023715 500.696422611 319.820598504 490.429417184 319.820598504 480.207037961 c 0
 319.820598504 465.71025421 313.42003865 451.303219392 301.266116521 441.954048523 c 0
 292.696154967 435.361770404 282.429337844 432.179360423 272.207313954 432.179360423 c 0
 257.710015105 432.179360423 243.302813768 438.580488661 233.954048523 450.733883479 c 2
 73.954048523 658.733883479 l 2
 67.3617704043 667.303845033 64.1793604226 677.570662156 64.1793604226 687.792686046 c 0
 64.1793604226 702.289984895 70.5804886609 716.697186232 82.7338834792 726.045951477 c 0
EndSplineSet
EndChar

StartChar: a
Encoding: 97 97 65
Width: 588
VWidth: 0
Flags: HW
AnchorPoint: "above" 294 576 basechar 0
LayerCount: 2
Fore
SplineSet
444 528 m 1
 470.144471708 528 492 506.146366075 492 480 c 2
 492 48 l 2
 492 21.8555282921 470.146366075 0 444 0 c 0
 424.029255041 0 406.562886739 12.7504985066 399.426097823 30.4237603796 c 1
 366.442113452 6.3849892553 327.257185173 -8 284 -8 c 1
 150.805918463 -8 60 123.341848205 60 264 c 0
 60 404.658227126 150.805855074 536 284 536 c 0
 327.266366102 536 366.449561127 521.620106284 399.429755443 497.585477935 c 1
 406.569141522 515.254672809 424.033886611 528 444 528 c 1
396 179.482705962 m 1
 396 348.517045144 l 1
 372.316190467 407.923162106 327.259880306 440 284 440 c 0
 223.194144926 440 156 371.341772874 156 264 c 0
 156 156.658151795 223.194081537 88 284 88 c 0
 327.283174692 88 372.311181552 120.058487856 396 179.482705962 c 1
EndSplineSet
EndChar

StartChar: b
Encoding: 98 98 66
Width: 588
VWidth: 0
Flags: HW
LayerCount: 2
Fore
SplineSet
144 736 m 0
 170.144471708 736 192 714.146366075 192 688 c 2
 192 500.034366908 l 1
 224.254421334 522.593608104 262.223838058 536 304 536 c 0
 437.194144926 536 528 404.658227126 528 264 c 0
 528 123.341848205 437.194081537 -8 304 -8 c 0
 257.94860377 -8 216.512553493 8.30341691917 182.260265677 35.2017032044 c 1
 175.900568215 13.5251273543 156.635031224 0.00168487143983 135.948419127 0.00168487143983 c 0
 132.147352015 0.00168487143983 128.298306105 0.458267718222 124.472529055 1.40474902293 c 0
 102.908775546 6.73953179213 88.0348009062 26.6372427209 88.0348009062 48.2590808017 c 0
 88.0348009062 51.5065945797 88.370340535 54.7930026681 89.0691498767 58.0748040265 c 0
 89.9394027306 61.8722710252 96 87.5832771589 96 144 c 2
 96 688 l 2
 96 714.146366075 117.855528292 736 144 736 c 0
192 348.517045144 m 1
 192 179.482705962 l 1
 215.688818448 120.058487856 260.716825308 88 304 88 c 0
 364.805918463 88 432 156.658151795 432 264 c 0
 432 371.341772874 364.805855074 440 304 440 c 0
 260.740119694 440 215.683809533 407.923162106 192 348.517045144 c 1
EndSplineSet
EndChar

StartChar: c
Encoding: 99 99 67
Width: 528
VWidth: 0
Flags: HW
AnchorPoint: "middle" 280 264 basechar 0
AnchorPoint: "bottom" 280 40 basechar 0
AnchorPoint: "above" 280 576 basechar 0
LayerCount: 2
Fore
SplineSet
442.933053452 176.167227314 m 0
 458.784659987 167.546178146 467.868003098 150.756367647 467.868003098 133.628787499 c 0
 467.868003098 125.94010351 466.037553709 118.183353145 462.167227314 111.066946548 c 0
 425.139154323 42.9830704033 359.814663785 -8 280 -8 c 0
 147.893218645 -8 60 124.346177672 60 264 c 0
 60 403.674244363 147.879095399 536 280 536 c 0
 352.909567085 536 413.794873267 493.03684964 452.188984219 434.245867245 c 0
 457.370941553 426.310995077 459.840510453 417.277857088 459.840510453 408.3043488 c 0
 459.840510453 392.522568338 452.202001251 376.925225744 438.245867245 367.811015781 c 0
 430.310759311 362.628904477 421.277760129 360.159430325 412.304538137 360.159430325 c 0
 396.522203085 360.159430325 380.924786884 367.798670753 371.811015781 381.754132755 c 0
 346.205126733 420.96315036 313.090432915 440 280 440 c 0
 222.120904601 440 156 372.325755637 156 264 c 0
 156 155.653822328 222.106781355 88 280 88 c 0
 316.185336215 88 352.860845677 111.016929597 377.832772686 156.933053452 c 0
 386.45428014 172.785502643 403.244164125 181.867933146 420.371137664 181.867933146 c 0
 428.060028219 181.867933146 435.816856563 180.037439657 442.933053452 176.167227314 c 0
EndSplineSet
EndChar

StartChar: d
Encoding: 100 100 68
Width: 592
VWidth: 0
Flags: HW
AnchorPoint: "above" 296 784 basechar 0
LayerCount: 2
Fore
SplineSet
448 736 m 0
 474.144471708 736 496 714.146366075 496 688 c 2
 496 144 l 2
 496 87.5832771589 502.060597269 61.8722710252 502.930850123 58.0748040265 c 0
 503.629659465 54.7930026681 503.965199094 51.5065945797 503.965199094 48.2590808017 c 0
 503.965199094 26.6372427209 489.091224454 6.73953179213 467.527470945 1.40474902293 c 0
 463.701693901 0.458267722912 459.852647997 0.0016848783371 456.051580892 0.0016848783371 c 0
 435.364968792 0.0016848783371 416.099431801 13.5251273443 409.739734323 35.2017031761 c 1
 375.487446495 8.30341691476 334.051396224 -8 288 -8 c 0
 154.805918463 -8 64 123.341848205 64 264 c 0
 64 404.658227126 154.805855074 536 288 536 c 0
 329.776161942 536 367.745578666 522.593608104 400 500.034366908 c 1
 400 688 l 2
 400 714.146366075 421.855528292 736 448 736 c 0
400 179.482705962 m 1
 400 348.517045144 l 1
 376.316190467 407.923162106 331.259880306 440 288 440 c 0
 227.194144926 440 160 371.341772874 160 264 c 0
 160 156.658151795 227.194081537 88 288 88 c 0
 331.283174692 88 376.311181552 120.058487856 400 179.482705962 c 1
EndSplineSet
EndChar

StartChar: e
Encoding: 101 101 69
Width: 544
VWidth: 0
Flags: HW
AnchorPoint: "bottom" 272 40 basechar 0
AnchorPoint: "above" 272 576 basechar 0
LayerCount: 2
Fore
SplineSet
166.161057391 336 m 1
 383.858522617 336 l 1
 379.975830089 355.002664907 374.142282456 370.943769111 362.226458457 390.668852226 c 0
 339.591569492 426.018192014 311.575962788 440 276 440 c 0
 232.973786145 440 187.192405794 405.316316326 166.161057391 336 c 1
157.054386815 240 m 1
 165.987121753 141.017355548 224.201463799 88 276 88 c 0
 355.492742367 88 389.973302389 144.366781518 395.748694034 154.231901719 c 0
 402.762719606 166.080458513 419.755091197 175.502597618 437.384030888 175.502597618 c 0
 444.733339849 175.502597618 452.193282016 173.865064326 459.087010435 170.083131409 c 0
 475.249224505 161.216462214 483.640549312 144.414720454 483.640549312 127.612334425 c 0
 483.640549312 120.032727133 481.932965515 112.452988736 478.460843964 105.601473854 c 0
 474.942923295 99.1889884361 415.604157527 -8 276 -8 c 0
 145.774899748 -8 60 121.105647395 60 264 c 0
 60 275.988038411 60.5737354946 287.777476129 61.6948637303 299.329946245 c 0
 74.0097040251 426.226067462 156.697046297 536 276 536 c 0
 342.598760086 536 404.174199079 503.923759223 443.775782755 441.327707605 c 0
 474.232750538 391.37828044 484 341.546029054 484 288 c 0
 484 258.945527317 456.601416319 240 436 240 c 2
 157.054386815 240 l 1
EndSplineSet
EndChar

StartChar: f
Encoding: 102 102 70
Width: 376
VWidth: 0
Flags: HW
AnchorPoint: "above" 188 784 basechar 0
LayerCount: 2
Fore
SplineSet
36 480 m 0
 36 506.144471708 57.8536339246 528 84 528 c 2
 132 528 l 1
 132 624 l 2
 132 718.711027263 221.905072471 752 268 752 c 0
 291.919694722 752 308.981372304 747.221774939 312.22849967 746.422878523 c 0
 334.233527649 740.238764669 347.998452923 720.820449926 347.998452923 699.949602554 c 0
 347.998452923 696.168209867 347.546599836 692.339135748 346.610034731 688.532451772 c 0
 341.27922653 666.865295858 321.23907312 652.036694314 299.699003267 652.036694314 c 0
 295.998760742 652.036694314 292.254255994 652.474283278 288.532451772 653.389965269 c 2
 288.532451772 653.389965269 275.934623669 656 268 656 c 0
 250.094927529 656 228 641.288972737 228 624 c 2
 228 528 l 1
 292 528 l 2
 318.144471708 528 340 506.146366075 340 480 c 0
 340 453.853633925 318.144471708 432 292 432 c 2
 228 432 l 1
 228 48 l 2
 228 21.8536339246 206.144471708 0 180 0 c 0
 153.855528292 0 132 21.8536339246 132 48 c 2
 132 432 l 1
 84 432 l 2
 57.8536339246 432 36 453.855528292 36 480 c 0
EndSplineSet
EndChar

StartChar: g
Encoding: 103 103 71
Width: 588
VWidth: 0
Flags: HW
LayerCount: 2
Fore
SplineSet
463.527470945 526.595250977 m 0
 486.103621655 521.010005359 499.876584373 499.60812762 499.876584373 479.056457015 c 0
 499.876584373 475.974858798 499.566924352 472.912375943 498.930850123 469.925195974 c 0
 497.898862507 465.421977282 492 439.831484537 492 384 c 2
 492 0 l 2
 492 -87.2534022098 438.378910185 -192 316 -192 c 0
 243.901484215 -192 196.733183138 -158.284691963 191.955588429 -154.963170422 c 0
 178.800652324 -145.163803623 172.049196286 -130.518810174 172.049196286 -115.827245347 c 0
 172.049196286 -106.340221317 174.864474592 -96.8337775672 180.588730234 -88.6001493543 c 0
 189.944040103 -75.1437022454 205.966996898 -68.2679889976 221.181314627 -68.2679889976 c 0
 229.66905967 -68.2679889976 237.905132998 -70.4079085361 244.591442718 -74.7389642669 c 0
 251.650965908 -79.3702367082 277.813930188 -96 316 -96 c 0
 369.621089815 -96 396 -56.7465977902 396 0 c 2
 396 27.9772671956 l 1
 363.741196096 5.41226268147 325.769041565 -8 284 -8 c 0
 150.805918463 -8 60 123.341848205 60 264 c 0
 60 404.658227126 150.805855074 536 284 536 c 0
 330.061316436 536 371.494887803 519.702254695 405.742960282 492.808068181 c 1
 411.66497395 512.884245442 430.818832753 527.965847372 452.343275964 527.965847372 c 0
 456.020211337 527.965847372 459.766324003 527.525743069 463.527470945 526.595250977 c 0
396 179.482705962 m 1
 396 348.517045144 l 1
 372.316190467 407.923162106 327.259880306 440 284 440 c 0
 223.194144926 440 156 371.341772874 156 264 c 0
 156 156.658151795 223.194081537 88 284 88 c 0
 327.283174692 88 372.311181552 120.058487856 396 179.482705962 c 1
EndSplineSet
EndChar

StartChar: h
Encoding: 104 104 72
Width: 584
VWidth: 0
Flags: HW
AnchorPoint: "above" 292 784 basechar 0
LayerCount: 2
Fore
SplineSet
144 736 m 0
 170.144471708 736 192 714.146366075 192 688 c 2
 192 496.256077894 l 1
 225.227566385 518.602997808 267.841848993 536 320 536 c 0
 413.888853993 536 488 454.509147826 488 352 c 2
 488 48 l 2
 488 21.8536339246 466.144471708 0 440 0 c 0
 413.855528292 0 392 21.8536339246 392 48 c 2
 392 352 l 2
 392 409.490852174 354.111146007 440 320 440 c 0
 255.753984508 440 208.276717902 383.622176038 192 360.995142814 c 1
 192 48 l 2
 192 21.8555282921 170.146366075 0 144 0 c 0
 117.853633925 0 96 21.8555282921 96 48 c 2
 96 688 l 2
 96 714.146366075 117.855528292 736 144 736 c 0
EndSplineSet
EndChar

StartChar: i
Encoding: 105 105 73
Width: 288
VWidth: 0
Flags: HW
LayerCount: 2
Fore
SplineSet
144 0 m 0
 117.855528292 0 96 21.8536339246 96 48 c 2
 96 480 l 2
 96 506.144471708 117.853633925 528 144 528 c 0
 170.146366075 528 192 506.144471708 192 480 c 2
 192 48 l 2
 192 21.8536339246 170.144471708 0 144 0 c 0
144 608 m 0
 117.855528292 608 96 629.853633925 96 656 c 2
 96 704 l 2
 96 730.144471708 117.853633925 752 144 752 c 0
 170.146366075 752 192 730.144471708 192 704 c 2
 192 656 l 2
 192 629.853633925 170.144471708 608 144 608 c 0
EndSplineSet
EndChar

StartChar: j
Encoding: 106 106 74
Width: 288
VWidth: 0
Flags: HW
LayerCount: 2
Fore
SplineSet
144 528 m 0
 170.144471708 528 192 506.146366075 192 480 c 2
 192 -64 l 2
 192 -123.306527143 149.993204844 -192 64 -192 c 0
 48.1958626152 -192 38.7823405811 -189.154983758 35.9565090582 -188.471314841 c 0
 13.8553157691 -182.352270056 0.00110473296785 -162.893135332 0.00110473296785 -141.953432896 c 0
 0.00110473296785 -138.231113797 0.43889690158 -134.462008854 1.34597884587 -130.712736818 c 0
 6.60634546284 -108.969888134 26.6573792834 -94.0383877051 48.2919652263 -94.0383877051 c 0
 51.9440309697 -94.0383877051 55.6412212088 -94.4638719168 59.3200060746 -95.3539005133 c 0
 59.5661362255 -95.4066426885 63.7807226346 -96 64 -96 c 0
 90.006795156 -96 96 -84.6934728567 96 -64 c 2
 96 480 l 2
 96 506.146366075 117.855528292 528 144 528 c 0
144 608 m 0
 117.855528292 608 96 629.853633925 96 656 c 2
 96 704 l 2
 96 730.144471708 117.853633925 752 144 752 c 0
 170.146366075 752 192 730.144471708 192 704 c 2
 192 656 l 2
 192 629.853633925 170.144471708 608 144 608 c 0
EndSplineSet
EndChar

StartChar: k
Encoding: 107 107 75
Width: 528
VWidth: 0
Flags: HW
AnchorPoint: "above" 264 784 basechar 0
LayerCount: 2
Fore
SplineSet
442.833828208 5.77895916283 m 0
 435.743734261 1.94452059994 428.024071277 0.131192492124 420.372476813 0.131192492124 c 0
 403.206028824 0.131192492124 386.382193416 9.25830468256 377.778959163 25.1661717921 c 2
 250.306032186 260.870829221 l 1
 192 197.242254679 l 1
 192 48 l 2
 192 21.8536339246 170.144471708 0 144 0 c 0
 117.855528292 0 96 21.8536339246 96 48 c 2
 96 688 l 2
 96 714.144471708 117.853633925 736 144 736 c 0
 170.146366075 736 192 714.144471708 192 688 c 2
 192 339.338658185 l 1
 350.611016332 512.428688456 l 2
 359.957658039 522.628550568 373.00362686 527.808416547 386.072799063 527.808416547 c 0
 397.70334345 527.808416547 409.352264016 523.706163478 418.428688456 515.388983668 c 0
 428.628158343 506.042701375 433.808431163 492.996514775 433.808431163 479.926870661 c 0
 433.808431163 468.296746128 429.706448326 456.648046835 421.388983668 447.571311544 c 2
 318.939470969 335.769561172 l 1
 462.221040837 70.8338282079 l 2
 466.055592453 63.7435252209 467.868877632 56.0239383978 467.868877632 48.372548106 c 0
 467.868877632 31.2054917051 458.740847423 14.3817348609 442.833828208 5.77895916283 c 0
EndSplineSet
EndChar

StartChar: l
Encoding: 108 108 76
Width: 288
VWidth: 0
Flags: HW
AnchorPoint: "above" 144 784 basechar 0
LayerCount: 2
Fore
SplineSet
144 736 m 0
 170.144471708 736 192 714.146366075 192 688 c 2
 192 144 l 2
 192 87.5832771589 198.060597269 61.8722710252 198.930850123 58.0748040265 c 0
 199.629659465 54.7930026681 199.965199094 51.5065945797 199.965199094 48.2590808017 c 0
 199.965199094 26.6372427209 185.091224454 6.73953179213 163.527470945 1.40474902293 c 0
 159.701693901 0.458267722912 155.852647997 0.00168487833716 152.051580892 0.00168487833716 c 0
 131.203649411 0.00168487833716 111.799043258 13.7368681226 105.593310747 35.7103061699 c 0
 104.329569179 40.8184826128 96 75.6050762641 96 144 c 2
 96 688 l 2
 96 714.146366075 117.855528292 736 144 736 c 0
EndSplineSet
EndChar

StartChar: m
Encoding: 109 109 77
Width: 864
VWidth: 0
Flags: HW
AnchorPoint: "above" 432 576 basechar 0
LayerCount: 2
Fore
SplineSet
144 0 m 0
 117.855528292 0 96 21.8536339246 96 48 c 2
 96 480 l 2
 96 506.144471708 117.853633925 528 144 528 c 0
 163.923948063 528 181.355242591 515.309187265 188.523561799 497.70039823 c 1
 220.20236677 519.399840176 261.076131017 536 312 536 c 0
 364.891778317 536 411.506959962 510.13829692 442.1317355 469.226260544 c 1
 476.370280972 502.994024072 528.193865748 536 600 536 c 1
 693.888853993 536 768 454.509147826 768 352 c 2
 768 48 l 2
 768 21.8536339246 746.144471708 0 720 0 c 0
 693.855528292 0 672 21.8536339246 672 48 c 2
 672 352 l 2
 672 409.490852174 634.111146007 440 600 440 c 0
 535.606922983 440 493.319408357 383.436058593 479.766604404 361.934903973 c 0
 479.921578117 358.646897896 480.000000096 355.334569385 480 352 c 2
 480 48 l 2
 480 21.8536339246 458.144471708 0 432 0 c 0
 405.855528292 0 384 21.8536339246 384 48 c 2
 384 352 l 2
 384 409.490852174 346.111146007 440 312 440 c 0
 247.972174243 440 205.799847176 384.075924171 192 362.304148984 c 1
 192 48 l 2
 192 21.8536339246 170.144471708 0 144 0 c 0
EndSplineSet
EndChar

StartChar: n
Encoding: 110 110 78
Width: 580
VWidth: 0
Flags: HW
AnchorPoint: "above" 290 576 basechar 0
LayerCount: 2
Fore
SplineSet
144 0 m 0
 117.855528292 0 96 21.8536339246 96 48 c 2
 96 480 l 2
 96 506.144471708 117.853633925 528 144 528 c 0
 164.492761257 528 182.348510689 514.574217884 189.112236014 496.180402167 c 1
 221.721083696 518.591402444 263.836650854 536 316 536 c 0
 409.888853993 536 484 454.509147826 484 352 c 2
 484 48 l 2
 484 21.8536339246 462.144471708 0 436 0 c 0
 409.855528292 0 388 21.8536339246 388 48 c 2
 388 352 l 2
 388 409.490852174 350.111146007 440 316 440 c 0
 251.902955331 440 207.104690385 383.977919632 192 361.648149728 c 1
 192 48 l 2
 192 21.8536339246 170.144471708 0 144 0 c 0
EndSplineSet
EndChar

StartChar: o
Encoding: 111 111 79
Width: 568
VWidth: 0
Flags: HW
HStem: 40 448<207.697 360.303>
VStem: 108 352<157.228 370.772>
AnchorPoint: "middle" 284 264 basechar 0
AnchorPoint: "above" 284 576 basechar 0
LayerCount: 2
Fore
SplineSet
508 264 m 0
 508 123.341848205 417.194081537 -8 284 -8 c 0
 150.805855074 -8 60 123.341772874 60 264 c 0
 60 404.658151795 150.805918463 536 284 536 c 0
 417.194144926 536 508 404.658227126 508 264 c 0
412 264 m 0
 412 371.341772874 344.805855074 440 284 440 c 0
 223.194081537 440 156 371.341848205 156 264 c 0
 156 156.658227126 223.194144926 88 284 88 c 0
 344.805918463 88 412 156.658151795 412 264 c 0
EndSplineSet
EndChar

StartChar: p
Encoding: 112 112 80
Width: 588
VWidth: 0
Flags: HW
AnchorPoint: "above" 294 576 basechar 0
LayerCount: 2
Fore
SplineSet
192 27.9772671956 m 1
 192 -144 l 2
 192 -170.144471708 170.146366075 -192 144 -192 c 0
 117.853633925 -192 96 -170.144471708 96 -144 c 2
 96 480 l 2
 96 506.146366075 117.855528292 528 144 528 c 0
 163.966113389 528 181.430858478 515.254672809 188.570244557 497.585477935 c 1
 221.550438873 521.620106284 260.733633898 536 304 536 c 0
 437.194144926 536 528 404.658227126 528 264 c 0
 528 123.341848205 437.194081537 -8 304 -8 c 0
 262.230958435 -8 224.258803904 5.41226268147 192 27.9772671956 c 1
192 179.482705962 m 1
 215.688818448 120.058487856 260.716825308 88 304 88 c 0
 364.805918463 88 432 156.658151795 432 264 c 0
 432 371.341772874 364.805855074 440 304 440 c 0
 260.740119694 440 215.683809533 407.923162106 192 348.517045144 c 1
 192 179.482705962 l 1
EndSplineSet
EndChar

StartChar: q
Encoding: 113 113 81
Width: 588
VWidth: 0
Flags: HW
AnchorPoint: "above" 294 576 basechar 0
LayerCount: 2
Fore
SplineSet
444 -192 m 0
 417.855528292 -192 396 -170.146366075 396 -144 c 2
 396 27.9772671956 l 1
 363.741196096 5.41226268147 325.769041565 -8 284 -8 c 0
 150.805918463 -8 60 123.341848205 60 264 c 0
 60 404.658227126 150.805855074 536 284 536 c 0
 330.061186022 536 371.494653181 519.702346983 405.742669299 492.808296513 c 1
 412.105357149 514.47903162 431.368149915 527.998315185 452.05158072 527.998315185 c 0
 455.852647884 527.998315185 459.701693846 527.54173232 463.527470945 526.595250977 c 0
 485.091224454 521.260468208 499.965199094 501.362757279 499.965199094 479.740919198 c 0
 499.965199094 476.49340542 499.629659465 473.206997332 498.930850123 469.925195974 c 0
 498.060597269 466.127728975 492 440.416722841 492 384 c 2
 492 -144 l 2
 492 -170.146366075 470.144471708 -192 444 -192 c 0
396 179.482705962 m 1
 396 348.517045144 l 1
 372.316190467 407.923162106 327.259880306 440 284 440 c 0
 223.194144926 440 156 371.341772874 156 264 c 0
 156 156.658151795 223.194081537 88 284 88 c 0
 327.283174692 88 372.311181552 120.058487856 396 179.482705962 c 1
EndSplineSet
EndChar

StartChar: r
Encoding: 114 114 82
Width: 424
VWidth: 0
Flags: HW
AnchorPoint: "above" 212 576 basechar 0
LayerCount: 2
Fore
SplineSet
144 528 m 0
 170.144471708 528 192 506.146366075 192 480 c 2
 192 457.707079339 l 1
 227.615378573 498.958866021 272.217530302 528 328 528 c 0
 354.146366075 528 376 506.144471708 376 480 c 0
 376 453.855528292 354.146366075 432 328 432 c 0
 290.051782028 432 231.862905532 363.915547133 192 260.552695295 c 1
 192 48 l 2
 192 21.8555282921 170.146366075 0 144 0 c 0
 117.853633925 0 96 21.8555282921 96 48 c 2
 96 480 l 2
 96 506.146366075 117.855528292 528 144 528 c 0
EndSplineSet
EndChar

StartChar: s
Encoding: 115 115 83
Width: 496
VWidth: 0
Flags: HW
AnchorPoint: "bottom" 248 40 basechar 0
LayerCount: 2
Fore
SplineSet
409.774829081 394.350835956 m 0
 400.985637285 387.399906496 390.809052737 384.011537557 380.602043301 384.011537557 c 0
 366.425324354 384.011537557 352.189912798 390.548035346 341.531618825 403.154308355 c 0
 341.326785337 403.392998618 308.184494141 440 248 440 c 0
 189.161252606 440 164 404.098212773 164 388 c 0
 164 368.046160131 166.40022439 331.760847622 252.45525997 323.792788772 c 0
 389.150818533 311.049982465 436 234.049813706 436 160 c 0
 436 68.2217152343 362.135050552 -8 248 -8 c 0
 136.53216942 -8 72.0322492142 80.0715782654 69.6913854883 83.0678838346 c 0
 63.1828913454 91.9854958335 60.0941960163 102.142674504 60.0941960163 112.110284727 c 0
 60.0941960163 126.515932337 66.5456640751 140.525621571 78.4490859853 149.825169939 c 0
 87.0733320066 156.562862143 97.4648955499 159.855394769 107.832933612 159.855394769 c 0
 121.671300793 159.855394769 135.467758227 153.989873405 144.964142587 142.62173825 c 0
 149.008108224 137.609158089 193.524898667 88 248 88 c 0
 317.864949448 88 340 123.778284766 340 160 c 0
 340 189.950186294 342.849181467 218.950017535 243.54474003 228.207211228 c 0
 113.59977561 240.239152378 68 323.953839869 68 388 c 0
 68 477.901787227 156.838747394 536 248 536 c 0
 357.398774237 536 412.69010998 468.04538385 418.136224267 461.158974876 c 0
 424.400643189 452.68187113 427.617054842 442.299097708 427.617054842 431.891034443 c 0
 427.617054842 417.901191384 421.80596667 403.865657186 409.774829081 394.350835956 c 0
EndSplineSet
EndChar

StartChar: t
Encoding: 116 116 84
Width: 344
VWidth: 0
Flags: HW
AnchorPoint: "bottom" 172 48 basechar 0
AnchorPoint: "above" 172 736 basechar 0
LayerCount: 2
Fore
SplineSet
36 480 m 0
 36 506.144471708 57.8536339246 528 84 528 c 2
 124 528 l 1
 124 640 l 2
 124 666.146366075 145.855528292 688 172 688 c 0
 198.144471708 688 220 666.146366075 220 640 c 2
 220 528 l 1
 260 528 l 2
 286.144471708 528 308 506.146366075 308 480 c 0
 308 453.853633925 286.144471708 432 260 432 c 2
 220 432 l 1
 220 48 l 2
 220 21.8555282921 198.146366075 0 172 0 c 0
 145.853633925 0 124 21.8555282921 124 48 c 2
 124 432 l 1
 84 432 l 2
 57.8536339246 432 36 453.855528292 36 480 c 0
EndSplineSet
EndChar

StartChar: u
Encoding: 117 117 85
Width: 580
VWidth: 0
Flags: HW
AnchorPoint: "above" 290 576 basechar 0
LayerCount: 2
Fore
SplineSet
436 528 m 0
 462.144471708 528 484 506.146366075 484 480 c 2
 484 48 l 2
 484 21.8555282921 462.146366075 0 436 0 c 0
 415.507238743 0 397.651489311 13.4257821161 390.887763986 31.819597833 c 1
 358.278916304 9.40859755589 316.163349146 -8 264 -8 c 1
 170.111146007 -8 96 73.4908521736 96 176 c 2
 96 480 l 2
 96 506.146366075 117.855528292 528 144 528 c 0
 170.144471708 528 192 506.146366075 192 480 c 2
 192 176 l 2
 192 118.509147826 229.888853993 88 264 88 c 0
 328.097044669 88 372.895309615 144.022080368 388 166.351850272 c 1
 388 480 l 2
 388 506.146366075 409.855528292 528 436 528 c 0
EndSplineSet
EndChar

StartChar: v
Encoding: 118 118 86
Width: 496
VWidth: 0
Flags: HW
AnchorPoint: "above" 248 576 basechar 0
LayerCount: 2
Fore
SplineSet
81.5862779888 525.784764035 m 0
 86.2336734169 527.247832967 90.9668972695 527.942231872 95.6433730083 527.942231872 c 0
 116.060826721 527.942231872 135.396554556 514.705681534 141.784764035 494.413722011 c 2
 248 157.024148947 l 1
 354.215235965 494.413722011 l 2
 360.603037793 514.704386642 379.938138658 527.942289237 400.356439228 527.942289237 c 0
 405.032892115 527.942289237 409.766165165 527.247883783 414.413722011 525.784764035 c 0
 434.705681534 519.396554556 447.942231872 500.060826721 447.942231872 479.643373008 c 0
 447.942231872 474.96689727 447.247832967 470.233673417 445.784764035 465.586277989 c 2
 309.784764035 33.5862779888 l 2
 304.022483791 15.2825642704 285.352704544 0 264 0 c 2
 248 0 l 1
 232 0 l 2
 212.810685017 0 192.627151537 13.2190167578 186.215235965 33.5862779888 c 2
 50.2152359645 465.586277989 l 2
 48.7521162168 470.233834835 48.0577107633 474.967107885 48.0577107633 479.643560772 c 0
 48.0577107633 500.061861342 61.2956133582 519.396962207 81.5862779888 525.784764035 c 0
EndSplineSet
EndChar

StartChar: w
Encoding: 119 119 87
Width: 696
VWidth: 0
Flags: HW
AnchorPoint: "above" 348 576 basechar 0
LayerCount: 2
Fore
SplineSet
83.9538163784 526.463851112 m 0
 87.859218631 527.476362807 91.7963584017 527.959485033 95.6865522508 527.959485033 c 0
 117.005572502 527.959485033 136.914687697 513.450099652 142.463851112 492.046183622 c 2
 218.526281609 198.662523134 l 1
 293.972955273 453.62024793 l 2
 300.035364883 474.10701144 319.793394875 488 340 488 c 2
 356 488 l 2
 377.364931299 488 396.293316152 472.996296218 402.027044727 453.62024793 c 2
 477.473718391 198.662523134 l 1
 553.536148888 492.046183622 l 2
 559.084945668 513.448685487 578.993246082 527.959531653 600.31322011 527.959531653 c 0
 604.203427096 527.959531653 608.140635003 527.476400754 612.046183622 526.463851112 c 0
 633.450099652 520.914687697 647.959485033 501.005572502 647.959485033 479.686552251 c 0
 647.959485033 475.796358402 647.476362807 471.859218631 646.463851112 467.953816378 c 2
 534.463851112 35.9538163784 l 2
 529.704428582 17.5960437614 510.758379142 0 488 0 c 2
 472 0 l 2
 451.793394875 0 432.035364883 13.8929885603 425.972955273 34.3797520705 c 2
 348 297.87456644 l 1
 270.027044727 34.3797520705 l 2
 264.293316152 15.0037037817 245.364931299 0 224 0 c 2
 208 0 l 2
 189.035298097 0 167.247640848 13.9237759619 161.536148888 35.9538163784 c 2
 49.536148888 467.953816378 l 2
 48.5235992462 471.859364997 48.0404683468 475.796572904 48.0404683468 479.68677989 c 0
 48.0404683468 501.006753918 62.5513145131 520.915054332 83.9538163784 526.463851112 c 0
EndSplineSet
EndChar

StartChar: x
Encoding: 120 120 88
Width: 496
VWidth: 0
Flags: HW
AnchorPoint: "above" 248 576 basechar 0
LayerCount: 2
Fore
SplineSet
402.106981804 520.279343355 m 0
 416.143683112 511.181481396 423.841627242 495.531744218 423.841627242 479.691808647 c 0
 423.841627242 470.774097157 421.401711839 461.796101001 416.279343355 453.893018196 c 2
 305.200535265 282.514285714 l 1
 440.279343355 74.106981804 l 2
 445.401559846 66.2041335035 447.841567374 57.2260010308 447.841567374 48.3080065395 c 0
 447.841567374 32.4686274866 440.144362061 16.8189586639 426.106981804 7.72065664529 c 0
 418.203898999 2.59828816072 409.225902843 0.158372757963 400.308191353 0.158372757963 c 0
 384.468255782 0.158372757963 368.818518604 7.85631688768 359.720656645 21.893018196 c 2
 248 194.262031306 l 1
 136.279343355 21.893018196 l 2
 127.181481396 7.85631688768 111.531744218 0.158372757963 95.6918086465 0.158372757963 c 0
 86.7740971567 0.158372757963 77.7961010008 2.59828816072 69.893018196 7.72065664529 c 0
 55.8556379388 16.8189586639 48.1584326256 32.4686274866 48.1584326256 48.3080065395 c 0
 48.1584326256 57.2260010308 50.5984401542 66.2041335035 55.7206566453 74.106981804 c 2
 190.799464735 282.514285714 l 1
 79.7206566453 453.893018196 l 2
 74.5982881607 461.796101001 72.158372758 470.774097157 72.158372758 479.691808647 c 0
 72.158372758 495.531744218 79.8563168877 511.181481396 93.893018196 520.279343355 c 0
 101.795866497 525.401559846 110.773998969 527.841567374 119.69199346 527.841567374 c 0
 135.531372513 527.841567374 151.181041336 520.144362061 160.279343355 506.106981804 c 2
 248 370.766540123 l 1
 335.720656645 506.106981804 l 2
 344.818958664 520.144362061 360.468627487 527.841567374 376.30800654 527.841567374 c 0
 385.226001031 527.841567374 394.204133503 525.401559846 402.106981804 520.279343355 c 0
EndSplineSet
EndChar

StartChar: y
Encoding: 121 121 89
Width: 496
VWidth: 0
Flags: HW
AnchorPoint: "above" 248 576 basechar 0
LayerCount: 2
Fore
SplineSet
79.9074804629 525.222016927 m 0
 85.0700271912 527.059139411 90.3769220475 527.928648597 95.6215799409 527.928648597 c 0
 115.400057709 527.928648597 134.293420298 515.562753102 141.222016927 496.092519537 c 2
 252.734167409 182.72926122 l 1
 354.358171289 494.860130278 l 2
 360.894579607 514.936241543 380.115555012 527.938716769 400.363195546 527.938716769 c 0
 405.189805778 527.938716769 410.074755741 527.19985763 414.860130278 525.641828711 c 0
 434.934969699 519.105834481 447.938775921 499.885451997 447.938775921 479.636982488 c 0
 447.938775921 474.810402878 447.199911027 469.925408263 445.641828711 465.139869722 c 2
 277.589870849 -51.0197151408 l 2
 261.330381152 -99.7981842329 220.819131179 -194 120 -194 c 0
 101.149821185 -194 89.348065852 -191.604780085 86.0861430503 -190.971664267 c 0
 62.9652025281 -185.693617939 47.9996475993 -165.750228353 47.9996475993 -143.975143935 c 0
 47.9996475993 -140.958615477 48.2868499461 -137.906935161 48.879359728 -134.854221719 c 0
 53.2721534623 -112.221784436 73.8251736316 -96.0072196812 96.1920604702 -96.0072196812 c 0
 98.6113343796 -96.0072196812 101.051829217 -96.1969183565 103.495390651 -96.5887127461 c 0
 107.122508436 -97.2250491995 110.748953805 -98 120 -98 c 0
 147.180868821 -98 170.669618848 -68.2018157671 186.410129151 -20.9802848592 c 2
 204.049046666 33.1963903659 l 1
 50.777983073 463.907480463 l 2
 48.9407997838 469.07019806 48.0712878204 474.377123531 48.0712878204 479.621727925 c 0
 48.0712878204 499.400988801 60.4384543815 518.293849988 79.9074804629 525.222016927 c 0
EndSplineSet
EndChar

StartChar: z
Encoding: 122 122 90
Width: 504
VWidth: 0
Flags: HW
AnchorPoint: "above" 252 576 basechar 0
LayerCount: 2
Fore
SplineSet
444 48 m 0
 444 21.8555282921 422.146366075 0 396 0 c 2
 108 0 l 2
 81.6451520917 0 60.0033362114 22.1344177733 60.0033362114 48.0898351674 c 0
 60.0033362114 57.7825226159 65.0931011488 70.053039038 67.7206566453 74.106981804 c 2
 299.688353624 432 l 1
 116 432 l 2
 89.8555282921 432 68 453.853633925 68 480 c 0
 68 506.146366075 89.8555282921 528 116 528 c 2
 388 528 l 2
 395.37709802 528 403.869559843 525.994375566 410.866306939 522.203459656 c 0
 426.836427631 513.550669469 435.829794139 496.720390359 435.829794139 479.623688196 c 0
 435.829794139 470.749839177 433.406971232 461.804215492 428.279343355 453.893018196 c 2
 196.311646376 96 l 1
 396 96 l 2
 422.146366075 96 444 74.1444717079 444 48 c 0
EndSplineSet
EndChar

StartChar: braceleft
Encoding: 123 123 91
Width: 432
VWidth: 0
Flags: HW
LayerCount: 2
Fore
SplineSet
98.1849610543 353.682800329 m 0
 96.7051718021 358.418125937 96.0225461295 363.240760958 96.0583529452 368.000346357 c 0
 96.022614968 372.759706988 96.7052461954 377.582103811 98.1849610543 382.317199671 c 0
 100.56131354 389.921527624 104.755823403 396.540416564 110.145920079 401.84762916 c 0
 115.454079522 407.240733819 122.075169324 411.437654746 129.682800329 413.815038946 c 0
 185.312041987 431.199176964 199.818631885 463.420487575 199.818631885 502.876419069 c 0
 199.818631885 545.885863527 182.581365321 597.491752052 182.581365321 647.846856976 c 0
 182.581365321 711.979568555 210.541585852 774.083409422 337.682800329 813.815038946 c 0
 342.300273716 815.257999379 347.000764705 815.942981889 351.644863548 815.942981889 c 0
 372.099032381 815.942981889 391.459296771 802.65557463 397.815038946 782.317199671 c 0
 399.258049645 777.699565434 399.943038856 772.999024303 399.943038856 768.35494667 c 0
 399.943038856 747.899927023 386.654274774 728.540297024 366.317199671 722.184961054 c 0
 310.695660427 704.803230041 296.193846341 672.57740426 296.193846341 633.114639218 c 0
 296.193846341 590.114895135 313.411701549 538.522807252 313.411701549 488.179786618 c 0
 313.411701549 445.160896304 300.839280474 403.054070775 254.207781529 368 c 1
 300.839280474 332.945929225 313.411701549 290.839103696 313.411701549 247.820213382 c 0
 313.411701549 197.477192748 296.193846341 145.885104865 296.193846341 102.885360782 c 0
 296.193846341 63.4225957399 310.695660427 31.1967699591 366.317199671 13.8150389457 c 0
 386.654274774 7.45970297577 399.943038856 -11.8999270234 399.943038856 -32.3549466697 c 0
 399.943038856 -36.9990243033 399.258049645 -41.699565434 397.815038946 -46.3171996705 c 0
 391.459296771 -66.6555746295 372.099032381 -79.9429818891 351.644863548 -79.9429818891 c 0
 347.000764705 -79.9429818891 342.300273716 -79.2579993791 337.682800329 -77.8150389457 c 0
 210.541585852 -38.0834094215 182.581365321 24.0204314448 182.581365321 88.1531430241 c 0
 182.581365321 138.508247948 199.818631885 190.114136473 199.818631885 233.123580931 c 0
 199.818631885 272.579512425 185.312041987 304.800823036 129.682800329 322.184961054 c 0
 122.075169328 324.562345742 115.454079248 328.759266966 110.145919294 334.152371625 c 0
 104.755823374 339.459584462 100.561313802 346.078473129 98.1849610543 353.682800329 c 0
EndSplineSet
EndChar

StartChar: bar
Encoding: 124 124 92
Width: 288
VWidth: 0
Flags: HW
LayerCount: 2
Fore
SplineSet
144 816 m 0
 170.144471708 816 192 794.146366075 192 768 c 2
 192 -32 l 2
 192 -58.1444717079 170.146366075 -80 144 -80 c 0
 117.853633925 -80 96 -58.1444717079 96 -32 c 2
 96 768 l 2
 96 794.146366075 117.855528292 816 144 816 c 0
EndSplineSet
EndChar

StartChar: braceright
Encoding: 125 125 93
Width: 432
VWidth: 0
Flags: HW
LayerCount: 2
Fore
SplineSet
333.815038946 382.317199671 m 0
 335.294792301 377.581988934 335.977420752 372.759473018 335.941647056 368 c 0
 335.977420752 363.240526982 335.294792301 358.418011066 333.815038946 353.682800329 c 0
 331.43868646 346.078472376 327.244176597 339.459583436 321.854079921 334.15237084 c 0
 316.545920478 328.759266181 309.924830676 324.562345254 302.317199671 322.184961054 c 0
 246.687958013 304.800823036 232.181368115 272.579512425 232.181368115 233.123580931 c 0
 232.181368115 190.114136473 249.418634679 138.508247948 249.418634679 88.1531430241 c 0
 249.418634679 24.0204314448 221.458414148 -38.0834094215 94.3171996705 -77.8150389457 c 0
 89.6997262836 -79.2579993791 84.9992352947 -79.9429818891 80.3551364517 -79.9429818891 c 0
 59.9009676194 -79.9429818891 40.540703229 -66.6555746295 34.1849610543 -46.3171996705 c 0
 32.7419503554 -41.699565434 32.0569611436 -36.9990243033 32.0569611436 -32.3549466697 c 0
 32.0569611436 -11.8999270234 45.3457252257 7.45970297577 65.6828003295 13.8150389457 c 0
 121.304339573 31.1967699591 135.806153659 63.4225957399 135.806153659 102.885360782 c 0
 135.806153659 145.885104865 118.588298451 197.477192748 118.588298451 247.820213382 c 0
 118.588298451 290.839103696 131.160719526 332.945929225 177.792218471 368 c 1
 131.160719526 403.054070775 118.588298451 445.160896304 118.588298451 488.179786618 c 0
 118.588298451 538.522807252 135.806153659 590.114895135 135.806153659 633.114639218 c 0
 135.806153659 672.57740426 121.304339573 704.803230041 65.6828003295 722.184961054 c 0
 45.3457252257 728.540297024 32.0569611436 747.899927023 32.0569611436 768.35494667 c 0
 32.0569611436 772.999024303 32.7419503554 777.699565434 34.1849610543 782.317199671 c 0
 40.540703229 802.65557463 59.9009676194 815.942981889 80.3551364517 815.942981889 c 0
 84.9992352947 815.942981889 89.6997262836 815.257999379 94.3171996705 813.815038946 c 0
 221.458414148 774.083409422 249.418634679 711.979568555 249.418634679 647.846856976 c 0
 249.418634679 597.491752052 232.181368115 545.885863527 232.181368115 502.876419069 c 0
 232.181368115 463.420487575 246.687958013 431.199176964 302.317199671 413.815038946 c 0
 309.924830672 411.437654258 316.545920752 407.240733034 321.854080706 401.847628375 c 0
 327.244176626 396.540415538 331.438686198 389.921526871 333.815038946 382.317199671 c 0
EndSplineSet
EndChar

StartChar: asciitilde
Encoding: 126 126 94
Width: 648
VWidth: 0
Flags: HW
LayerCount: 2
Fore
SplineSet
87.3289109205 170.988059485 m 0
 68.1492982633 178.091619729 56.0761757041 196.825266731 56.0761757041 216.383879249 c 0
 56.0761757041 221.826681223 57.0111261455 227.333369062 58.9880594853 232.67108908 c 0
 92.3290629034 322.691798309 142.734828673 349.757281753 197.722021384 349.757281753 c 0
 280.656857746 349.757281753 374.013708143 288.187632848 434.961695104 288.187632848 c 0
 460.218769987 288.187632848 479.91025535 298.761017916 490.988059485 328.67108908 c 0
 498.091619729 347.850701737 516.825266731 359.923824296 536.383879249 359.923824296 c 0
 541.826681223 359.923824296 547.333369062 358.988873855 552.67108908 357.011940515 c 0
 571.851878691 349.907944362 583.923758915 331.173837598 583.923758915 311.615988354 c 0
 583.923758915 306.173121477 582.988809414 300.666456947 581.011940515 295.32891092 c 0
 547.670981548 205.308321711 497.265127765 178.242897434 442.277820449 178.242897434 c 0
 359.342988645 178.242897434 265.986126908 239.812148328 205.038201105 239.812148328 c 0
 179.781139496 239.812148328 160.089685176 229.238821506 149.011940515 199.32891092 c 0
 141.907944362 180.148121309 123.173837598 168.076241085 103.615988354 168.076241085 c 0
 98.1731214771 168.076241085 92.6664569474 169.011190586 87.3289109205 170.988059485 c 0
EndSplineSet
EndChar

StartChar: tildecomb
Encoding: 771 771 95
Width: 0
VWidth: 0
Flags: HW
AnchorPoint: "above" 0 728 mark 0
LayerCount: 2
Fore
SplineSet
-155.822550692 777.47874362 m 0
 -178.136049112 783.149322764 -191.811581916 803.835250538 -191.811581916 824.875741396 c 0
 -191.811581916 828.282541657 -191.453051616 831.698637469 -190.714606803 835.061794553 c 0
 -189.983475934 837.938764802 -166.507022279 936 -64 936 c 0
 43.9580024147 936 44.8508107424 872 64 872 c 0
 86.5431558685 872 95.602231853 893.730042705 97.3442491715 899.450099571 c 0
 104.123322418 922.884764671 123.132718749 936.056480789 143.669750563 936.056480789 c 0
 147.688916113 936.056480789 151.766589788 935.552006775 155.822550692 934.52125638 c 0
 177.146411727 929.102175993 191.905500049 909.879722844 191.905500049 887.812920789 c 0
 191.905500049 884.246879802 191.520063057 880.606557989 190.714606803 876.938205447 c 0
 190.379716364 875.620425181 167.33270347 776 64 776 c 0
 -44.8508107424 776 -43.9580024147 840 -64 840 c 0
 -86.1765031396 840 -95.4973725107 818.614271554 -97.3442491715 812.549900429 c 0
 -103.663196565 790.70585028 -122.609323922 775.985325512 -144.012911573 775.985325512 c 0
 -147.888997409 775.985325512 -151.845676766 776.468091776 -155.822550692 777.47874362 c 0
EndSplineSet
EndChar

StartChar: dotlessi
Encoding: 305 305 96
Width: 288
VWidth: 0
Flags: HW
AnchorPoint: "above" 144 576 basechar 0
LayerCount: 2
Fore
SplineSet
144 0 m 0
 117.855528292 0 96 21.8536339246 96 48 c 2
 96 480 l 2
 96 506.144471708 117.853633925 528 144 528 c 0
 170.146366075 528 192 506.144471708 192 480 c 2
 192 48 l 2
 192 21.8536339246 170.144471708 0 144 0 c 0
EndSplineSet
EndChar

StartChar: uni0237
Encoding: 567 567 97
Width: 288
VWidth: 0
Flags: HW
AnchorPoint: "above" 144 576 basechar 0
LayerCount: 2
Fore
SplineSet
144 528 m 0
 170.144471708 528 192 506.146366075 192 480 c 2
 192 -64 l 2
 192 -123.306527143 149.993204844 -192 64 -192 c 0
 48.1958626152 -192 38.7823405811 -189.154983758 35.9565090582 -188.471314841 c 0
 13.8553157691 -182.352270056 0.00110473296785 -162.893135332 0.00110473296785 -141.953432896 c 0
 0.00110473296785 -138.231113797 0.43889690158 -134.462008854 1.34597884587 -130.712736818 c 0
 6.60634546284 -108.969888134 26.6573792834 -94.0383877051 48.2919652263 -94.0383877051 c 0
 51.9440309697 -94.0383877051 55.6412212088 -94.4638719168 59.3200060746 -95.3539005133 c 0
 59.5661362255 -95.4066426885 63.7807226346 -96 64 -96 c 0
 90.006795156 -96 96 -84.6934728567 96 -64 c 2
 96 480 l 2
 96 506.146366075 117.855528292 528 144 528 c 0
EndSplineSet
EndChar

StartChar: gravecomb
Encoding: 768 768 98
Width: 0
VWidth: 0
Flags: HW
AnchorPoint: "above" 0 720 mark 0
LayerCount: 2
Fore
SplineSet
-138.932505168 933.466252584 m 0
 -130.601382297 950.128498325 -113.320105594 959.881094911 -95.6129201167 959.881094911 c 0
 -88.469277496 959.881094911 -81.2563151308 958.293789025 -74.533747416 954.932505168 c 2
 117.466252584 858.932505168 l 2
 134.128498325 850.601382297 143.881094911 833.320105594 143.881094911 815.612920117 c 0
 143.881094911 808.469277496 142.293789025 801.256315131 138.932505168 794.533747416 c 0
 130.600922015 777.87058111 113.319493053 768.118976721 95.6129426953 768.118976721 c 0
 88.4691286796 768.118976721 81.2561147866 769.706311147 74.533747416 773.067494832 c 2
 -117.466252584 869.067494832 l 2
 -134.12941889 877.399077985 -143.881023279 894.680506947 -143.881023279 912.387057305 c 0
 -143.881023279 919.53087132 -142.293688853 926.743885213 -138.932505168 933.466252584 c 0
EndSplineSet
EndChar

StartChar: acutecomb
Encoding: 769 769 99
Width: 0
VWidth: 0
Flags: H
AnchorPoint: "above" 0 720 mark 0
LayerCount: 2
Fore
SplineSet
-138.932505168 794.533747416 m 0
 -142.293688853 801.256114787 -143.881023279 808.46912868 -143.881023279 815.612942695 c 0
 -143.881023279 833.319493053 -134.12941889 850.600922015 -117.466252584 858.932505168 c 2
 74.533747416 954.932505168 l 2
 81.2561147866 958.293688853 88.4691286796 959.881023279 95.6129426953 959.881023279 c 0
 113.319493053 959.881023279 130.600922015 950.12941889 138.932505168 933.466252584 c 0
 142.293789025 926.743684869 143.881094911 919.530722504 143.881094911 912.387079883 c 0
 143.881094911 894.679894406 134.128498325 877.398617703 117.466252584 869.067494832 c 2
 -74.533747416 773.067494832 l 2
 -81.2563151308 769.706210975 -88.469277496 768.118905089 -95.6129201167 768.118905089 c 0
 -113.320105594 768.118905089 -130.601382297 777.871501675 -138.932505168 794.533747416 c 0
EndSplineSet
EndChar

StartChar: uni0302
Encoding: 770 770 100
Width: 0
VWidth: 0
Flags: H
AnchorPoint: "above" 0 736 mark 0
LayerCount: 2
Fore
SplineSet
-151.059206618 804.100566701 m 0
 -156.986294606 812.398489885 -159.828806235 822.097850873 -159.828806235 831.744810864 c 0
 -159.828806235 846.831210828 -152.877082093 861.789457479 -139.899433299 871.059206618 c 2
 -27.8994332985 951.059206618 l 2
 -19.62759912 956.967659603 -9.82701377155 959.585189362 -0.271608095267 959.585189362 c 0
 10.1881019025 959.585189362 20.3540296943 956.448780621 27.8994332985 951.059206618 c 2
 139.899433299 871.059206618 l 2
 152.876490926 861.789879741 159.828856473 846.831503479 159.828856473 831.744570913 c 0
 159.828856473 822.097935726 156.986474697 812.398742012 151.059206618 804.100566701 c 0
 141.789457479 791.122917907 126.831210828 784.171193765 111.744810864 784.171193765 c 0
 102.097850873 784.171193765 92.3984898848 787.013705394 84.1005667015 792.940793382 c 2
 -4.26626987706e-14 853.01262674 l 1
 -84.1005667015 792.940793382 l 2
 -92.3987420124 787.013525303 -102.097935726 784.171143527 -111.744570913 784.171143527 c 0
 -126.831503479 784.171143527 -141.789879741 791.123509074 -151.059206618 804.100566701 c 0
EndSplineSet
EndChar

StartChar: uni0308
Encoding: 776 776 101
Width: 0
VWidth: 0
Flags: H
AnchorPoint: "above" 0 720 mark 0
LayerCount: 2
Fore
SplineSet
-96 768 m 0
 -122.144471708 768 -144 789.853633925 -144 816 c 2
 -144 864 l 2
 -144 890.144471708 -122.146366075 912 -96 912 c 0
 -69.8536339246 912 -48 890.144471708 -48 864 c 2
 -48 816 l 2
 -48 789.853633925 -69.8555282921 768 -96 768 c 0
96 768 m 0
 69.8555282921 768 48 789.853633925 48 816 c 2
 48 864 l 2
 48 890.144471708 69.8536339246 912 96 912 c 0
 122.146366075 912 144 890.144471708 144 864 c 2
 144 816 l 2
 144 789.853633925 122.144471708 768 96 768 c 0
EndSplineSet
EndChar

StartChar: uni030A
Encoding: 778 778 102
Width: 0
VWidth: 0
Flags: H
HStem: 816 160<-55.1865 55.1865>
VStem: -80 160<840.814 951.186>
AnchorPoint: "above" 0 720 mark 0
LayerCount: 2
Fore
SplineSet
128 896 m 0
 128 825.419236356 70.581092812 768 0 768 c 0
 -70.5807636442 768 -128 825.418907188 -128 896 c 0
 -128 966.580763644 -70.581092812 1024 0 1024 c 0
 70.5807636442 1024 128 966.581092812 128 896 c 0
32 896 m 0
 32 913.418907188 17.4192363558 928 0 928 c 0
 -17.418907188 928 -32 913.419236356 -32 896 c 0
 -32 878.581092812 -17.4192363558 864 0 864 c 0
 17.418907188 864 32 878.580763644 32 896 c 0
EndSplineSet
EndChar

StartChar: uni0327
Encoding: 807 807 103
Width: 0
VWidth: 0
Flags: H
AnchorPoint: "bottom" 0 40 mark 0
LayerCount: 2
Fore
SplineSet
-112 -200 m 0
 -112 -173.855528292 -90.1463660754 -152 -64 -152 c 0
 -11.6391320217 -152 13.4725793509 -141.10015575 15.7453038265 -138.924500396 c 0
 15.8419430434 -138.509691627 16 -137.661114051 16 -136 c 0
 16 -134.283600706 15.8053411487 -133.333200448 15.7453038265 -133.075499604 c 0
 13.1544621829 -130.595314014 -12.1592915124 -120 -64 -120 c 0
 -90.3548479083 -120 -111.996663789 -97.8655822267 -111.996663789 -71.9101648326 c 0
 -111.996663789 -63.0344390938 -108.535635346 -53.1902688764 -105.675670822 -48.1853309589 c 2
 -41.675670822 63.8146690411 l 2
 -32.9010042862 79.1703354787 -16.4172880176 87.8603341893 0.35765888889 87.8603341893 c 0
 8.38054418537 87.8603341893 16.470045078 85.8725988009 23.8146690411 81.675670822 c 0
 39.1711318504 72.9005492167 47.8602661421 56.416802921 47.8602661421 39.6424473264 c 0
 47.8602661421 31.6193341446 45.8724754325 23.5297390274 41.675670822 16.1853309589 c 2
 14.7271603359 -30.9745623918 l 1
 45.3842254679 -37.7382532386 79.8985342218 -51.8651544726 99.0745556057 -85.3223833709 c 0
 108.010711953 -100.913679521 112 -118.714309766 112 -136 c 0
 112 -153.285690234 108.010711953 -171.086320479 99.0745556057 -186.677616629 c 0
 66.478677725 -243.549046086 -2.26528357398 -248 -64 -248 c 0
 -90.1463660754 -248 -112 -226.144471708 -112 -200 c 0
EndSplineSet
EndChar

StartChar: dieresis
Encoding: 168 168 104
Width: 480
VWidth: 0
Flags: HW
AnchorPoint: "above" 240 544 mark 0
LayerCount: 2
Fore
SplineSet
144 592 m 0
 117.855528292 592 96 613.853633925 96 640 c 2
 96 688 l 2
 96 714.144471708 117.853633925 736 144 736 c 0
 170.146366075 736 192 714.144471708 192 688 c 2
 192 640 l 2
 192 613.853633925 170.144471708 592 144 592 c 0
336 592 m 0
 309.855528292 592 288 613.853633925 288 640 c 2
 288 688 l 2
 288 714.144471708 309.853633925 736 336 736 c 0
 362.146366075 736 384 714.144471708 384 688 c 2
 384 640 l 2
 384 613.853633925 362.144471708 592 336 592 c 0
EndSplineSet
EndChar

StartChar: cedilla
Encoding: 184 184 106
Width: 320
VWidth: 0
Flags: HW
AnchorPoint: "bottom" 160 40 mark 0
LayerCount: 2
Fore
SplineSet
48 -200 m 0
 48 -173.855528292 69.8536339246 -152 96 -152 c 0
 148.360867978 -152 173.472579351 -141.10015575 175.745303826 -138.924500396 c 0
 175.841943043 -138.509691627 176 -137.661114051 176 -136 c 0
 176 -134.283600706 175.805341149 -133.333200448 175.745303826 -133.075499604 c 0
 173.154462183 -130.595314014 147.840708488 -120 96 -120 c 0
 69.6451520917 -120 48.0033362114 -97.8655822267 48.0033362114 -71.9101648326 c 0
 48.0033362114 -63.0344390938 51.4643646537 -53.1902688764 54.324329178 -48.1853309589 c 2
 118.324329178 63.8146690411 l 2
 127.098995714 79.1703354787 143.582711982 87.8603341893 160.357658889 87.8603341893 c 0
 168.380544185 87.8603341893 176.470045078 85.8725988009 183.814669041 81.675670822 c 0
 199.17113185 72.9005492167 207.860266142 56.416802921 207.860266142 39.6424473264 c 0
 207.860266142 31.6193341446 205.872475433 23.5297390274 201.675670822 16.1853309589 c 2
 174.727160336 -30.9745623918 l 1
 205.384225468 -37.7382532386 239.898534222 -51.8651544726 259.074555606 -85.3223833709 c 0
 268.010711953 -100.913679521 272 -118.714309766 272 -136 c 0
 272 -153.285690234 268.010711953 -171.086320479 259.074555606 -186.677616629 c 0
 226.478677725 -243.549046086 157.734716426 -248 96 -248 c 0
 69.8536339246 -248 48 -226.144471708 48 -200 c 0
EndSplineSet
EndChar

StartChar: minus
Encoding: 8722 8722 161
Width: 640
VWidth: 0
Flags: HW
LayerCount: 2
Fore
SplineSet
56 368 m 0
 56 394.144471708 77.8536339246 416 104 416 c 2
 536 416 l 2
 562.144471708 416 584 394.146366075 584 368 c 0
 584 341.853633925 562.144471708 320 536 320 c 2
 104 320 l 2
 77.8536339246 320 56 341.855528292 56 368 c 0
EndSplineSet
EndChar

StartChar: degree
Encoding: 176 176 164
Width: 480
VWidth: 32
Flags: HW
HStem: 432 256<168.45 311.55>
VStem: 112 256<488.45 631.55>
AnchorPoint: "above" 240 336 mark 0
LayerCount: 2
Fore
SplineSet
416 560 m 0
 416 462.579329196 337.423572253 384 240 384 c 0
 142.579329196 384 64 462.576427747 64 560 c 0
 64 657.420670804 142.576427747 736 240 736 c 0
 337.420670804 736 416 657.423572253 416 560 c 0
320 560 m 0
 320 604.576427747 284.579329196 640 240 640 c 0
 195.423572253 640 160 604.579329196 160 560 c 0
 160 515.423572253 195.420670804 480 240 480 c 0
 284.576427747 480 320 515.420670804 320 560 c 0
EndSplineSet
EndChar

StartChar: uni00B2
Encoding: 178 178 165
Width: 528
VWidth: 516
Flags: HW
LayerCount: 2
Fore
SplineSet
108 846 m 0
 81.8555282921 846 60 867.853633925 60 894 c 0
 60 1008.95392748 159.224863755 1062 254 1062 c 0
 358.250300712 1062 447 991.141166593 447 888 c 0
 447 819.707736292 405.439051831 777.880954144 336.562502666 736.760626285 c 0
 214.09790077 663.991804868 177.000343392 642.593627385 165.550006663 576 c 1
 420 576 l 2
 446.144471708 576 468 554.146366075 468 528 c 0
 468 501.853633925 446.144471708 480 420 480 c 2
 114 480 l 2
 93.3985836813 480 66 498.945527317 66 528 c 0
 66 690.117556943 153.568716646 739.694156205 287.480323623 819.26482122 c 0
 352.530104415 858.100511246 351 864.29802658 351 888 c 0
 351 928.858833407 317.749699288 966 254 966 c 0
 186.775136245 966 156 939.046072518 156 894 c 0
 156 867.853633925 134.144471708 846 108 846 c 0
EndSplineSet
EndChar

StartChar: uni00B3
Encoding: 179 179 166
Width: 528
VWidth: 516
Flags: HW
LayerCount: 2
Fore
SplineSet
91.1928520927 649.235459088 m 0
 98.2759133763 653.060312181 105.985592778 654.869042955 113.627169641 654.869042955 c 0
 130.804224739 654.869042955 147.637171856 645.72990204 156.235459088 629.807147907 c 0
 174.729431244 595.559051321 213.255367723 570 262 570 c 0
 331.03005978 570 381 620.214912591 381 672 c 0
 381 730.126034339 343.004558723 777 270 777 c 0
 257.115464127 777 230.21793926 770.051317689 212.087775724 763.144588723 c 0
 206.625087558 761.06356466 200.973835914 760.079818371 195.387393465 760.079818371 c 0
 188.769229329 760.079818371 182.242023222 761.460480831 176.227050824 764.033040115 c 0
 165.12771155 768.764341851 155.75172389 777.55810127 150.782208384 789.324162547 c 0
 150.670839256 789.587845333 150.562083233 789.852073723 150.455927251 790.116817192 c 0
 150.349918959 790.380540896 150.246129908 790.645681093 150.144588723 790.912224276 c 0
 148.063497523 796.375088676 147.079751809 802.026358122 147.079751809 807.612727239 c 0
 147.079751809 814.231009861 148.460499149 820.758200897 151.033097071 826.773097352 c 0
 155.764210822 837.872106105 164.557626872 847.248075679 176.324162547 852.217791616 c 0
 248.419424164 882.667964225 285.697851262 926.645332974 305.285119837 960 c 1
 99 960 l 2
 72.8555282921 960 51 981.853633925 51 1008 c 0
 51 1034.14636608 72.8555282921 1056 99 1056 c 2
 375 1056 l 2
 395.720083686 1056 422.991355419 1036.43586184 422.991355419 1007.7989115 c 0
 422.991355419 1005.60776596 422.831696088 1003.36350376 422.49722652 1001.07082452 c 0
 421.794125115 996.251294863 410.593477276 927.311380642 349.655255929 858.908339015 c 1
 428.667396337 828.941059838 477 754.816665857 477 672 c 0
 477 557.785087409 374.96994022 474 262 474 c 0
 178.744632277 474 107.270568756 518.440948679 71.7645409125 584.192852093 c 0
 67.9395750339 591.276122238 66.1308868766 598.985725966 66.1308868766 606.6270993 c 0
 66.1308868766 623.804763299 75.2709472634 640.63763048 91.1928520927 649.235459088 c 0
EndSplineSet
EndChar

StartChar: uni00B9
Encoding: 185 185 167
Width: 288
VWidth: 492
Flags: HW
LayerCount: 2
Fore
SplineSet
144 1056 m 0
 170.144471708 1056 192 1034.14636608 192 1008 c 2
 192 528 l 2
 192 501.855528292 170.146366075 480 144 480 c 0
 117.853633925 480 96 501.855528292 96 528 c 2
 96 1008 l 2
 96 1034.14636608 117.855528292 1056 144 1056 c 0
EndSplineSet
EndChar

StartChar: minute
Encoding: 8242 8242 168
Width: 256
VWidth: 0
Flags: HW
LayerCount: 2
Fore
SplineSet
151.298744844 735.441841487 m 0
 174.758579673 731.832636129 191.985511273 710.957952322 191.985511273 687.804561942 c 0
 191.985511273 685.455037783 191.808117418 683.082048707 191.441841487 680.701255156 c 2
 159.441841487 472.701255156 l 2
 155.832636129 449.241420327 134.957952321 432.014488727 111.804561942 432.014488727 c 0
 109.455037783 432.014488727 107.082048707 432.191882582 104.701255156 432.558158513 c 0
 81.2397873034 436.167615105 64.0145110639 457.043520191 64.0145110639 480.195673421 c 0
 64.0145110639 482.54514467 64.1918988399 484.91805697 64.5581585128 487.298744844 c 2
 96.5581585128 695.298744844 l 2
 100.167615105 718.760212697 121.043520191 735.985488936 144.195673421 735.985488936 c 0
 146.54514467 735.985488936 148.91805697 735.80810116 151.298744844 735.441841487 c 0
EndSplineSet
EndChar

StartChar: second
Encoding: 8243 8243 169
Width: 416
VWidth: 0
Flags: HW
LayerCount: 2
Fore
SplineSet
311.298744844 735.441841487 m 0
 334.758579673 731.832636129 351.985511273 710.957952322 351.985511273 687.804561942 c 0
 351.985511273 685.455037783 351.808117418 683.082048707 351.441841487 680.701255156 c 2
 319.441841487 472.701255156 l 2
 315.832636129 449.241420327 294.957952321 432.014488727 271.804561942 432.014488727 c 0
 269.455037783 432.014488727 267.082048707 432.191882582 264.701255156 432.558158513 c 0
 241.239787303 436.167615105 224.014511064 457.043520191 224.014511064 480.195673421 c 0
 224.014511064 482.54514467 224.19189884 484.91805697 224.558158513 487.298744844 c 2
 256.558158513 695.298744844 l 2
 260.167615105 718.760212697 281.043520191 735.985488936 304.195673421 735.985488936 c 0
 306.54514467 735.985488936 308.91805697 735.80810116 311.298744844 735.441841487 c 0
151.298744844 735.441841487 m 0
 174.758579673 731.832636129 191.985511273 710.957952322 191.985511273 687.804561942 c 0
 191.985511273 685.455037783 191.808117418 683.082048707 191.441841487 680.701255156 c 2
 159.441841487 472.701255156 l 2
 155.832636129 449.241420327 134.957952321 432.014488727 111.804561942 432.014488727 c 0
 109.455037783 432.014488727 107.082048707 432.191882582 104.701255156 432.558158513 c 0
 81.2397873034 436.167615105 64.0145110639 457.043520191 64.0145110639 480.195673421 c 0
 64.0145110639 482.54514467 64.1918988399 484.91805697 64.5581585128 487.298744844 c 2
 96.5581585128 695.298744844 l 2
 100.167615105 718.760212697 121.043520191 735.985488936 144.195673421 735.985488936 c 0
 146.54514467 735.985488936 148.91805697 735.80810116 151.298744844 735.441841487 c 0
EndSplineSet
EndChar

StartChar: uni2034
Encoding: 8244 8244 170
Width: 576
VWidth: 0
Flags: HW
LayerCount: 2
Fore
SplineSet
471.298744844 735.441841487 m 0
 494.758579673 731.832636129 511.985511273 710.957952322 511.985511273 687.804561942 c 0
 511.985511273 685.455037783 511.808117418 683.082048707 511.441841487 680.701255156 c 2
 479.441841487 472.701255156 l 2
 475.832636129 449.241420327 454.957952321 432.014488727 431.804561942 432.014488727 c 0
 429.455037783 432.014488727 427.082048707 432.191882582 424.701255156 432.558158513 c 0
 401.239787303 436.167615105 384.014511064 457.043520191 384.014511064 480.195673421 c 0
 384.014511064 482.54514467 384.19189884 484.91805697 384.558158513 487.298744844 c 2
 416.558158513 695.298744844 l 2
 420.167615105 718.760212697 441.043520191 735.985488936 464.195673421 735.985488936 c 0
 466.54514467 735.985488936 468.91805697 735.80810116 471.298744844 735.441841487 c 0
311.298744844 735.441841487 m 0
 334.758579673 731.832636129 351.985511273 710.957952322 351.985511273 687.804561942 c 0
 351.985511273 685.455037783 351.808117418 683.082048707 351.441841487 680.701255156 c 2
 319.441841487 472.701255156 l 2
 315.832636129 449.241420327 294.957952321 432.014488727 271.804561942 432.014488727 c 0
 269.455037783 432.014488727 267.082048707 432.191882582 264.701255156 432.558158513 c 0
 241.239787303 436.167615105 224.014511064 457.043520191 224.014511064 480.195673421 c 0
 224.014511064 482.54514467 224.19189884 484.91805697 224.558158513 487.298744844 c 2
 256.558158513 695.298744844 l 2
 260.167615105 718.760212697 281.043520191 735.985488936 304.195673421 735.985488936 c 0
 306.54514467 735.985488936 308.91805697 735.80810116 311.298744844 735.441841487 c 0
151.298744844 735.441841487 m 0
 174.758579673 731.832636129 191.985511273 710.957952322 191.985511273 687.804561942 c 0
 191.985511273 685.455037783 191.808117418 683.082048707 191.441841487 680.701255156 c 2
 159.441841487 472.701255156 l 2
 155.832636129 449.241420327 134.957952321 432.014488727 111.804561942 432.014488727 c 0
 109.455037783 432.014488727 107.082048707 432.191882582 104.701255156 432.558158513 c 0
 81.2397873034 436.167615105 64.0145110639 457.043520191 64.0145110639 480.195673421 c 0
 64.0145110639 482.54514467 64.1918988399 484.91805697 64.5581585128 487.298744844 c 2
 96.5581585128 695.298744844 l 2
 100.167615105 718.760212697 121.043520191 735.985488936 144.195673421 735.985488936 c 0
 146.54514467 735.985488936 148.91805697 735.80810116 151.298744844 735.441841487 c 0
EndSplineSet
EndChar

StartChar: uni00AD
Encoding: 173 173 171
Width: 416
VWidth: 32
Flags: HW
LayerCount: 2
Fore
SplineSet
32 264 m 0
 32 290.144471708 53.8536339246 312 80 312 c 2
 336 312 l 2
 362.144471708 312 384 290.146366075 384 264 c 0
 384 237.853633925 362.144471708 216 336 216 c 2
 80 216 l 2
 53.8536339246 216 32 237.855528292 32 264 c 0
EndSplineSet
EndChar

StartChar: endash
Encoding: 8211 8211 173
Width: 512
VWidth: 0
Flags: HW
LayerCount: 2
Fore
SplineSet
0 264 m 0
 0 290.144471708 21.8536339246 312 48 312 c 2
 464 312 l 2
 490.144471708 312 512 290.146366075 512 264 c 0
 512 237.853633925 490.144471708 216 464 216 c 2
 48 216 l 2
 21.8536339246 216 0 237.855528292 0 264 c 0
EndSplineSet
EndChar

StartChar: emdash
Encoding: 8212 8212 174
Width: 1024
VWidth: 0
Flags: H
LayerCount: 2
Fore
SplineSet
0 264 m 0
 0 290.144471708 21.8536339246 312 48 312 c 2
 976 312 l 2
 1002.14447171 312 1024 290.146366075 1024 264 c 0
 1024 237.853633925 1002.14447171 216 976 216 c 2
 48 216 l 2
 21.8536339246 216 0 237.855528292 0 264 c 0
EndSplineSet
EndChar

StartChar: figuredash
Encoding: 8210 8210 190
Width: 672
VWidth: 0
Flags: HW
LayerCount: 2
Fore
SplineSet
0 368 m 0
 0 394.144471708 21.8536339246 416 48 416 c 2
 624 416 l 2
 650.144471708 416 672 394.146366075 672 368 c 0
 672 341.853633925 650.144471708 320 624 320 c 2
 48 320 l 2
 21.8536339246 320 0 341.855528292 0 368 c 0
EndSplineSet
EndChar

StartChar: uni2057
Encoding: 8279 8279 191
Width: 736
VWidth: 0
Flags: HW
LayerCount: 2
Fore
SplineSet
631.298744844 735.441841487 m 0
 654.758579673 731.832636129 671.985511273 710.957952322 671.985511273 687.804561942 c 0
 671.985511273 685.455037783 671.808117418 683.082048707 671.441841487 680.701255156 c 2
 639.441841487 472.701255156 l 2
 635.832636129 449.241420327 614.957952322 432.014488727 591.804561942 432.014488727 c 0
 589.455037783 432.014488727 587.082048707 432.191882582 584.701255156 432.558158513 c 0
 561.239787303 436.167615105 544.014511064 457.043520191 544.014511064 480.195673421 c 0
 544.014511064 482.54514467 544.19189884 484.91805697 544.558158513 487.298744844 c 2
 576.558158513 695.298744844 l 2
 580.167615105 718.760212697 601.043520191 735.985488936 624.195673421 735.985488936 c 0
 626.54514467 735.985488936 628.91805697 735.80810116 631.298744844 735.441841487 c 0
471.298744844 735.441841487 m 0
 494.758579673 731.832636129 511.985511273 710.957952322 511.985511273 687.804561942 c 0
 511.985511273 685.455037783 511.808117418 683.082048707 511.441841487 680.701255156 c 2
 479.441841487 472.701255156 l 2
 475.832636129 449.241420327 454.957952321 432.014488727 431.804561942 432.014488727 c 0
 429.455037783 432.014488727 427.082048707 432.191882582 424.701255156 432.558158513 c 0
 401.239787303 436.167615105 384.014511064 457.043520191 384.014511064 480.195673421 c 0
 384.014511064 482.54514467 384.19189884 484.91805697 384.558158513 487.298744844 c 2
 416.558158513 695.298744844 l 2
 420.167615105 718.760212697 441.043520191 735.985488936 464.195673421 735.985488936 c 0
 466.54514467 735.985488936 468.91805697 735.80810116 471.298744844 735.441841487 c 0
311.298744844 735.441841487 m 0
 334.758579673 731.832636129 351.985511273 710.957952322 351.985511273 687.804561942 c 0
 351.985511273 685.455037783 351.808117418 683.082048707 351.441841487 680.701255156 c 2
 319.441841487 472.701255156 l 2
 315.832636129 449.241420327 294.957952321 432.014488727 271.804561942 432.014488727 c 0
 269.455037783 432.014488727 267.082048707 432.191882582 264.701255156 432.558158513 c 0
 241.239787303 436.167615105 224.014511064 457.043520191 224.014511064 480.195673421 c 0
 224.014511064 482.54514467 224.19189884 484.91805697 224.558158513 487.298744844 c 2
 256.558158513 695.298744844 l 2
 260.167615105 718.760212697 281.043520191 735.985488936 304.195673421 735.985488936 c 0
 306.54514467 735.985488936 308.91805697 735.80810116 311.298744844 735.441841487 c 0
151.298744844 735.441841487 m 0
 174.758579673 731.832636129 191.985511273 710.957952322 191.985511273 687.804561942 c 0
 191.985511273 685.455037783 191.808117418 683.082048707 191.441841487 680.701255156 c 2
 159.441841487 472.701255156 l 2
 155.832636129 449.241420327 134.957952321 432.014488727 111.804561942 432.014488727 c 0
 109.455037783 432.014488727 107.082048707 432.191882582 104.701255156 432.558158513 c 0
 81.2397873034 436.167615105 64.0145110639 457.043520191 64.0145110639 480.195673421 c 0
 64.0145110639 482.54514467 64.1918988399 484.91805697 64.5581585128 487.298744844 c 2
 96.5581585128 695.298744844 l 2
 100.167615105 718.760212697 121.043520191 735.985488936 144.195673421 735.985488936 c 0
 146.54514467 735.985488936 148.91805697 735.80810116 151.298744844 735.441841487 c 0
EndSplineSet
EndChar

StartChar: copyright
Encoding: 169 169 192
Width: 736
VWidth: 0
Flags: HW
HStem: 48 640<250.702 485.298>
VStem: 48 640<250.702 485.298>
LayerCount: 2
Fore
SplineSet
736 368 m 0
 736 164.525965507 571.474108993 0 368 0 c 0
 164.525965507 0 0 164.525891007 0 368 c 0
 0 571.474034493 164.525891007 736 368 736 c 0
 571.474034493 736 736 571.474108993 736 368 c 0
640 368 m 0
 640 518.525891007 518.525965507 640 368 640 c 0
 217.474108993 640 96 518.525965507 96 368 c 0
 96 217.474108993 217.474034493 96 368 96 c 0
 518.525891007 96 640 217.474034493 640 368 c 0
466 332 m 0
 492.144471708 332 514 310.146366075 514 284 c 0
 514 245.432789692 469.415911658 156 368 156 c 0
 262.357791468 156 196 261.79084338 196 368 c 0
 196 474.212821935 262.355313482 580 368 580 c 0
 469.61738762 580 501.769484 492.017651453 503.271913001 487.970963122 c 0
 505.052178685 482.648345739 505.893150273 477.288137345 505.893150273 472.056087029 c 0
 505.893150273 452.121521604 493.684966887 434.047396347 474.706829639 427.00131287 c 0
 469.181683043 424.94997118 463.493781332 423.95243339 457.88071891 423.95243339 c 0
 439.146966769 423.95243339 421.246856367 435.064098734 413.013442028 455.195622498 c 0
 411.281583902 459.194989737 399.308888563 484 368 484 c 0
 337.644686518 484 292 443.787178065 292 368 c 0
 292 292.20915662 337.642208532 252 368 252 c 0
 394.393234875 252 413.054302146 276.539107533 418.426307396 290.517881603 c 0
 422.232849499 313.57376711 441.67760251 332 466 332 c 0
EndSplineSet
EndChar

StartChar: registered
Encoding: 174 174 193
Width: 736
VWidth: 0
Flags: HW
HStem: 48 640<250.702 485.298>
VStem: 48 640<250.702 485.298>
LayerCount: 2
Fore
SplineSet
312 424 m 1
 396 424 l 2
 431.549358507 424 436 429.935011941 436 452 c 0
 436 473.753834997 431.55322655 480 396 480 c 2
 312 480 l 1
 312 424 l 1
312 328 m 1
 312 208 l 2
 312 181.853633925 290.144471708 160 264 160 c 0
 237.855528292 160 216 181.853633925 216 208 c 2
 216 376 l 1
 216 528 l 2
 216 557.054472683 243.398583681 576 264 576 c 2
 396 576 l 2
 456.44677345 576 532 542.246165003 532 452 c 0
 532 398.544975472 505.309896736 364.827732129 470.964029124 346.269635071 c 1
 522.118961441 226.908126332 l 2
 524.690321785 220.908285529 525.904199097 214.617763761 525.904199097 208.395406952 c 0
 525.904199097 189.694175689 514.939281465 171.608676473 496.908126332 163.881038559 c 0
 490.908471419 161.309757882 484.617940873 160.09587127 478.395471721 160.09587127 c 0
 459.694936444 160.09587127 441.609129758 171.059660871 433.881038559 189.091873668 c 2
 374.348984417 328 l 1
 312 328 l 1
736 368 m 0
 736 164.525965507 571.474108993 0 368 0 c 0
 164.525965507 0 0 164.525891007 0 368 c 0
 0 571.474034493 164.525891007 736 368 736 c 0
 571.474034493 736 736 571.474108993 736 368 c 0
640 368 m 0
 640 518.525891007 518.525965507 640 368 640 c 0
 217.474108993 640 96 518.525965507 96 368 c 0
 96 217.474108993 217.474034493 96 368 96 c 0
 518.525891007 96 640 217.474034493 640 368 c 0
EndSplineSet
EndChar

StartChar: brokenbar
Encoding: 166 166 194
Width: 288
VWidth: 0
Flags: HW
LayerCount: 2
Fore
SplineSet
144 320 m 0
 170.144471708 320 192 298.146366075 192 272 c 2
 192 -32 l 2
 192 -58.1444717079 170.146366075 -80 144 -80 c 0
 117.853633925 -80 96 -58.1444717079 96 -32 c 2
 96 272 l 2
 96 298.146366075 117.855528292 320 144 320 c 0
144 816 m 0
 170.144471708 816 192 794.146366075 192 768 c 2
 192 464 l 2
 192 437.855528292 170.146366075 416 144 416 c 0
 117.853633925 416 96 437.855528292 96 464 c 2
 96 768 l 2
 96 794.146366075 117.855528292 816 144 816 c 0
EndSplineSet
EndChar

StartChar: plusminus
Encoding: 177 177 195
Width: 640
VWidth: 0
Flags: HW
LayerCount: 2
Fore
SplineSet
584 56 m 0
 584 29.8555282921 562.146366075 8 536 8 c 2
 104 8 l 2
 77.8555282921 8 56 29.8536339246 56 56 c 0
 56 82.1463660754 77.8555282921 104 104 104 c 2
 536 104 l 2
 562.146366075 104 584 82.1444717079 584 56 c 0
584 464 m 0
 584 437.855528292 562.146366075 416 536 416 c 2
 368 416 l 1
 368 248 l 2
 368 221.855528292 346.146366075 200 320 200 c 0
 293.853633925 200 272 221.855528292 272 248 c 2
 272 416 l 1
 104 416 l 2
 77.8555282921 416 56 437.853633925 56 464 c 0
 56 490.146366075 77.8555282921 512 104 512 c 2
 272 512 l 1
 272 680 l 2
 272 706.146366075 293.855528292 728 320 728 c 0
 346.144471708 728 368 706.146366075 368 680 c 2
 368 512 l 1
 536 512 l 2
 562.146366075 512 584 490.144471708 584 464 c 0
EndSplineSet
EndChar

StartChar: divide
Encoding: 247 247 196
Width: 640
VWidth: 0
Flags: HW
HStem: 128 48<297.906 342.094> 560 48<297.906 342.094>
VStem: 296 48<129.906 174.094 561.906 606.094>
LayerCount: 2
Fore
SplineSet
392 160 m 0
 392 115.711371998 356.27566836 80 312 80 c 0
 275.711554458 80 248 107.711554458 248 144 c 0
 248 188.288628002 283.72433164 224 328 224 c 0
 364.288445542 224 392 196.288445542 392 160 c 0
392 592 m 0
 392 547.711371998 356.27566836 512 312 512 c 0
 275.711554458 512 248 539.711554458 248 576 c 0
 248 620.288628002 283.72433164 656 328 656 c 0
 364.288445542 656 392 628.288445542 392 592 c 0
56 368 m 0
 56 394.144471708 77.8536339246 416 104 416 c 2
 536 416 l 2
 562.144471708 416 584 394.146366075 584 368 c 0
 584 341.853633925 562.144471708 320 536 320 c 2
 104 320 l 2
 77.8536339246 320 56 341.855528292 56 368 c 0
EndSplineSet
EndChar

StartChar: uni2070
Encoding: 8304 8304 197
Width: 528
VWidth: 516
Flags: HW
HStem: 522 492<200.047 327.953>
VStem: 78 372<666.762 869.238>
LayerCount: 2
Fore
SplineSet
498 768 m 0
 498 617.018324548 404.754431694 474 264 474 c 0
 123.249372221 474 30 617.023637075 30 768 c 0
 30 918.981675452 123.245568306 1062 264 1062 c 0
 404.750627779 1062 498 918.976362925 498 768 c 0
402 768 m 0
 402 889.023637075 329.249372221 966 264 966 c 0
 198.754431694 966 126 889.018324548 126 768 c 0
 126 646.976362925 198.750627779 570 264 570 c 0
 329.245568306 570 402 646.981675452 402 768 c 0
EndSplineSet
EndChar

StartChar: uni2074
Encoding: 8308 8308 198
Width: 528
VWidth: 516
Flags: HW
LayerCount: 2
Fore
SplineSet
324 742 m 1
 324 930.466075578 l 1
 160.425670253 742 l 1
 324 742 l 1
504 694 m 0
 504 667.855528292 482.146366075 646 456 646 c 2
 420 646 l 1
 420 526 l 2
 420 499.855528292 398.146366075 478 372 478 c 0
 345.853633925 478 324 499.855528292 324 526 c 2
 324 646 l 1
 96 646 l 2
 66.9455273174 646 48 673.398583681 48 694 c 2
 48 707 l 1
 48 741 l 2
 48 752.546171537 52.533302858 764.148382063 59.7495009662 772.462697275 c 2
 289.749500966 1037.46269727 l 2
 298.9184206 1048.02688729 313.117825681 1054 326 1054 c 2
 356 1054 l 1
 372 1054 l 2
 401.054472683 1054 420 1026.60141632 420 1006 c 2
 420 742 l 1
 456 742 l 2
 482.146366075 742 504 720.144471708 504 694 c 0
EndSplineSet
EndChar

StartChar: uni2075
Encoding: 8309 8309 199
Width: 528
VWidth: 492
Flags: HW
LayerCount: 2
Fore
SplineSet
85.2432084943 651.262612796 m 0
 92.3129803244 655.069413012 100.003827828 656.869487723 107.626509894 656.869487723 c 0
 124.823576802 656.869487723 141.673701315 647.707627114 150.262612796 631.756791506 c 0
 170.13297328 594.854693464 209.115355474 570 254 570 c 0
 319.045231889 570 372 622.94033001 372 690 c 0
 372 757.059644338 319.045279137 810 254 810 c 0
 214.559561473 810 177.972964518 792.878769612 150.444316914 760.762014074 c 0
 141.036202807 749.785880949 127.494379344 744.220649823 113.932032204 744.220649823 c 0
 101.609611737 744.220649823 89.2702487697 748.814803731 79.9989905314 758.118864318 c 0
 69.2643436269 768.891491141 65.0779899676 786.360396339 66.2935807357 797.300713252 c 2
 90.2935807357 1013.30071325 l 2
 93.0777041055 1038.35782358 116.021953669 1056 138 1056 c 2
 378 1056 l 2
 404.144471708 1056 426 1034.14636608 426 1008 c 0
 426 981.853633925 404.144471708 960 378 960 c 2
 180.96205407 960 l 1
 173.318939397 891.21196794 l 1
 197.709686187 900.429763679 225.998220033 906 254 906 c 0
 372.954720863 906 468 808.940355662 468 690 c 0
 468 571.05966999 372.954768111 474 254 474 c 0
 172.884644526 474 101.86702672 519.145306536 65.7373872037 586.243208494 c 0
 61.9304747044 593.31318885 60.1304420252 601.003961601 60.1304420252 608.626441353 c 0
 60.1304420252 625.824118084 69.2932248515 642.674160066 85.2432084943 651.262612796 c 0
EndSplineSet
EndChar

StartChar: uni2076
Encoding: 8310 8310 200
Width: 528
VWidth: 492
Flags: HW
LayerCount: 2
Fore
SplineSet
171.961213444 643.029725031 m 0
 201.001249172 583.874843935 249.656996362 570 280 570 c 0
 353.62035226 570 386 617.367646121 386 658 c 0
 386 697.7808799 342.698871886 747 274 747 c 0
 205.265604897 747 172 721.345697695 172 645 c 0
 172 644 172 644.214531738 171.961213444 643.029725031 c 0
150.083081419 807.711863717 m 1
 185.497900989 832.775574757 228.783165942 843 274 843 c 0
 385.301128114 843 482 762.2191201 482 658 c 0
 482 562.632353879 402.37964774 474 280 474 c 0
 202.511260317 474 81.5556474122 526.999139363 56.7282590252 698.609275215 c 0
 53.6282467363 720.036963127 52 743.120016238 52 768 c 0
 52 984.48073916 193.760220258 1062 280 1062 c 0
 386.311899842 1062 434.892087695 994.134052245 440.275393568 986.124896361 c 0
 445.165092486 978.309392913 447.617497144 969.220684366 447.617497144 960.121770562 c 0
 447.617497144 944.833996449 440.69438216 929.517412994 426.776481764 920.162580099 c 0
 418.661202266 914.70794388 409.596510813 912.181345298 400.632232016 912.181345298 c 0
 385.068618194 912.181345298 369.807680825 919.79733644 360.343589025 932.928421065 c 0
 358.662829368 935.146330716 334.850987109 966 280 966 c 0
 248.380056469 966 164.91046213 938.93985742 150.083081419 807.711863717 c 1
EndSplineSet
EndChar

StartChar: uni2077
Encoding: 8311 8311 201
Width: 528
VWidth: 492
Flags: HW
LayerCount: 2
Fore
SplineSet
42 1008 m 0
 42 1034.14447171 63.8536339246 1056 90 1056 c 2
 426 1056 l 2
 455.054472683 1056 474 1028.60141632 474 1008 c 2
 474 964 l 2
 474 945.961671596 462.199656074 929.404475116 449.563546953 922.182822229 c 0
 445.110183137 919.645411861 270 819.520678104 270 552 c 2
 270 528 l 2
 270 501.855528292 248.146366075 480 222 480 c 0
 195.853633925 480 174 501.855528292 174 528 c 2
 174 552 l 2
 174 768.390837633 273.534124808 897.906358551 341.512502475 960 c 1
 90 960 l 2
 63.8536339246 960 42 981.855528292 42 1008 c 0
EndSplineSet
EndChar

StartChar: uni2078
Encoding: 8312 8312 202
Width: 528
VWidth: 492
Flags: HW
LayerCount: 2
Fore
SplineSet
202.621322464 742.586848599 m 1
 179.938239669 730.338703009 147 704.562444181 147 663 c 0
 147 624.374951266 188.042390676 570 264 570 c 0
 351.019331434 570 381 616.82853821 381 654 c 0
 381 678.891731215 367.014394401 707.804458434 330.577305673 723.361295029 c 0
 315.828064129 729.658492434 296.665314089 734 272 734 c 0
 247.814007598 734 224.350088565 736.984444797 202.621322464 742.586848599 c 1
412.512953115 785.37848673 m 1
 455.299410637 751.037529995 477 701.674349891 477 654 c 0
 477 555.17146179 390.980668566 474 264 474 c 0
 141.957609324 474 51 563.625048734 51 663 c 0
 51 722.745316552 80.894998408 766.549721849 109.466483003 793.195330574 c 1
 81.3435144565 820.95532307 63 858.79722864 63 900 c 0
 63 999.998391302 160.17089595 1062 264 1062 c 0
 361.197197016 1062 465 1001.78339707 465 900 c 0
 465 849.256011706 436.435375674 810.712122374 412.512953115 785.37848673 c 1
314.779796933 826.769159624 m 1
 339.780175374 845.412692527 369 879.409390962 369 900 c 0
 369 924.216602926 332.802802984 966 264 966 c 0
 189.82910405 966 159 926.001608698 159 900 c 0
 159 881.477724951 169.399675237 861.981331456 197.249890634 846.913039644 c 0
 215.749123301 836.904074466 241.316038335 830 272 830 c 0
 286.601423597 830 301.164694214 828.860602063 314.779796933 826.769159624 c 1
EndSplineSet
EndChar

StartChar: uni2079
Encoding: 8313 8313 203
Width: 528
VWidth: 492
Flags: HW
LayerCount: 2
Fore
SplineSet
356.038786556 892.970274969 m 0
 326.998750828 952.125156065 278.343003638 966 248 966 c 0
 174.37964774 966 142 918.632353879 142 878 c 0
 142 838.2191201 185.301128114 789 254 789 c 0
 322.734395103 789 356 814.654302305 356 891 c 0
 356 892 356 891.785468262 356.038786556 892.970274969 c 0
377.916918581 728.288136283 m 1
 342.502099011 703.224425243 299.216834058 693 254 693 c 0
 142.698871886 693 46 773.7808799 46 878 c 0
 46 973.367646121 125.62035226 1062 248 1062 c 0
 325.488739683 1062 446.444352588 1009.00086064 471.271740975 837.390724785 c 0
 474.371753264 815.963036873 476 792.879983762 476 768 c 0
 476 551.51926084 334.239779742 474 248 474 c 0
 141.688100158 474 93.1079123047 541.865947755 87.7246064323 549.875103639 c 0
 82.8349075139 557.690607087 80.3825028562 566.779315634 80.3825028562 575.878229438 c 0
 80.3825028562 591.166003551 87.3056178404 606.482587006 101.223518236 615.837419901 c 0
 109.338797734 621.29205612 118.403489187 623.818654702 127.367767984 623.818654702 c 0
 142.931381806 623.818654702 158.192319175 616.20266356 167.656410975 603.071578935 c 0
 169.337170632 600.853669284 193.149012891 570 248 570 c 0
 279.619943531 570 363.08953787 597.06014258 377.916918581 728.288136283 c 1
EndSplineSet
EndChar

StartChar: uni2080
Encoding: 8320 8320 204
Width: 528
VWidth: -284
Flags: HW
HStem: -278 492<200.047 327.953>
VStem: 78 372<-133.238 69.238>
LayerCount: 2
Fore
SplineSet
498 -32 m 0
 498 -182.981675452 404.754431694 -326 264 -326 c 0
 123.249372221 -326 30 -182.976362925 30 -32 c 0
 30 118.981675452 123.245568306 262 264 262 c 0
 404.750627779 262 498 118.976362925 498 -32 c 0
402 -32 m 0
 402 89.0236370751 329.249372221 166 264 166 c 0
 198.754431694 166 126 89.0183245479 126 -32 c 0
 126 -153.023637075 198.750627779 -230 264 -230 c 0
 329.245568306 -230 402 -153.018324548 402 -32 c 0
EndSplineSet
EndChar

StartChar: uni2081
Encoding: 8321 8321 205
Width: 288
VWidth: -308
Flags: HW
LayerCount: 2
Fore
SplineSet
144 256 m 0
 170.144471708 256 192 234.146366075 192 208 c 2
 192 -272 l 2
 192 -298.144471708 170.146366075 -320 144 -320 c 0
 117.853633925 -320 96 -298.144471708 96 -272 c 2
 96 208 l 2
 96 234.146366075 117.855528292 256 144 256 c 0
EndSplineSet
EndChar

StartChar: uni2082
Encoding: 8322 8322 206
Width: 528
VWidth: -284
Flags: HW
LayerCount: 2
Fore
SplineSet
108 46 m 0
 81.8555282921 46 60 67.8536339246 60 94 c 0
 60 208.953927482 159.224863755 262 254 262 c 0
 358.250300712 262 447 191.141166593 447 88 c 0
 447 19.7077362923 405.439051831 -22.1190458558 336.562502666 -63.2393737152 c 0
 214.09790077 -136.008195132 177.000343392 -157.406372615 165.550006663 -224 c 1
 420 -224 l 2
 446.144471708 -224 468 -245.853633925 468 -272 c 0
 468 -298.146366075 446.144471708 -320 420 -320 c 2
 114 -320 l 2
 93.3985836813 -320 66 -301.054472683 66 -272 c 0
 66 -109.882443057 153.568716646 -60.3058437949 287.480323623 19.2648212204 c 0
 352.530104415 58.1005112457 351 64.2980265803 351 88 c 0
 351 128.858833407 317.749699288 166 254 166 c 0
 186.775136245 166 156 139.046072518 156 94 c 0
 156 67.8536339246 134.144471708 46 108 46 c 0
EndSplineSet
EndChar

StartChar: uni2083
Encoding: 8323 8323 207
Width: 528
VWidth: -284
Flags: HW
LayerCount: 2
Fore
SplineSet
91.1928520927 -150.764540912 m 0
 98.2759133763 -146.939687819 105.985592778 -145.130957045 113.627169641 -145.130957045 c 0
 130.804224739 -145.130957045 147.637171856 -154.27009796 156.235459088 -170.192852093 c 0
 174.729431244 -204.440948679 213.255367723 -230 262 -230 c 0
 331.03005978 -230 381 -179.785087409 381 -128 c 0
 381 -69.8739656612 343.004558723 -23 270 -23 c 0
 257.115464127 -23 230.21793926 -29.9486823107 212.087775724 -36.8554112766 c 0
 206.625087558 -38.9364353399 200.973835914 -39.9201816288 195.387393465 -39.9201816288 c 0
 188.769229329 -39.9201816288 182.242023222 -38.539519169 176.227050824 -35.9669598853 c 0
 165.12771155 -31.2356581493 155.75172389 -22.4418987298 150.782208384 -10.6758374529 c 0
 150.670839256 -10.4121546666 150.562083233 -10.1479262768 150.455927251 -9.8831828086 c 0
 150.349918959 -9.61945910419 150.246129908 -9.3543189068 150.144588723 -9.08777572442 c 0
 148.063497523 -3.62491132418 147.079751809 2.02635812214 147.079751809 7.61272723864 c 0
 147.079751809 14.2310098609 148.460499149 20.7582008966 151.033097071 26.7730973519 c 0
 155.764210822 37.8721061047 164.557626872 47.2480756793 176.324162547 52.2177916164 c 0
 248.419424164 82.6679642247 285.697851262 126.645332974 305.285119837 160 c 1
 99 160 l 2
 72.8555282921 160 51 181.853633925 51 208 c 0
 51 234.146366075 72.8555282921 256 99 256 c 2
 375 256 l 2
 395.720083686 256 422.991355419 236.435861836 422.991355419 207.798911496 c 0
 422.991355419 205.607765963 422.831696088 203.363503759 422.49722652 201.070824518 c 0
 421.794125115 196.251294863 410.593477276 127.311380642 349.655255929 58.9083390148 c 1
 428.667396337 28.941059838 477 -45.1833341433 477 -128 c 0
 477 -242.214912591 374.96994022 -326 262 -326 c 0
 178.744632277 -326 107.270568756 -281.559051321 71.7645409125 -215.807147907 c 0
 67.9395750339 -208.723877762 66.1308868766 -201.014274034 66.1308868766 -193.3729007 c 0
 66.1308868766 -176.195236701 75.2709472634 -159.36236952 91.1928520927 -150.764540912 c 0
EndSplineSet
EndChar

StartChar: uni2084
Encoding: 8324 8324 208
Width: 528
VWidth: -284
Flags: HW
LayerCount: 2
Fore
SplineSet
324 -58 m 1
 324 130.466075578 l 1
 160.425670253 -58 l 1
 324 -58 l 1
504 -106 m 0
 504 -132.144471708 482.146366075 -154 456 -154 c 2
 420 -154 l 1
 420 -274 l 2
 420 -300.144471708 398.146366075 -322 372 -322 c 0
 345.853633925 -322 324 -300.144471708 324 -274 c 2
 324 -154 l 1
 96 -154 l 2
 66.9455273174 -154 48 -126.601416319 48 -106 c 2
 48 -93 l 1
 48 -59 l 2
 48 -47.4538284629 52.533302858 -35.8516179369 59.7495009662 -27.5373027253 c 2
 289.749500966 237.462697275 l 2
 298.9184206 248.026887288 313.117825681 254 326 254 c 2
 356 254 l 1
 372 254 l 2
 401.054472683 254 420 226.601416319 420 206 c 2
 420 -58 l 1
 456 -58 l 2
 482.146366075 -58 504 -79.8555282921 504 -106 c 0
EndSplineSet
EndChar

StartChar: uni2085
Encoding: 8325 8325 209
Width: 528
VWidth: -308
Flags: HW
LayerCount: 2
Fore
SplineSet
85.2432084943 -148.737387204 m 0
 92.3129803244 -144.930586988 100.003827828 -143.130512277 107.626509894 -143.130512277 c 0
 124.823576802 -143.130512277 141.673701315 -152.292372886 150.262612796 -168.243208494 c 0
 170.13297328 -205.145306536 209.115355474 -230 254 -230 c 0
 319.045231889 -230 372 -177.05966999 372 -110 c 0
 372 -42.9403556623 319.045279137 10 254 10 c 0
 214.559561473 10 177.972964518 -7.12123038763 150.444316914 -39.2379859259 c 0
 141.036202807 -50.2141190507 127.494379344 -55.7793501766 113.932032204 -55.7793501766 c 0
 101.609611737 -55.7793501766 89.2702487697 -51.1851962693 79.9989905314 -41.8811356822 c 0
 69.2643436269 -31.1085088592 65.0779899676 -13.6396036613 66.2935807357 -2.69928674841 c 2
 90.2935807357 213.300713252 l 2
 93.0777041055 238.35782358 116.021953669 256 138 256 c 2
 378 256 l 2
 404.144471708 256 426 234.146366075 426 208 c 0
 426 181.853633925 404.144471708 160 378 160 c 2
 180.96205407 160 l 1
 173.318939397 91.2119679395 l 1
 197.709686187 100.429763679 225.998220033 106 254 106 c 0
 372.954720863 106 468 8.94035566234 468 -110 c 0
 468 -228.94033001 372.954768111 -326 254 -326 c 0
 172.884644526 -326 101.86702672 -280.854693464 65.7373872037 -213.756791506 c 0
 61.9304747044 -206.68681115 60.1304420252 -198.996038399 60.1304420252 -191.373558647 c 0
 60.1304420252 -174.175881916 69.2932248515 -157.325839934 85.2432084943 -148.737387204 c 0
EndSplineSet
EndChar

StartChar: uni2086
Encoding: 8326 8326 210
Width: 528
VWidth: -308
Flags: HW
LayerCount: 2
Fore
SplineSet
171.961213444 -156.970274969 m 0
 201.001249172 -216.125156065 249.656996362 -230 280 -230 c 0
 353.62035226 -230 386 -182.632353879 386 -142 c 0
 386 -102.2191201 342.698871886 -53 274 -53 c 0
 205.265604897 -53 172 -78.6543023049 172 -155 c 0
 172 -156 172 -155.785468262 171.961213444 -156.970274969 c 0
150.083081419 7.71186371741 m 1
 185.497900989 32.7755747568 228.783165942 43 274 43 c 0
 385.301128114 43 482 -37.7808799001 482 -142 c 0
 482 -237.367646121 402.37964774 -326 280 -326 c 0
 202.511260317 -326 81.5556474122 -273.000860637 56.7282590252 -101.390724785 c 0
 53.6282467363 -79.9630368728 52 -56.8799837623 52 -32 c 0
 52 184.48073916 193.760220258 262 280 262 c 0
 386.311899842 262 434.892087695 194.134052245 440.275393568 186.124896361 c 0
 445.165092486 178.309392913 447.617497144 169.220684366 447.617497144 160.121770562 c 0
 447.617497144 144.833996449 440.69438216 129.517412994 426.776481764 120.162580099 c 0
 418.661202266 114.70794388 409.596510813 112.181345298 400.632232016 112.181345298 c 0
 385.068618194 112.181345298 369.807680825 119.79733644 360.343589025 132.928421065 c 0
 358.662829368 135.146330716 334.850987109 166 280 166 c 0
 248.380056469 166 164.91046213 138.93985742 150.083081419 7.71186371741 c 1
EndSplineSet
EndChar

StartChar: uni2087
Encoding: 8327 8327 211
Width: 528
VWidth: -308
Flags: HW
LayerCount: 2
Fore
SplineSet
42 208 m 0
 42 234.144471708 63.8536339246 256 90 256 c 2
 426 256 l 2
 455.054472683 256 474 228.601416319 474 208 c 2
 474 164 l 2
 474 145.961671596 462.199656074 129.404475116 449.563546953 122.182822229 c 0
 445.110183137 119.645411861 270 19.5206781038 270 -248 c 2
 270 -272 l 2
 270 -298.144471708 248.146366075 -320 222 -320 c 0
 195.853633925 -320 174 -298.144471708 174 -272 c 2
 174 -248 l 2
 174 -31.6091623671 273.534124808 97.9063585514 341.512502475 160 c 1
 90 160 l 2
 63.8536339246 160 42 181.855528292 42 208 c 0
EndSplineSet
EndChar

StartChar: uni2088
Encoding: 8328 8328 212
Width: 528
VWidth: -308
Flags: HW
LayerCount: 2
Fore
SplineSet
202.621322464 -57.413151401 m 1
 179.938239669 -69.6612969912 147 -95.4375558193 147 -137 c 0
 147 -175.625048734 188.042390676 -230 264 -230 c 0
 351.019331434 -230 381 -183.17146179 381 -146 c 0
 381 -121.108268785 367.014394401 -92.1955415664 330.577305673 -76.6387049714 c 0
 315.828064129 -70.3415075656 296.665314089 -66 272 -66 c 0
 247.814007598 -66 224.350088565 -63.0155552034 202.621322464 -57.413151401 c 1
412.512953115 -14.62151327 m 1
 455.299410637 -48.962470005 477 -98.3256501087 477 -146 c 0
 477 -244.82853821 390.980668566 -326 264 -326 c 0
 141.957609324 -326 51 -236.374951266 51 -137 c 0
 51 -77.2546834475 80.894998408 -33.4502781512 109.466483003 -6.80466942587 c 1
 81.3435144565 20.9553230701 63 58.7972286402 63 100 c 0
 63 199.998391302 160.17089595 262 264 262 c 0
 361.197197016 262 465 201.783397074 465 100 c 0
 465 49.2560117063 436.435375674 10.7121223744 412.512953115 -14.62151327 c 1
314.779796933 26.7691596242 m 1
 339.780175374 45.4126925271 369 79.4093909616 369 100 c 0
 369 124.216602926 332.802802984 166 264 166 c 0
 189.82910405 166 159 126.001608698 159 100 c 0
 159 81.4777249512 169.399675237 61.9813314561 197.249890634 46.9130396442 c 0
 215.749123301 36.9040744659 241.316038335 30 272 30 c 0
 286.601423597 30 301.164694214 28.8606020628 314.779796933 26.7691596242 c 1
EndSplineSet
EndChar

StartChar: uni2089
Encoding: 8329 8329 213
Width: 528
VWidth: -308
Flags: HW
LayerCount: 2
Fore
SplineSet
356.038786556 92.9702749695 m 0
 326.998750828 152.125156065 278.343003638 166 248 166 c 0
 174.37964774 166 142 118.632353879 142 78 c 0
 142 38.2191200999 185.301128114 -11 254 -11 c 0
 322.734395103 -11 356 14.6543023049 356 91 c 0
 356 92 356 91.7854682625 356.038786556 92.9702749695 c 0
377.916918581 -71.7118637174 m 1
 342.502099011 -96.7755747568 299.216834058 -107 254 -107 c 0
 142.698871886 -107 46 -26.2191200999 46 78 c 0
 46 173.367646121 125.62035226 262 248 262 c 0
 325.488739683 262 446.444352588 209.000860637 471.271740975 37.3907247853 c 0
 474.371753264 15.9630368728 476 -7.12001623765 476 -32 c 0
 476 -248.48073916 334.239779742 -326 248 -326 c 0
 141.688100158 -326 93.1079123047 -258.134052245 87.7246064323 -250.124896361 c 0
 82.8349075139 -242.309392913 80.3825028562 -233.220684366 80.3825028562 -224.121770562 c 0
 80.3825028562 -208.833996449 87.3056178404 -193.517412994 101.223518236 -184.162580099 c 0
 109.338797734 -178.70794388 118.403489187 -176.181345298 127.367767984 -176.181345298 c 0
 142.931381806 -176.181345298 158.192319175 -183.79733644 167.656410975 -196.928421065 c 0
 169.337170632 -199.146330716 193.149012891 -230 248 -230 c 0
 279.619943531 -230 363.08953787 -202.93985742 377.916918581 -71.7118637174 c 1
EndSplineSet
EndChar

StartChar: uni00B5
Encoding: 181 181 214
Width: 580
VWidth: 0
Flags: HW
LayerCount: 2
Fore
SplineSet
436 528 m 0
 462.144471708 528 484 506.146366075 484 480 c 2
 484 48 l 2
 484 21.8555282921 462.146366075 0 436 0 c 0
 415.507238743 0 397.651489311 13.4257821161 390.887763986 31.819597833 c 1
 358.278916304 9.40859755589 316.163349146 -8 264 -8 c 1
 238.117587336 -8 213.738169198 -1.80715375387 192 9.31167330507 c 1
 192 -144 l 2
 192 -170.144471708 170.146366075 -192 144 -192 c 0
 117.853633925 -192 96 -170.144471708 96 -144 c 2
 96 176 l 1
 96 464 l 1
 96 480 l 2
 96 506.146366075 117.855528292 528 144 528 c 0
 170.144471708 528 192 506.146366075 192 480 c 2
 192 464 l 1
 192 176 l 2
 192 118.509147826 229.888853993 88 264 88 c 0
 328.097044669 88 372.895309615 144.022080368 388 166.351850272 c 1
 388 480 l 2
 388 506.146366075 409.855528292 528 436 528 c 0
EndSplineSet
EndChar

StartChar: paragraph
Encoding: 182 182 215
Width: 656
VWidth: 0
Flags: HW
LayerCount: 2
Fore
SplineSet
320 -192 m 0
 293.855528292 -192 272 -170.146366075 272 -144 c 2
 272 304 l 1
 156.49523569 304 48 378.381788721 48 520 c 0
 48 661.61806596 156.495216908 736 272 736 c 2
 512 736 l 2
 532.601416319 736 560 717.054472683 560 688 c 2
 560 -144 l 2
 560 -170.146366075 538.144471708 -192 512 -192 c 0
 485.855528292 -192 464 -170.146366075 464 -144 c 2
 464 640 l 1
 368 640 l 1
 368 -144 l 2
 368 -170.146366075 346.144471708 -192 320 -192 c 0
EndSplineSet
EndChar

StartChar: periodcentered
Encoding: 183 183 216
Width: 288
VWidth: 0
Flags: HW
HStem: 344 48<121.906 166.094>
VStem: 120 48<345.906 390.094>
LayerCount: 2
Fore
SplineSet
216 376 m 0
 216 331.711371998 180.27566836 296 136 296 c 0
 99.711554458 296 72 323.711554458 72 360 c 0
 72 404.288628002 107.72433164 440 152 440 c 0
 188.288445542 440 216 412.288445542 216 376 c 0
EndSplineSet
EndChar

StartChar: ordmasculine
Encoding: 186 186 217
Width: 432
VWidth: 0
Flags: HW
HStem: 468 224<163.348 268.652>
VStem: 128 176<506.704 653.296>
LayerCount: 2
Fore
SplineSet
352 580 m 0
 352 501.562717393 301.224824993 420 216 420 c 0
 130.783312209 420 80 501.57208266 80 580 c 0
 80 658.437282607 130.775175007 740 216 740 c 0
 301.216687791 740 352 658.42791734 352 580 c 0
256 580 m 0
 256 625.57208266 228.783312209 644 216 644 c 0
 203.224824993 644 176 625.562717393 176 580 c 0
 176 534.42791734 203.216687791 516 216 516 c 0
 228.775175007 516 256 534.437282607 256 580 c 0
EndSplineSet
EndChar

StartChar: uniE000
Encoding: 57344 57344 218
Width: 624
VWidth: 0
Flags: HW
LayerCount: 2
Fore
SplineSet
48 368 m 0
 48 394.144471708 69.8536339246 416 96 416 c 2
 528 416 l 2
 554.144471708 416 576 394.146366075 576 368 c 0
 576 341.853633925 554.144471708 320 528 320 c 2
 96 320 l 2
 69.8536339246 320 48 341.855528292 48 368 c 0
EndSplineSet
EndChar

StartChar: macron
Encoding: 175 175 222
Width: 320
VWidth: 0
Flags: HW
AnchorPoint: "above" 160 592 mark 0
LayerCount: 2
Fore
SplineSet
16 688 m 0
 16 714.144471708 37.8536339246 736 64 736 c 2
 256 736 l 2
 282.144471708 736 304 714.146366075 304 688 c 0
 304 661.853633925 282.144471708 640 256 640 c 2
 64 640 l 2
 37.8536339246 640 16 661.855528292 16 688 c 0
EndSplineSet
EndChar

StartChar: sterling
Encoding: 163 163 224
Width: 704
VWidth: 0
Flags: HW
LayerCount: 2
Fore
SplineSet
80 368 m 0
 80 394.144471708 101.853633925 416 128 416 c 2
 170.01973368 416 l 1
 156.02568286 444.660336734 144 478.134539038 144 528 c 1
 144 655.366470774 253.911443097 744 386 744 c 0
 507.844142761 744 628 677.75421779 628 536 c 0
 628 509.853633925 606.144471708 488 580 488 c 0
 553.855528292 488 532 509.853633925 532 536 c 0
 532 608.24578221 480.155857239 648 386 648 c 0
 294.088556903 648 240 592.633529226 240 528 c 0
 240 500.23929745 264.850450812 466.410169938 283.889317563 416 c 1
 416 416 l 2
 442.144471708 416 464 394.146366075 464 368 c 0
 464 341.853633925 442.144471708 320 416 320 c 2
 304.717307696 320 l 1
 305.093204659 313.647247057 305.292133489 307.117038159 305.292133489 300.401843982 c 0
 305.292133489 245.83110564 292.155011312 179.044067584 254.095215075 96 c 1
 576 96 l 2
 602.144471708 96 624 74.1463660754 624 48 c 0
 624 21.8536339246 602.144471708 0 576 0 c 2
 176 0 l 2
 170.366431824 0 162.400283173 1.47305770275 156.238981523 4.25640448288 c 0
 138.55631729 12.2444870927 128.14103744 30.1146112232 128.14103744 48.4253973173 c 0
 128.14103744 56.1523179521 129.995721196 63.9577087382 133.941636384 71.1320999891 c 0
 193.368637849 179.181193563 212.774134573 245.271496563 212.774134573 293.134952471 c 0
 212.774134573 302.763126011 211.988890844 311.653749898 210.586215822 320 c 1
 128 320 l 2
 101.853633925 320 80 341.855528292 80 368 c 0
EndSplineSet
EndChar

StartChar: currency
Encoding: 164 164 225
Width: 576
VWidth: 0
Flags: HW
HStem: 240 256<216.45 359.55>
VStem: 160 256<296.45 439.55>
LayerCount: 2
Fore
SplineSet
497.941125497 577.941125497 m 0
 507.184759549 568.697491445 511.806827748 556.348716963 511.806827748 543.999831278 c 0
 511.806827748 531.651392954 507.185094429 519.302843435 497.941125497 510.058874503 c 2
 441.762027499 453.879776505 l 1
 455.932262231 428.498189828 464 399.216612842 464 368 c 0
 464 336.783818206 455.932302382 307.502138287 441.761955766 282.120295228 c 1
 497.941125497 225.941125497 l 2
 507.184759549 216.697491445 511.806827748 204.348716963 511.806827748 191.999831278 c 0
 511.806827748 179.651392954 507.185094429 167.302843435 497.941125497 158.058874503 c 0
 488.697156565 148.814905571 476.348607046 144.193172252 464.000168722 144.193172252 c 0
 451.651283037 144.193172252 439.302508555 148.815240451 430.058874503 158.058874503 c 2
 373.879776505 214.237972501 l 1
 348.498189828 200.067737769 319.216612842 192 288 192 c 0
 256.783818206 192 227.502138287 200.067697618 202.120295228 214.238044234 c 1
 145.941125497 158.058874503 l 2
 136.697491445 148.815240451 124.348716963 144.193172252 111.999831278 144.193172252 c 0
 99.6513929539 144.193172252 87.3028434346 148.814905571 78.058874503 158.058874503 c 0
 68.8149055715 167.302843435 64.1931722521 179.651392954 64.1931722521 191.999831278 c 0
 64.1931722521 204.348716963 68.8152404515 216.697491445 78.058874503 225.941125497 c 2
 134.237972501 282.120223495 l 1
 120.067737769 307.501810172 112 336.783387158 112 368 c 1
 112 399.216181794 120.067697618 428.497861713 134.238044234 453.879704772 c 1
 78.058874503 510.058874503 l 2
 68.8149055715 519.302843435 64.1931722521 531.651392954 64.1931722521 543.999831278 c 0
 64.1931722521 556.348716963 68.8152404515 568.697491445 78.058874503 577.941125497 c 0
 87.3025085546 587.184759549 99.6512830367 591.806827748 112.000168722 591.806827748 c 0
 124.348607046 591.806827748 136.697156565 587.185094429 145.941125497 577.941125497 c 2
 202.120223495 521.762027499 l 1
 227.501810172 535.932262231 256.783387158 544 288 544 c 1
 319.216181794 544 348.497861713 535.932302382 373.879704772 521.761955766 c 1
 430.058874503 577.941125497 l 2
 439.302843435 587.185094429 451.651392954 591.806827748 463.999831278 591.806827748 c 0
 476.348716963 591.806827748 488.697491445 587.184759549 497.941125497 577.941125497 c 0
368 368 m 0
 368 412.576427747 332.579329196 448 288 448 c 0
 243.423572253 448 208 412.579329196 208 368 c 0
 208 323.423572253 243.420670804 288 288 288 c 0
 332.576427747 288 368 323.420670804 368 368 c 0
EndSplineSet
EndChar

StartChar: section
Encoding: 167 167 227
Width: 624
VWidth: 0
Flags: HW
LayerCount: 2
Fore
SplineSet
118.316664158 -1.63445165259 m 0
 123.581056467 0.185502819554 128.881049426 1.05521593051 134.064256269 1.05521593051 c 0
 153.789353803 1.05521593051 171.823105366 -11.5403375182 179.766868213 -32.2932111977 c 0
 180.435632149 -34.0010209414 206.907705526 -104 312 -104 c 0
 400.388477849 -104 442 -64.9203365712 442 -19 c 0
 442 4.06702940086 436.724793635 52.1649221919 291.010096447 73.5116612705 c 0
 133.650215908 96.7831928995 72 182.667408111 72 268 c 0
 72 335.653526064 109.08727325 391.406489731 165.854558177 427.252726289 c 1
 109.750808495 463.656092328 86 512.773391213 86 563 c 0
 86 685.079663429 200.388477849 744 312 744 c 0
 483.010416631 744 532.430072273 615.174496337 535.622144069 605.941123483 c 0
 537.050007156 601.327243919 537.74173866 596.546828242 537.74173866 591.77599458 c 0
 537.74173866 572.13999953 526.023702506 552.666325248 505.683335842 545.634451653 c 0
 500.418943533 543.81449718 495.118950574 542.944784069 489.935743731 542.944784069 c 0
 470.210646197 542.944784069 452.176894634 555.540337518 444.233131787 576.293211198 c 0
 443.564367851 578.001020941 417.092294474 648 312 648 c 0
 223.611522151 648 182 608.920336571 182 563 c 0
 182 539.932970599 187.275206365 491.835077808 332.989903553 470.48833873 c 0
 490.349784092 447.216807101 552 361.332591889 552 276 c 0
 552 208.346473936 514.91272675 152.593510269 458.145441823 116.747273711 c 1
 514.249191505 80.343907672 538 31.2266087871 538 -19 c 0
 538 -141.079663429 423.611522151 -200 312 -200 c 0
 140.989583369 -200 91.5699277274 -71.1744963366 88.3778559308 -61.9411234832 c 0
 86.9499928439 -57.3272439188 86.2582613399 -52.5468282424 86.2582613399 -47.7759945802 c 0
 86.2582613399 -28.13999953 97.9762974937 -8.66632524759 118.316664158 -1.63445165259 c 0
322.532178367 374.978410222 m 1
 219.535803406 373.691885263 168 315.152930425 168 268 c 1
 168 235.639334773 178.128857967 188.127065968 301.467821633 169.021589778 c 1
 404.464196594 170.308114737 456 228.847069575 456 276 c 1
 456 308.360665227 445.871142033 355.872934032 322.532178367 374.978410222 c 1
EndSplineSet
EndChar

StartChar: ordfeminine
Encoding: 170 170 228
Width: 440
VWidth: 0
Flags: HW
LayerCount: 2
Fore
SplineSet
269.07301516 432.464772197 m 0
 253.249473307 424.574355797 235.451395037 420 216 420 c 0
 130.775175007 420 80 501.562717393 80 580 c 0
 80 658.42791734 130.783312209 740 216 740 c 0
 235.395269739 740 253.271229481 735.487148168 269.233599345 727.645424845 c 1
 276.92306508 732.90283043 296 736 296 736 c 0
 322.144471708 736 344 714.146366075 344 688 c 2
 344 472 l 2
 344 445.855528292 322.146366075 424 296 424 c 0
 286.088636889 424 276.794121394 427.140547802 269.07301516 432.464772197 c 1024
248 543.732827847 m 1
 248 618.357678281 l 1
 238.739390213 637.30184065 224.665656779 644 216 644 c 0
 203.216687791 644 176 625.57208266 176 580 c 0
 176 534.437282607 203.224824993 516 216 516 c 0
 224.668497419 516 238.641442308 522.476655766 248 543.732827847 c 1
EndSplineSet
EndChar

StartChar: guillemotleft
Encoding: 171 171 229
Width: 768
VWidth: 0
Flags: HW
LayerCount: 2
Fore
SplineSet
657.941125497 513.941125497 m 0
 667.184759549 504.697491445 671.806827748 492.348716963 671.806827748 479.999831278 c 0
 671.806827748 467.651392954 667.185094429 455.302843435 657.941125497 446.058874503 c 2
 475.882250994 264 l 1
 657.941125497 81.941125497 l 2
 667.184759549 72.6974914454 671.806827748 60.3487169633 671.806827748 47.9998312779 c 0
 671.806827748 35.6513929539 667.185094429 23.3028434346 657.941125497 14.058874503 c 0
 648.697156565 4.81490557148 636.348607046 0.193172252064 624.000168722 0.193172252064 c 0
 611.651283037 0.193172252064 599.302508555 4.8152404515 590.058874503 14.058874503 c 2
 374.058874503 230.058874503 l 2
 366.16813066 237.949618346 360.797815321 251.181216568 360.797815321 264.917655859 c 0
 360.797815321 276.540577602 364.642688974 288.524939968 374.058874503 297.941125497 c 2
 590.058874503 513.941125497 l 2
 599.302843435 523.185094429 611.651392954 527.806827748 623.999831278 527.806827748 c 0
 636.348716963 527.806827748 648.697491445 523.184759549 657.941125497 513.941125497 c 0
377.941125497 513.941125497 m 0
 387.184759549 504.697491445 391.806827748 492.348716963 391.806827748 479.999831278 c 0
 391.806827748 467.651392954 387.185094429 455.302843435 377.941125497 446.058874503 c 2
 195.882250994 264 l 1
 377.941125497 81.941125497 l 2
 387.184759549 72.6974914454 391.806827748 60.3487169633 391.806827748 47.9998312779 c 0
 391.806827748 35.6513929539 387.185094429 23.3028434346 377.941125497 14.058874503 c 0
 368.697156565 4.81490557148 356.348607046 0.193172252064 344.000168722 0.193172252064 c 0
 331.651283037 0.193172252064 319.302508555 4.8152404515 310.058874503 14.058874503 c 2
 94.058874503 230.058874503 l 2
 86.1681306596 237.949618346 80.7978153208 251.181216568 80.7978153208 264.917655859 c 0
 80.7978153208 276.540577602 84.6426889736 288.524939968 94.058874503 297.941125497 c 2
 310.058874503 513.941125497 l 2
 319.302843435 523.185094429 331.651392954 527.806827748 343.999831278 527.806827748 c 0
 356.348716963 527.806827748 368.697491445 523.184759549 377.941125497 513.941125497 c 0
EndSplineSet
EndChar

StartChar: logicalnot
Encoding: 172 172 230
Width: 640
VWidth: 0
Flags: HW
LayerCount: 2
Fore
SplineSet
56 460 m 0
 56 486.144471708 77.8536339246 508 104 508 c 2
 536 508 l 2
 565.054472683 508 584 480.601416319 584 460 c 2
 584 276 l 2
 584 249.855528292 562.146366075 228 536 228 c 0
 509.853633925 228 488 249.855528292 488 276 c 2
 488 412 l 1
 104 412 l 2
 77.8536339246 412 56 433.855528292 56 460 c 0
EndSplineSet
EndChar

StartChar: guillemotright
Encoding: 187 187 231
Width: 768
VWidth: 0
Flags: HW
LayerCount: 2
Fore
SplineSet
110.058874503 513.941125497 m 0
 119.302508555 523.184759549 131.651283037 527.806827748 144.000168722 527.806827748 c 0
 156.348607046 527.806827748 168.697156565 523.185094429 177.941125497 513.941125497 c 2
 393.941125497 297.941125497 l 2
 403.357311026 288.524939968 407.202184679 276.540577602 407.202184679 264.917655859 c 0
 407.202184679 251.181216568 401.83186934 237.949618346 393.941125497 230.058874503 c 2
 177.941125497 14.058874503 l 2
 168.697491445 4.8152404515 156.348716963 0.193172252064 143.999831278 0.193172252064 c 0
 131.651392954 0.193172252064 119.302843435 4.81490557148 110.058874503 14.058874503 c 0
 100.814905571 23.3028434346 96.1931722521 35.6513929539 96.1931722521 47.9998312779 c 0
 96.1931722521 60.3487169633 100.815240451 72.6974914454 110.058874503 81.941125497 c 2
 292.117749006 264 l 1
 110.058874503 446.058874503 l 2
 100.814905571 455.302843435 96.1931722521 467.651392954 96.1931722521 479.999831278 c 0
 96.1931722521 492.348716963 100.815240451 504.697491445 110.058874503 513.941125497 c 0
390.058874503 513.941125497 m 0
 399.302508555 523.184759549 411.651283037 527.806827748 424.000168722 527.806827748 c 0
 436.348607046 527.806827748 448.697156565 523.185094429 457.941125497 513.941125497 c 2
 673.941125497 297.941125497 l 2
 683.357311026 288.524939968 687.202184679 276.540577602 687.202184679 264.917655859 c 0
 687.202184679 251.181216568 681.83186934 237.949618346 673.941125497 230.058874503 c 2
 457.941125497 14.058874503 l 2
 448.697491445 4.8152404515 436.348716963 0.193172252064 423.999831278 0.193172252064 c 0
 411.651392954 0.193172252064 399.302843435 4.81490557148 390.058874503 14.058874503 c 0
 380.814905571 23.3028434346 376.193172252 35.6513929539 376.193172252 47.9998312779 c 0
 376.193172252 60.3487169633 380.815240451 72.6974914454 390.058874503 81.941125497 c 2
 572.117749006 264 l 1
 390.058874503 446.058874503 l 2
 380.814905571 455.302843435 376.193172252 467.651392954 376.193172252 479.999831278 c 0
 376.193172252 492.348716963 380.815240451 504.697491445 390.058874503 513.941125497 c 0
EndSplineSet
EndChar

StartChar: AE
Encoding: 198 198 232
Width: 912
VWidth: 0
Flags: HW
LayerCount: 2
Fore
SplineSet
828 688 m 0
 828 661.855528292 806.146366075 640 780 640 c 2
 516 640 l 1
 516 436 l 1
 684 436 l 2
 710.144471708 436 732 414.146366075 732 388 c 0
 732 361.853633925 710.144471708 340 684 340 c 2
 516 340 l 1
 516 96 l 1
 792 96 l 2
 818.144471708 96 840 74.1463660754 840 48 c 0
 840 21.8536339246 818.144471708 0 792 0 c 2
 468 0 l 2
 441.853633925 0 420 21.8555282921 420 48 c 2
 420 144 l 1
 196.932139879 144 l 1
 139.03956474 26.7492149095 l 2
 130.754092318 9.96851127025 113.402322045 0.117032407269 95.6112983701 0.117032407269 c 0
 88.5464650922 0.117032407269 81.4123662952 1.67050426298 74.7492149095 4.96043525968 c 0
 57.969443347 13.2454474687 48.116960681 30.5970532589 48.116960681 48.388716601 c 0
 48.116960681 55.4533835935 49.670405982 62.5874346548 52.9604352597 69.2507850905 c 2
 368.96043526 709.250785091 l 2
 377.061272765 725.657544594 394.537349276 736 412 736 c 2
 444 736 l 1
 468 736 l 1
 780 736 l 2
 806.146366075 736 828 714.144471708 828 688 c 0
244.332139879 240 m 1
 420 240 l 1
 420 595.78300784 l 1
 244.332139879 240 l 1
EndSplineSet
EndChar

StartChar: Eth
Encoding: 208 208 233
Width: 696
VWidth: 0
Flags: HW
HStem: 48 21G<144 384> 668 20G<144 384>
VStem: 144 432<226.215 509.777>
LayerCount: 2
Fore
SplineSet
0 388 m 0
 0 414.144471708 21.8536339246 436 48 436 c 2
 96 436 l 1
 96 688 l 2
 96 717.054472683 123.398583681 736 144 736 c 2
 352 736 l 2
 442.635296702 736 624 648.472766072 624 368 c 0
 624 87.5271650901 442.635311815 0 352 0 c 2
 144 0 l 2
 114.945527317 0 96 27.3985836813 96 48 c 2
 96 340 l 1
 48 340 l 2
 21.8536339246 340 0 361.855528292 0 388 c 0
192 96 m 1
 352 96 l 2
 389.364688185 96 528 136.47283491 528 368 c 0
 528 599.527233928 389.364703298 640 352 640 c 2
 192 640 l 1
 192 436 l 1
 288 436 l 2
 314.144471708 436 336 414.146366075 336 388 c 0
 336 361.853633925 314.144471708 340 288 340 c 2
 192 340 l 1
 192 96 l 1
EndSplineSet
EndChar

StartChar: multiply
Encoding: 215 215 234
Width: 640
VWidth: 0
Flags: HW
LayerCount: 2
Fore
SplineSet
529.941125497 577.941125497 m 0
 539.184759549 568.697491445 543.806827748 556.348716963 543.806827748 543.999831278 c 0
 543.806827748 531.651392954 539.185094429 519.302843435 529.941125497 510.058874503 c 2
 387.882250994 368 l 1
 529.941125497 225.941125497 l 2
 539.184759549 216.697491445 543.806827748 204.348716963 543.806827748 191.999831278 c 0
 543.806827748 179.651392954 539.185094429 167.302843435 529.941125497 158.058874503 c 0
 520.697156565 148.814905571 508.348607046 144.193172252 496.000168722 144.193172252 c 0
 483.651283037 144.193172252 471.302508555 148.815240451 462.058874503 158.058874503 c 2
 320 300.117749006 l 1
 177.941125497 158.058874503 l 2
 168.697491445 148.815240451 156.348716963 144.193172252 143.999831278 144.193172252 c 0
 131.651392954 144.193172252 119.302843435 148.814905571 110.058874503 158.058874503 c 0
 100.814905571 167.302843435 96.1931722521 179.651392954 96.1931722521 191.999831278 c 0
 96.1931722521 204.348716963 100.815240451 216.697491445 110.058874503 225.941125497 c 2
 252.117749006 368 l 1
 110.058874503 510.058874503 l 2
 100.814905571 519.302843435 96.1931722521 531.651392954 96.1931722521 543.999831278 c 0
 96.1931722521 556.348716963 100.815240451 568.697491445 110.058874503 577.941125497 c 0
 119.302508555 587.184759549 131.651283037 591.806827748 144.000168722 591.806827748 c 0
 156.348607046 591.806827748 168.697156565 587.185094429 177.941125497 577.941125497 c 2
 320 435.882250994 l 1
 462.058874503 577.941125497 l 2
 471.302843435 587.185094429 483.651392954 591.806827748 495.999831278 591.806827748 c 0
 508.348716963 591.806827748 520.697491445 587.184759549 529.941125497 577.941125497 c 0
EndSplineSet
EndChar

StartChar: uniE001
Encoding: 57345 57345 235
Width: 736
VWidth: 0
Flags: HW
AnchorPoint: "middle" 368 368 basechar 0
LayerCount: 2
Fore
SplineSet
99.2 9.6 m 0
 86.7642108426 18.926841868 80.1767271952 33.5244197061 80.1767271952 48.2244591869 c 0
 80.1767271952 58.2482075701 83.239698024 68.3195973654 89.6 76.8 c 2
 569.6 716.8 l 2
 578.926841868 729.235789157 593.524419706 735.823272805 608.224459187 735.823272805 c 0
 618.24820757 735.823272805 628.319597365 732.760301976 636.8 726.4 c 0
 649.236337916 717.072746563 655.823228436 702.475323633 655.823228436 687.77580521 c 0
 655.823228436 677.751711751 652.76010537 667.680140493 646.4 659.2 c 2
 166.4 19.2 l 2
 157.072746563 6.76366208437 142.475323633 0.176771564229 127.77580521 0.176771564229 c 0
 117.751711751 0.176771564229 107.680140493 3.2398946299 99.2 9.6 c 0
EndSplineSet
EndChar

StartChar: Thorn
Encoding: 222 222 237
Width: 680
VWidth: 0
Flags: HW
LayerCount: 2
Fore
SplineSet
144 736 m 0
 170.144471708 736 192 714.146366075 192 688 c 2
 192 604 l 1
 384 604 l 2
 499.504783092 604 608 529.61806596 608 388 c 0
 608 246.381788721 499.50476431 172 384 172 c 2
 192 172 l 1
 192 48 l 2
 192 21.8555282921 170.146366075 0 144 0 c 0
 117.853633925 0 96 21.8555282921 96 48 c 2
 96 556 l 1
 96 688 l 2
 96 714.146366075 117.855528292 736 144 736 c 0
192 508 m 1
 192 268 l 1
 384 268 l 2
 460.49523569 268 512 305.618211279 512 388 c 0
 512 470.38193404 460.495216908 508 384 508 c 2
 192 508 l 1
EndSplineSet
EndChar

StartChar: germandbls
Encoding: 223 223 238
Width: 632
VWidth: 0
Flags: HW
LayerCount: 2
Fore
SplineSet
144 0 m 0
 117.855528292 0 96 21.8536339246 96 48 c 2
 96 528 l 2
 96 629.744128817 175.991495316 744 304 744 c 2
 336 744 l 2
 458.727226939 744 544 647.704546174 544 542 c 0
 544 484.997033484 519.202344277 430.730341711 477.105423175 392.825710563 c 1
 532.302594991 347.944775289 560 275.756155858 560 214 c 0
 560 116.106926263 490.404251639 -8 352 -8 c 2
 336 -8 l 2
 309.855528292 -8 288 13.8536339246 288 40 c 0
 288 66.1463660754 309.855528292 88 336 88 c 2
 352 88 l 2
 421.595748361 88 464 151.893073737 464 214 c 0
 464 276.106913077 421.595734009 340 352 340 c 2
 336 340 l 2
 309.855528292 340 288 361.853633925 288 388 c 0
 288 414.146366075 309.855528292 436 336 436 c 0
 405.271415389 436 448 487.704598345 448 542 c 0
 448 596.295453826 405.272773061 648 336 648 c 2
 304 648 l 2
 240.008504684 648 192 586.255871183 192 528 c 2
 192 48 l 2
 192 21.8536339246 170.144471708 0 144 0 c 0
EndSplineSet
EndChar

StartChar: ae
Encoding: 230 230 239
Width: 800
VWidth: 0
Flags: HW
LayerCount: 2
Fore
SplineSet
86.2251709194 394.350835956 m 0
 74.1940333305 403.865657186 68.3829451578 417.901191384 68.3829451578 431.891034443 c 0
 68.3829451578 442.299097708 71.5993568113 452.68187113 77.8637757333 461.158974876 c 0
 83.3098900201 468.04538385 138.601225763 536 248 536 c 0
 304.404917225 536 359.920694627 513.757882166 394.053758675 475.502200701 c 1
 430.130530981 512.841454865 477.202944672 536 532 536 c 1
 598.598760086 536 660.174199079 503.923759223 699.775782755 441.327707605 c 0
 730.232750538 391.37828044 740 341.546029054 740 288 c 0
 740 258.945527317 712.601416319 240 692 240 c 2
 413.054386815 240 l 1
 421.987121753 141.017355548 480.201463799 88 532 88 c 0
 611.492742367 88 645.973302389 144.366781518 651.748694034 154.231901719 c 0
 658.762719606 166.080458513 675.755091197 175.502597618 693.384030888 175.502597618 c 0
 700.733339849 175.502597618 708.193282016 173.865064326 715.087010435 170.083131409 c 0
 731.249224505 161.216462214 739.640549312 144.414720454 739.640549312 127.612334425 c 0
 739.640549312 120.032727133 737.932965515 112.452988736 734.460843964 105.601473854 c 0
 730.942923295 99.1889884361 671.604157527 -8 532 -8 c 0
 477.885384602 -8 431.44638938 14.293845716 395.648319055 50.6068278547 c 1
 365.992573965 24.4343617442 315.644787586 -8 248 -8 c 0
 133.864949448 -8 60 68.2217152343 60 160 c 0
 60 234.049813706 106.849181467 311.049982465 243.54474003 323.792788772 c 0
 329.59977561 331.760847622 332 368.046160131 332 388 c 0
 332 404.098212773 306.838747394 440 248 440 c 0
 187.815505859 440 154.673214663 403.392998618 154.468381175 403.154308355 c 0
 143.810087202 390.548035346 129.574675646 384.011537557 115.397956699 384.011537557 c 0
 105.190947263 384.011537557 95.0143627154 387.399906496 86.2251709194 394.350835956 c 0
422.161057391 336 m 1
 639.858522617 336 l 1
 635.975830089 355.002664907 630.142282456 370.943769111 618.226458457 390.668852226 c 0
 595.591569492 426.018192014 567.575962788 440 532 440 c 0
 488.973786145 440 443.192405794 405.316316326 422.161057391 336 c 1
316.68886839 241.85461557 m 1
 298.05143715 235.201856125 276.724370419 230.454351084 252.45525997 228.207211228 c 0
 153.150818533 218.950017535 156 189.950186294 156 160 c 0
 156 123.778284766 178.135050552 88 248 88 c 0
 289.62609397 88 325.437573701 116.966570758 341.819700925 132.867699488 c 1
 327.753955548 166.146475094 319.095442455 203.261167693 316.68886839 241.85461557 c 1
EndSplineSet
EndChar

StartChar: eth
Encoding: 240 240 240
Width: 568
VWidth: 0
Flags: HW
HStem: 40 448<207.697 360.303>
VStem: 108 352<157.228 370.772>
LayerCount: 2
Fore
SplineSet
206.058874503 721.941125497 m 0
 215.302508555 731.184759549 227.651283037 735.806827748 240.000168722 735.806827748 c 0
 252.348607046 735.806827748 264.697156565 731.185094429 273.941125497 721.941125497 c 0
 281.308763189 714.573487805 288.532011595 707.283828471 295.60652028 700.057244859 c 1
 334.453892754 719.429437692 379.153466242 736 432 736 c 0
 458.144471708 736 480 714.146366075 480 688 c 0
 480 661.853633925 458.144471708 640 432 640 c 0
 412.781584115 640 392.226338712 631.556116754 369.49949092 619.676850615 c 1
 457.05235181 516.053119826 508 413.871079323 508 264 c 0
 508 123.341848205 417.194081537 -8 284 -8 c 0
 150.805855074 -8 60 123.341772874 60 264 c 0
 60 404.658151795 150.805918463 536 284 536 c 0
 295.391674619 536 306.473285649 535.039255849 317.214542787 533.194108812 c 1
 306.755981513 546.385183394 295.38461374 559.770595319 283.077277828 573.539951684 c 1
 247.400973843 557.056835154 206.910259953 544 160 544 c 0
 133.853633925 544 112 565.855528292 112 592 c 0
 112 618.144471708 133.853633925 640 160 640 c 0
 174.844668563 640 190.486984164 645.037928079 207.311635305 652.805590152 c 1
 206.89473312 653.222842397 206.477146329 653.640602677 206.058874503 654.058874503 c 0
 196.814905571 663.302843435 192.193172252 675.651392954 192.193172252 687.999831278 c 0
 192.193172252 700.348716963 196.815240451 712.697491445 206.058874503 721.941125497 c 0
412 264 m 0
 412 371.341772874 344.805855074 440 284 440 c 0
 223.194081537 440 156 371.341848205 156 264 c 0
 156 156.658227126 223.194144926 88 284 88 c 0
 344.805918463 88 412 156.658151795 412 264 c 0
EndSplineSet
EndChar

StartChar: uniE002
Encoding: 57346 57346 242
Width: 568
VWidth: 0
Flags: HW
AnchorPoint: "middle" 284 264 basechar 0
LayerCount: 2
Fore
SplineSet
86.5308505513 10.1110935659 m 0
 74.500930861 19.4676977695 68.1804485058 33.7911859344 68.1804485058 48.1996153595 c 0
 68.1804485058 58.5086902946 71.4160596977 68.861248761 78.1110935659 77.4691494487 c 2
 414.111093566 509.469149449 l 2
 423.467697769 521.499069139 437.791185934 527.819551494 452.19961536 527.819551494 c 0
 462.508690295 527.819551494 472.861248761 524.583940302 481.469149449 517.888906434 c 0
 493.499587221 508.531899277 499.81951191 494.20858237 499.81951191 479.800665437 c 0
 499.81951191 469.491230757 496.583730216 459.138481128 489.888906434 450.530850551 c 2
 153.888906434 18.5308505513 l 2
 144.531899277 6.5004127785 130.20858237 0.180488090222 115.800665437 0.180488090222 c 0
 105.491230757 0.180488090222 95.1384811276 3.41626978437 86.5308505513 10.1110935659 c 0
EndSplineSet
EndChar

StartChar: thorn
Encoding: 254 254 243
Width: 588
VWidth: 0
Flags: HW
LayerCount: 2
Fore
SplineSet
144 736 m 0
 170.144471708 736 192 714.146366075 192 688 c 2
 192 500.034366908 l 1
 224.254421334 522.593608104 262.223838058 536 304 536 c 0
 437.194144926 536 528 404.658227126 528 264 c 0
 528 123.341848205 437.194081537 -8 304 -8 c 0
 262.230958435 -8 224.258803904 5.41226268147 192 27.9772671956 c 1
 192 -144 l 2
 192 -170.144471708 170.146366075 -192 144 -192 c 0
 117.853633925 -192 96 -170.144471708 96 -144 c 2
 96 688 l 2
 96 714.146366075 117.855528292 736 144 736 c 0
192 348.517045144 m 1
 192 179.482705962 l 1
 215.688818448 120.058487856 260.716825308 88 304 88 c 0
 364.805918463 88 432 156.658151795 432 264 c 0
 432 371.341772874 364.805855074 440 304 440 c 0
 260.740119694 440 215.683809533 407.923162106 192 348.517045144 c 1
EndSplineSet
EndChar

StartChar: uni203D
Encoding: 8253 8253 244
Width: 608
VWidth: 0
Flags: HW
HStem: 48 48<281.906 326.094>
VStem: 280 48<49.9059 94.0941>
LayerCount: 2
Fore
SplineSet
376 80 m 0
 376 35.7113719983 340.27566836 0 296 0 c 0
 259.711554458 0 232 27.711554458 232 64 c 0
 232 108.288628002 267.72433164 144 312 144 c 0
 348.288445542 144 376 116.288445542 376 80 c 0
112 488 m 0
 85.8555282921 488 64 509.853633925 64 536 c 0
 64 677.112457276 181.681421072 744 304 744 c 0
 425.272883885 744 544 687.161845257 544 560 c 0
 544 467.612941979 487.8745951 419.07993839 424.088978232 382.48163363 c 0
 360.657981281 345.268782085 352 334.712212876 352 240 c 0
 352 213.855528292 330.146366075 192 304 192 c 0
 277.853633925 192 256 213.855528292 256 240 c 2
 256 643.92438286 l 1
 193.245150321 632.175454633 160 595.245214439 160 536 c 0
 160 509.853633925 138.144471708 488 112 488 c 0
352 644.62130768 m 1
 352 450.258878994 l 1
 359.472740062 455.473242399 367.43686329 460.546860063 375.911021768 465.51836637 c 0
 434.1254049 498.92006161 448 512.387058021 448 560 c 0
 448 600.369723736 419.799430602 634.127904698 352 644.62130768 c 1
EndSplineSet
EndChar

StartChar: afii00208
Encoding: 8213 8213 245
Width: 1024
VWidth: 0
Flags: HW
LayerCount: 2
Fore
SplineSet
0 368 m 0
 0 394.144471708 21.8536339246 416 48 416 c 2
 976 416 l 2
 1002.14447171 416 1024 394.146366075 1024 368 c 0
 1024 341.853633925 1002.14447171 320 976 320 c 2
 48 320 l 2
 21.8536339246 320 0 341.855528292 0 368 c 0
EndSplineSet
EndChar

StartChar: bullet
Encoding: 8226 8226 246
Width: 352
VWidth: 0
Flags: HW
HStem: 304 128<127.613 224.387> 336 64<158.336 193.664>
VStem: 112 128<319.613 416.387> 144 64<350.336 385.664>
LayerCount: 2
Fore
SplineSet
288 368 m 0
 288 306.311893784 237.681430022 256 176 256 c 0
 114.311893784 256 64 306.318569978 64 368 c 0
 64 429.688106216 114.318569978 480 176 480 c 0
 237.688106216 480 288 429.681430022 288 368 c 0
EndSplineSet
EndChar

StartChar: uni2016
Encoding: 8214 8214 247
Width: 448
VWidth: 0
Flags: HW
LayerCount: 2
Fore
SplineSet
304 816 m 0
 330.144471708 816 352 794.146366075 352 768 c 2
 352 -32 l 2
 352 -58.1444717079 330.146366075 -80 304 -80 c 0
 277.853633925 -80 256 -58.1444717079 256 -32 c 2
 256 768 l 2
 256 794.146366075 277.855528292 816 304 816 c 0
144 816 m 0
 170.144471708 816 192 794.146366075 192 768 c 2
 192 -32 l 2
 192 -58.1444717079 170.146366075 -80 144 -80 c 0
 117.853633925 -80 96 -58.1444717079 96 -32 c 2
 96 768 l 2
 96 794.146366075 117.855528292 816 144 816 c 0
EndSplineSet
EndChar

StartChar: underscoredbl
Encoding: 8215 8215 248
Width: 576
VWidth: 0
Flags: HW
LayerCount: 2
Fore
SplineSet
0 -96 m 0
 0 -69.8555282921 21.8536339246 -48 48 -48 c 2
 528 -48 l 2
 554.144471708 -48 576 -69.8536339246 576 -96 c 0
 576 -122.146366075 554.144471708 -144 528 -144 c 2
 48 -144 l 2
 21.8536339246 -144 0 -122.144471708 0 -96 c 0
0 -240 m 0
 0 -213.855528292 21.8536339246 -192 48 -192 c 2
 528 -192 l 2
 554.144471708 -192 576 -213.853633925 576 -240 c 0
 576 -266.146366075 554.144471708 -288 528 -288 c 2
 48 -288 l 2
 21.8536339246 -288 0 -266.144471708 0 -240 c 0
EndSplineSet
EndChar

StartChar: quoteleft
Encoding: 8216 8216 249
Width: 296
VWidth: 0
Flags: HW
LayerCount: 2
Fore
SplineSet
182.496321063 627.701830052 m 1
 204.629869876 618.824738282 224 598.443850196 224 568 c 0
 224 523.711371998 188.27566836 488 144 488 c 0
 108.902699321 488 72 518.965149769 72 568 c 0
 72 627.808781025 108.728756246 704.192321065 110.117291509 707.465997144 c 0
 118.551630022 725.670064 136.044333197 735.983567453 154.130769791 735.983567453 c 0
 160.380362202 735.983567453 166.700845247 734.752154872 172.742994916 732.189366838 c 0
 190.861568383 724.504343162 201.905607274 706.368919782 201.905607274 687.60479639 c 0
 201.905607274 681.440648751 200.713768718 675.20865375 198.189366838 669.257005084 c 2
 198.189366838 669.257005084 190.60888726 651.413190812 182.496321063 627.701830052 c 1
EndSplineSet
EndChar

StartChar: quoteright
Encoding: 8217 8217 250
Width: 296
VWidth: 0
Flags: HW
LayerCount: 2
Fore
SplineSet
113.503678937 596.298169948 m 1
 91.370130124 605.175261718 72 625.556149804 72 656 c 0
 72 700.288628002 107.72433164 736 152 736 c 0
 187.097300679 736 224 705.034850231 224 656 c 0
 224 596.191218975 187.271243754 519.807678935 185.882708491 516.534002856 c 0
 177.448369978 498.329936 159.955666803 488.016432547 141.869230209 488.016432547 c 0
 135.619637798 488.016432547 129.299154753 489.247845128 123.257005084 491.810633162 c 0
 105.138431617 499.495656838 94.0943927256 517.631080218 94.0943927256 536.39520361 c 0
 94.0943927256 542.559351249 95.2862312824 548.79134625 97.8106331618 554.742994916 c 2
 97.8106331618 554.742994916 105.39111274 572.586809188 113.503678937 596.298169948 c 1
EndSplineSet
EndChar

StartChar: quotesinglbase
Encoding: 8218 8218 251
Width: 296
VWidth: 0
Flags: HW
LayerCount: 2
Fore
SplineSet
113.503678937 4.29816994809 m 1
 91.370130124 13.1752617182 72 33.5561498041 72 64 c 0
 72 108.288628002 107.72433164 144 152 144 c 0
 187.097300679 144 224 113.034850231 224 64 c 0
 224 4.19121897543 187.271243754 -72.1923210654 185.882708491 -75.4659971439 c 0
 177.448369978 -93.6700640002 159.955666803 -103.983567453 141.869230209 -103.983567453 c 0
 135.619637798 -103.983567453 129.299154753 -102.752154872 123.257005084 -100.189366838 c 0
 105.138431617 -92.5043431625 94.0943927256 -74.3689197816 94.0943927256 -55.6047963897 c 0
 94.0943927256 -49.4406487511 95.2862312824 -43.2086537497 97.8106331618 -37.2570050836 c 2
 97.8106331618 -37.2570050836 105.39111274 -19.4131908118 113.503678937 4.29816994809 c 1
EndSplineSet
EndChar

StartChar: quotereversed
Encoding: 8219 8219 252
Width: 296
VWidth: 0
Flags: HW
LayerCount: 2
Fore
SplineSet
178.58703086 600.476348432 m 1
 187.133410612 578.952132761 197.779839453 559.632830175 197.854222945 559.499455493 c 0
 201.933274033 552.227393443 203.863680816 544.255030346 203.863680816 536.352828873 c 0
 203.863680816 519.442586139 195.023679662 502.853637776 179.482302423 494.136155541 c 0
 172.152280034 490.024593291 164.128873614 488.032859542 156.163992106 488.032859542 c 0
 139.908275587 488.032859542 123.896336988 496.329167754 114.520306969 511.832824661 c 0
 113.083259949 514.394767346 72 577.7558922 72 640 c 0
 72 687.32443394 108.296168545 736 160 736 c 0
 196.288445542 736 224 708.288445542 224 672 c 0
 224 638.267920246 202.570346505 613.267450109 178.58703086 600.476348432 c 1
EndSplineSet
EndChar

StartChar: quotedblleft
Encoding: 8220 8220 253
Width: 512
VWidth: 0
Flags: HW
LayerCount: 2
Fore
SplineSet
398.496321063 627.701830052 m 1
 420.629869876 618.824738282 440 598.443850196 440 568 c 0
 440 523.711371998 404.27566836 488 360 488 c 0
 324.902699321 488 288 518.965149769 288 568 c 0
 288 627.808781025 324.728756246 704.192321065 326.117291509 707.465997144 c 0
 334.551630022 725.670064 352.044333197 735.983567453 370.130769791 735.983567453 c 0
 376.380362202 735.983567453 382.700845247 734.752154872 388.742994916 732.189366838 c 0
 406.861568383 724.504343162 417.905607274 706.368919782 417.905607274 687.60479639 c 0
 417.905607274 681.440648751 416.713768718 675.20865375 414.189366838 669.257005084 c 2
 414.189366838 669.257005084 406.60888726 651.413190812 398.496321063 627.701830052 c 1
182.496321063 627.701830052 m 1
 204.629869876 618.824738282 224 598.443850196 224 568 c 0
 224 523.711371998 188.27566836 488 144 488 c 0
 108.902699321 488 72 518.965149769 72 568 c 0
 72 627.808781025 108.728756246 704.192321065 110.117291509 707.465997144 c 0
 118.551630022 725.670064 136.044333197 735.983567453 154.130769791 735.983567453 c 0
 160.380362202 735.983567453 166.700845247 734.752154872 172.742994916 732.189366838 c 0
 190.861568383 724.504343162 201.905607274 706.368919782 201.905607274 687.60479639 c 0
 201.905607274 681.440648751 200.713768718 675.20865375 198.189366838 669.257005084 c 2
 198.189366838 669.257005084 190.60888726 651.413190812 182.496321063 627.701830052 c 1
EndSplineSet
EndChar

StartChar: quotedblright
Encoding: 8221 8221 254
Width: 512
VWidth: 0
Flags: HW
LayerCount: 2
Fore
SplineSet
329.503678937 596.298169948 m 1
 307.370130124 605.175261718 288 625.556149804 288 656 c 0
 288 700.288628002 323.72433164 736 368 736 c 0
 403.097300679 736 440 705.034850231 440 656 c 0
 440 596.191218975 403.271243754 519.807678935 401.882708491 516.534002856 c 0
 393.448369978 498.329936 375.955666803 488.016432547 357.869230209 488.016432547 c 0
 351.619637798 488.016432547 345.299154753 489.247845128 339.257005084 491.810633162 c 0
 321.138431617 499.495656838 310.094392726 517.631080218 310.094392726 536.39520361 c 0
 310.094392726 542.559351249 311.286231282 548.79134625 313.810633162 554.742994916 c 2
 313.810633162 554.742994916 321.39111274 572.586809188 329.503678937 596.298169948 c 1
113.503678937 596.298169948 m 1
 91.370130124 605.175261718 72 625.556149804 72 656 c 0
 72 700.288628002 107.72433164 736 152 736 c 0
 187.097300679 736 224 705.034850231 224 656 c 0
 224 596.191218975 187.271243754 519.807678935 185.882708491 516.534002856 c 0
 177.448369978 498.329936 159.955666803 488.016432547 141.869230209 488.016432547 c 0
 135.619637798 488.016432547 129.299154753 489.247845128 123.257005084 491.810633162 c 0
 105.138431617 499.495656838 94.0943927256 517.631080218 94.0943927256 536.39520361 c 0
 94.0943927256 542.559351249 95.2862312824 548.79134625 97.8106331618 554.742994916 c 2
 97.8106331618 554.742994916 105.39111274 572.586809188 113.503678937 596.298169948 c 1
EndSplineSet
EndChar

StartChar: quotedblbase
Encoding: 8222 8222 255
Width: 512
VWidth: 0
Flags: HW
LayerCount: 2
Fore
SplineSet
329.503678937 4.29816994809 m 1
 307.370130124 13.1752617182 288 33.5561498041 288 64 c 0
 288 108.288628002 323.72433164 144 368 144 c 0
 403.097300679 144 440 113.034850231 440 64 c 0
 440 4.19121897543 403.271243754 -72.1923210654 401.882708491 -75.4659971439 c 0
 393.448369978 -93.6700640002 375.955666803 -103.983567453 357.869230209 -103.983567453 c 0
 351.619637798 -103.983567453 345.299154753 -102.752154872 339.257005084 -100.189366838 c 0
 321.138431617 -92.5043431625 310.094392726 -74.3689197816 310.094392726 -55.6047963897 c 0
 310.094392726 -49.4406487511 311.286231282 -43.2086537497 313.810633162 -37.2570050836 c 2
 313.810633162 -37.2570050836 321.39111274 -19.4131908118 329.503678937 4.29816994809 c 1
113.503678937 4.29816994809 m 1
 91.370130124 13.1752617182 72 33.5561498041 72 64 c 0
 72 108.288628002 107.72433164 144 152 144 c 0
 187.097300679 144 224 113.034850231 224 64 c 0
 224 4.19121897543 187.271243754 -72.1923210654 185.882708491 -75.4659971439 c 0
 177.448369978 -93.6700640002 159.955666803 -103.983567453 141.869230209 -103.983567453 c 0
 135.619637798 -103.983567453 129.299154753 -102.752154872 123.257005084 -100.189366838 c 0
 105.138431617 -92.5043431625 94.0943927256 -74.3689197816 94.0943927256 -55.6047963897 c 0
 94.0943927256 -49.4406487511 95.2862312824 -43.2086537497 97.8106331618 -37.2570050836 c 2
 97.8106331618 -37.2570050836 105.39111274 -19.4131908118 113.503678937 4.29816994809 c 1
EndSplineSet
EndChar

StartChar: uni201F
Encoding: 8223 8223 256
Width: 512
VWidth: 0
Flags: HW
LayerCount: 2
Fore
SplineSet
394.58703086 600.476348432 m 1
 403.133410612 578.952132761 413.779839453 559.632830175 413.854222945 559.499455493 c 0
 417.933274033 552.227393443 419.863680816 544.255030346 419.863680816 536.352828873 c 0
 419.863680816 519.442586139 411.023679662 502.853637776 395.482302423 494.136155541 c 0
 388.152280034 490.024593291 380.128873614 488.032859542 372.163992106 488.032859542 c 0
 355.908275587 488.032859542 339.896336988 496.329167754 330.520306969 511.832824661 c 0
 329.083259949 514.394767346 288 577.7558922 288 640 c 0
 288 687.32443394 324.296168545 736 376 736 c 0
 412.288445542 736 440 708.288445542 440 672 c 0
 440 638.267920246 418.570346505 613.267450109 394.58703086 600.476348432 c 1
178.58703086 600.476348432 m 1
 187.133410612 578.952132761 197.779839453 559.632830175 197.854222945 559.499455493 c 0
 201.933274033 552.227393443 203.863680816 544.255030346 203.863680816 536.352828873 c 0
 203.863680816 519.442586139 195.023679662 502.853637776 179.482302423 494.136155541 c 0
 172.152280034 490.024593291 164.128873614 488.032859542 156.163992106 488.032859542 c 0
 139.908275587 488.032859542 123.896336988 496.329167754 114.520306969 511.832824661 c 0
 113.083259949 514.394767346 72 577.7558922 72 640 c 0
 72 687.32443394 108.296168545 736 160 736 c 0
 196.288445542 736 224 708.288445542 224 672 c 0
 224 638.267920246 202.570346505 613.267450109 178.58703086 600.476348432 c 1
EndSplineSet
EndChar

StartChar: dagger
Encoding: 8224 8224 257
Width: 624
VWidth: 0
Flags: HW
LayerCount: 2
Fore
SplineSet
64 568 m 0
 64 594.144471708 85.8536339246 616 112 616 c 2
 264 616 l 1
 264 768 l 2
 264 794.146366075 285.855528292 816 312 816 c 0
 338.144471708 816 360 794.146366075 360 768 c 2
 360 616 l 1
 512 616 l 2
 538.144471708 616 560 594.146366075 560 568 c 0
 560 541.853633925 538.144471708 520 512 520 c 2
 360 520 l 1
 360 -32 l 2
 360 -58.1444717079 338.146366075 -80 312 -80 c 0
 285.853633925 -80 264 -58.1444717079 264 -32 c 2
 264 520 l 1
 112 520 l 2
 85.8536339246 520 64 541.855528292 64 568 c 0
EndSplineSet
EndChar

StartChar: daggerdbl
Encoding: 8225 8225 258
Width: 624
VWidth: 0
Flags: HW
LayerCount: 2
Fore
SplineSet
64 168 m 0
 64 194.144471708 85.8536339246 216 112 216 c 2
 264 216 l 1
 264 520 l 1
 112 520 l 2
 85.8536339246 520 64 541.855528292 64 568 c 0
 64 594.144471708 85.8536339246 616 112 616 c 2
 264 616 l 1
 264 768 l 2
 264 794.146366075 285.855528292 816 312 816 c 0
 338.144471708 816 360 794.146366075 360 768 c 2
 360 616 l 1
 512 616 l 2
 538.144471708 616 560 594.146366075 560 568 c 0
 560 541.853633925 538.144471708 520 512 520 c 2
 360 520 l 1
 360 216 l 1
 512 216 l 2
 538.144471708 216 560 194.146366075 560 168 c 0
 560 141.853633925 538.144471708 120 512 120 c 2
 360 120 l 1
 360 -32 l 2
 360 -58.1444717079 338.146366075 -80 312 -80 c 0
 285.853633925 -80 264 -58.1444717079 264 -32 c 2
 264 120 l 1
 112 120 l 2
 85.8536339246 120 64 141.855528292 64 168 c 0
EndSplineSet
EndChar

StartChar: uni2023
Encoding: 8227 8227 259
Width: 352
VWidth: 0
Flags: HW
LayerCount: 2
Fore
SplineSet
279.532539502 326.164374218 m 2
 151.532539502 254.164374218 l 2
 144.254109483 250.070257332 136.298576992 248.145077834 128.420982911 248.145077834 c 0
 110.271156851 248.145077834 92.5350534246 258.364561775 84.4470384091 275.822301007 c 0
 81.5195543111 282.141188137 80 292.008100272 80 296 c 2
 80 440 l 2
 80 466.354847908 102.134417773 487.996663789 128.089835167 487.996663789 c 0
 129.307425075 487.996663789 130.53342357 487.949038267 131.765940101 487.852039613 c 0
 138.708559528 487.305657701 148.053297353 483.792699491 151.532539502 481.835625782 c 2
 279.532539502 409.835625782 l 2
 295.124603397 401.065089841 303.823947891 384.470271823 303.823947891 367.63911087 c 0
 303.823947891 358.511406696 301.265471017 349.314194073 295.860372666 341.257698474 c 0
 291.684084348 335.032788903 285.804565626 329.692388912 279.532539502 326.164374218 c 2
EndSplineSet
EndChar

StartChar: perthousand
Encoding: 8240 8240 260
Width: 1248
VWidth: 0
Flags: HW
HStem: 48 240<549.918 698.082 933.918 1082.08> 448 240<165.918 314.082>
VStem: 112 256<500.922 635.078> 496 256<100.922 235.078> 880 256<100.922 235.078>
CounterMasks: 1 38
LayerCount: 2
Fore
SplineSet
1184 168 m 0
 1184 72.9772083545 1102.96918097 0 1008 0 c 0
 913.030758999 0 832 72.9769934828 832 168 c 0
 832 263.022791646 913.030819029 336 1008 336 c 0
 1102.969241 336 1184 263.023006517 1184 168 c 0
1088 168 m 0
 1088 204.976993483 1055.030759 240 1008 240 c 0
 960.969180971 240 928 204.977208354 928 168 c 0
 928 131.023006517 960.969241001 96 1008 96 c 0
 1055.03081903 96 1088 131.022791646 1088 168 c 0
800 168 m 0
 800 72.9772083545 718.969180971 0 624 0 c 0
 529.030758999 0 448 72.9769934828 448 168 c 0
 448 263.022791646 529.030819029 336 624 336 c 0
 718.969241001 336 800 263.023006517 800 168 c 0
704 168 m 0
 704 204.976993483 671.030758999 240 624 240 c 0
 576.969180971 240 544 204.977208354 544 168 c 0
 544 131.023006517 576.969241001 96 624 96 c 0
 671.030819029 96 704 131.022791646 704 168 c 0
416 568 m 0
 416 472.977208354 334.969180971 400 240 400 c 0
 145.030758999 400 64 472.976993483 64 568 c 0
 64 663.022791646 145.030819029 736 240 736 c 0
 334.969241001 736 416 663.023006517 416 568 c 0
320 568 m 0
 320 604.976993483 287.030758999 640 240 640 c 0
 192.969180971 640 160 604.977208354 160 568 c 0
 160 531.023006517 192.969241001 496 240 496 c 0
 287.030819029 496 320 531.022791646 320 568 c 0
232.867900011 5.94163638352 m 0
 217.127700129 14.5987463186 208.133744892 31.3201530381 208.133744892 48.3684176865 c 0
 208.133744892 56.1321054802 209.998949543 63.96357846 213.941636384 71.1320999891 c 2
 565.941636384 711.132099989 l 2
 574.598746319 726.872299871 591.320153038 735.866255108 608.368417687 735.866255108 c 0
 616.13210548 735.866255108 623.96357846 734.001050457 631.132099989 730.058363616 c 0
 646.873132035 721.400795991 655.866185527 704.679325859 655.866185527 687.631664256 c 0
 655.866185527 679.867765087 654.000934372 672.036210476 650.058363616 664.867900011 c 2
 298.058363616 24.8679000109 l 2
 289.400795991 9.1268679654 272.679325859 0.13381447299 255.631664256 0.13381447299 c 0
 247.867765087 0.13381447299 240.036210476 1.99906562792 232.867900011 5.94163638352 c 0
EndSplineSet
EndChar

